<svg width="39" height="40" viewBox="0 0 39 40" fill="none" xmlns="http://www.w3.org/2000/svg">
<path d="M31.6875 40.0002H7.3125C3.27356 40.0002 0 36.6427 0 32.5002V7.50018C0 3.35768 3.27356 0.000183105 7.3125 0.000183105H31.6875C35.7264 0.000183105 39 3.35768 39 7.50018V32.5002C39 36.6427 35.7264 40.0002 31.6875 40.0002Z" fill="#000000"/>
<path d="M28.0664 9H9.93359C8.87012 9 8 9.86664 8 10.9336V22.6211C8 23.6924 8.8733 24.5461 9.93359 24.5461H14.0069C13.9004 24.9582 13.8438 25.3988 13.8438 25.8438C13.8438 28.6869 16.1568 31 19 31C21.8432 31 24.1562 28.6869 24.1562 25.8438C24.1562 25.3988 24.0996 24.9668 23.9931 24.5547H28.0664C29.1336 24.5547 30 23.6842 30 22.6211V10.9336C30 9.8806 29.1469 9 28.0664 9ZM27.7994 10.2891C27.5547 10.5337 20.5241 17.5643 20.3673 17.7212C19.6133 18.4751 18.3866 18.4751 17.6327 17.7212C17.4799 17.5684 10.4405 10.529 10.2006 10.2891H27.7994ZM9.28906 22.3541V11.2006L14.8658 16.7773L9.28906 22.3541ZM19 29.7109C16.8676 29.7109 15.1328 27.9761 15.1328 25.8438C15.1328 23.7114 16.8676 21.9766 19 21.9766C21.1324 21.9766 22.8672 23.7114 22.8672 25.8438C22.8672 27.9761 21.1324 29.7109 19 29.7109ZM23.4641 23.2656C22.5712 21.7256 20.9046 20.6875 19 20.6875C17.0954 20.6875 15.4288 21.7256 14.5359 23.2656H10.2006L15.7773 17.6888L16.7212 18.6327C17.3495 19.261 18.1747 19.5751 19 19.5751C19.8253 19.5751 20.6505 19.261 21.2788 18.6327L22.2227 17.6888L27.7994 23.2656H23.4641ZM28.7109 22.3541L23.1342 16.7773L28.7109 11.2006V22.3541Z" fill="url(#paint0_linear_1485_50045)"/>
<path d="M20.823 26.7552L19.9116 25.8437L20.823 24.9322C21.0748 24.6805 21.0748 24.2724 20.823 24.0207C20.5714 23.769 20.1633 23.769 19.9116 24.0207L19.0001 24.9322L18.0886 24.0207C17.8369 23.769 17.4288 23.769 17.1771 24.0207C16.9254 24.2724 16.9254 24.6805 17.1771 24.9322L18.0886 25.8437L17.1771 26.7552C16.9254 27.0069 16.9254 27.415 17.1771 27.6667C17.4287 27.9184 17.8368 27.9184 18.0886 27.6667L19.0001 26.7552L19.9116 27.6667C20.1632 27.9184 20.5713 27.9184 20.823 27.6667C21.0748 27.415 21.0748 27.0069 20.823 26.7552Z" fill="url(#paint1_linear_1485_50045)"/>
<defs>
<linearGradient id="paint0_linear_1485_50045" x1="8" y1="9" x2="30.2738" y2="9.28083" gradientUnits="userSpaceOnUse">
<stop stop-color="#40EDC3"/>
<stop offset="0.496174" stop-color="#7FFBA9"/>
<stop offset="1" stop-color="#D3F89A"/>
</linearGradient>
<linearGradient id="paint1_linear_1485_50045" x1="16.9883" y1="23.8319" x2="21.0619" y2="23.8833" gradientUnits="userSpaceOnUse">
<stop stop-color="#40EDC3"/>
<stop offset="0.496174" stop-color="#7FFBA9"/>
<stop offset="1" stop-color="#D3F89A"/>
</linearGradient>
</defs>
</svg>
