<svg width="24" height="25" viewBox="0 0 24 25" fill="none" xmlns="http://www.w3.org/2000/svg">
<path d="M14.5186 12.3274C15.1692 12.4661 15.6919 12.7914 16.0866 13.3034C16.4812 13.8047 16.6786 14.3807 16.6786 15.0314C16.6786 15.9701 16.3479 16.7167 15.6866 17.2714C15.0359 17.8154 14.1239 18.0874 12.9506 18.0874H7.71856V6.8554H12.7746C13.9159 6.8554 14.8066 7.11674 15.4466 7.6394C16.0972 8.16207 16.4226 8.8714 16.4226 9.7674C16.4226 10.4287 16.2466 10.9781 15.8946 11.4154C15.5532 11.8527 15.0946 12.1567 14.5186 12.3274ZM10.4546 11.3994H12.2466C12.6946 11.3994 13.0359 11.3034 13.2706 11.1114C13.5159 10.9087 13.6386 10.6154 13.6386 10.2314C13.6386 9.8474 13.5159 9.55407 13.2706 9.3514C13.0359 9.14874 12.6946 9.0474 12.2466 9.0474H10.4546V11.3994ZM12.4706 15.8794C12.9292 15.8794 13.2812 15.7781 13.5266 15.5754C13.7826 15.3621 13.9106 15.0581 13.9106 14.6634C13.9106 14.2687 13.7772 13.9594 13.5106 13.7354C13.2546 13.5114 12.8972 13.3994 12.4386 13.3994H10.4546V15.8794H12.4706Z" fill="#888888"/>
</svg>
