<svg width="24" height="25" viewBox="0 0 24 25" fill="none" xmlns="http://www.w3.org/2000/svg">
<path fill-rule="evenodd" clip-rule="evenodd" d="M4 6.1125C4 5.67067 4.40934 5.3125 4.91429 5.3125H19.0857C19.5907 5.3125 20 5.67067 20 6.1125C20 6.55433 19.5907 6.9125 19.0857 6.9125H4.91429C4.40934 6.9125 4 6.55433 4 6.1125ZM6 10.7125C6 10.2707 6.307 9.9125 6.68571 9.9125H17.3143C17.693 9.9125 18 10.2707 18 10.7125C18 11.1543 17.693 11.5125 17.3143 11.5125H6.68571C6.307 11.5125 6 11.1543 6 10.7125ZM6 19.9125C6 19.4707 6.307 19.1125 6.68571 19.1125H17.3143C17.693 19.1125 18 19.4707 18 19.9125C18 20.3543 17.693 20.7125 17.3143 20.7125H6.68571C6.307 20.7125 6 20.3543 6 19.9125ZM4 15.3125C4 14.8707 4.40934 14.5125 4.91429 14.5125H19.0857C19.5907 14.5125 20 14.8707 20 15.3125C20 15.7543 19.5907 16.1125 19.0857 16.1125H4.91429C4.40934 16.1125 4 15.7543 4 15.3125Z" fill="#888888"/>
</svg>
