<svg width="24" height="25" viewBox="0 0 24 25" fill="none" xmlns="http://www.w3.org/2000/svg">
<g clipPath="url(#clip0_1759_62238)">
<path d="M9.16442 7.45561C9.47611 7.10803 9.44702 6.57358 9.09944 6.26189C8.75186 5.9502 8.21741 5.97929 7.90572 6.32687C7.90572 6.32687 3.83698 10.7598 3.54899 11.0809C3.26101 11.402 3.26101 11.7769 3.54899 12.098L7.90572 16.8483C8.21741 17.1958 8.75186 17.2249 9.09944 16.9132C9.44702 16.6015 9.47611 16.0671 9.16442 15.7195L5.31379 11.5876L9.16442 7.45561Z" fill="#888888"/>
<path d="M14.341 7.45561C14.0293 7.10803 14.0584 6.57358 14.406 6.26189C14.7536 5.9502 15.288 5.97929 15.5997 6.32687C15.5997 6.32687 19.6684 10.7598 19.9564 11.0809C20.2444 11.402 20.2444 11.7769 19.9564 12.098L15.5997 16.8483C15.288 17.1958 14.7536 17.2249 14.406 16.9132C14.0584 16.6015 14.0293 16.0671 14.341 15.7195L18.1916 11.5876L14.341 7.45561Z" fill="#888888"/>
</g>
<defs>
<clipPath id="clip0_1759_62238">
<rect width="24" height="24" fill="white" transform="translate(0 0.0874023)"/>
</clipPath>
</defs>
</svg>
