<svg width="24" height="25" viewBox="0 0 24 25" fill="none" xmlns="http://www.w3.org/2000/svg">
<path d="M4.99219 4.09521H19.0082C20.6642 4.09521 22.0082 5.43921 22.0082 7.09522V17.0792C22.0082 18.7352 20.6642 20.0792 19.0082 20.0792H4.99219C3.33619 20.0792 1.99219 18.7352 1.99219 17.0792V7.09522C1.99219 5.43921 3.33619 4.09521 4.99219 4.09521ZM19.0082 5.89522H4.99219C4.32019 5.89522 3.79219 6.42322 3.79219 7.09522V17.0792C3.79219 17.7512 4.32019 18.2792 4.99219 18.2792H19.0082C19.6802 18.2792 20.2082 17.7512 20.2082 17.0792V7.09522C20.2082 6.42322 19.6802 5.89522 19.0082 5.89522ZM5.73619 17.8472L9.74419 13.8392C10.0322 13.5512 10.4882 13.5032 10.8242 13.6952L12.5762 14.7272L16.7042 9.90322C17.0162 9.54322 17.5202 9.47122 17.9042 9.73522L20.1842 11.3432V13.5512L17.5202 11.6792L13.4642 16.4552C13.1762 16.7912 12.6962 16.8632 12.3362 16.6472L10.5122 15.6152L7.84819 18.2792H5.49619C5.54419 18.1112 5.61619 17.9672 5.73619 17.8472ZM10.9922 10.3352C10.9922 11.8472 9.76819 13.0952 8.25619 13.0952C6.74419 13.0952 5.49619 11.8472 5.49619 10.3352C5.49619 8.82322 6.72019 7.57522 8.25619 7.57522C9.79219 7.57522 10.9922 8.82322 10.9922 10.3352ZM9.50419 10.3352C9.50419 9.63922 8.95219 9.08722 8.25619 9.08722C7.56019 9.08722 7.00819 9.63922 7.00819 10.3352C7.00819 11.0312 7.56019 11.5832 8.25619 11.5832C8.95219 11.5832 9.50419 11.0312 9.50419 10.3352Z" fill="#888888"/>
</svg>
