<svg width="24" height="25" viewBox="0 0 24 25" fill="none" xmlns="http://www.w3.org/2000/svg">
<path fill-rule="evenodd" clip-rule="evenodd" d="M4 5.2873C4 4.84547 4.40934 4.4873 4.91429 4.4873H19.0857C19.5907 4.4873 20 4.84547 20 5.2873C20 5.72913 19.5907 6.0873 19.0857 6.0873H4.91429C4.40934 6.0873 4 5.72913 4 5.2873ZM4 9.8873C4 9.44547 4.307 9.0873 4.68571 9.0873H15.3143C15.693 9.0873 16 9.44547 16 9.8873C16 10.3291 15.693 10.6873 15.3143 10.6873H4.68571C4.307 10.6873 4 10.3291 4 9.8873ZM4 19.0873C4 18.6455 4.307 18.2873 4.68571 18.2873H15.3143C15.693 18.2873 16 18.6455 16 19.0873C16 19.5291 15.693 19.8873 15.3143 19.8873H4.68571C4.307 19.8873 4 19.5291 4 19.0873ZM4 14.4873C4 14.0455 4.40934 13.6873 4.91429 13.6873H19.0857C19.5907 13.6873 20 14.0455 20 14.4873C20 14.9291 19.5907 15.2873 19.0857 15.2873H4.91429C4.40934 15.2873 4 14.9291 4 14.4873Z" fill="#888888"/>
</svg>
