<svg width="24" height="25" viewBox="0 0 24 25" fill="none" xmlns="http://www.w3.org/2000/svg">
<path d="M16 6.9126H13V8.8126H16C18.26 8.8126 20.1 10.6426 20.1 12.9126C20.1 13.451 19.994 13.9842 19.7879 14.4816C19.5819 14.979 19.2799 15.431 18.8991 15.8117C18.5184 16.1925 18.0664 16.4945 17.569 16.7005C17.0716 16.9065 16.5384 17.0126 16 17.0126H13V18.9126H16C17.5913 18.9126 19.1174 18.2805 20.2426 17.1552C21.3679 16.03 22 14.5039 22 12.9126C22 9.5926 19.31 6.9126 16 6.9126ZM3.9 12.9126C3.9 10.6426 5.74 8.8126 8 8.8126H11V6.9126H8C6.4087 6.9126 4.88258 7.54474 3.75736 8.66996C2.63214 9.79518 2 11.3213 2 12.9126C2 14.5039 2.63214 16.03 3.75736 17.1552C4.88258 18.2805 6.4087 18.9126 8 18.9126H11V17.0126H8C5.74 17.0126 3.9 15.1726 3.9 12.9126ZM8 13.9126H16V11.9126H8V13.9126Z" fill="#888888"/>
</svg>
