<svg width="24" height="25" viewBox="0 0 24 25" fill="none" xmlns="http://www.w3.org/2000/svg">
<path d="M3.31237 8.90466V5.66466H3.26437L2.23237 6.33666V5.42466L3.31237 4.68066H4.39237V8.90466H3.31237ZM1.84837 11.9767C1.84837 11.1367 2.49637 10.5607 3.48037 10.5607C4.41637 10.5607 5.06437 11.0647 5.06437 11.8327C5.06437 12.3127 4.80037 12.7207 4.03237 13.3687L3.33637 14.0167V14.0647H5.11237V14.9047H1.92037V14.1847L3.24037 12.9367C3.86437 12.3607 4.00837 12.1447 4.03237 11.9047C4.03237 11.5927 3.79237 11.3767 3.45637 11.3767C3.09637 11.3767 2.83237 11.6167 2.83237 11.9767V12.0007H1.84837V11.9767ZM2.95237 19.1287V18.3847H3.45637C3.81637 18.3847 4.05637 18.1927 4.05637 17.8807C4.05637 17.5687 3.81637 17.3767 3.45637 17.3767C3.09637 17.3767 2.83237 17.5927 2.83237 17.9287H1.84837C1.87237 17.1127 2.49637 16.5847 3.48037 16.5607C4.41637 16.5607 5.06437 17.0407 5.06437 17.7367C5.06437 18.2167 4.72837 18.6007 4.27237 18.6727V18.7447C4.84837 18.8167 5.23237 19.2007 5.20837 19.7287C5.20837 20.4967 4.48837 21.0247 3.45637 21.0247C2.47237 21.0247 1.80037 20.4967 1.77637 19.6567H2.80837C2.83237 19.9687 3.07237 20.1847 3.48037 20.1847C3.86437 20.1847 4.12837 19.9687 4.12837 19.6567C4.12837 19.3207 3.88837 19.1287 3.45637 19.1287H2.95237ZM7.99237 7.10466C7.99237 6.67266 8.35237 6.31266 8.80837 6.31266H21.1924C21.6244 6.31266 21.9844 6.67266 22.0084 7.10466C22.0084 7.53666 21.6484 7.89666 21.1924 7.92066H8.80837C8.37637 7.92066 8.01637 7.56066 7.99237 7.10466ZM7.99237 13.1047C7.99237 12.6727 8.35237 12.3127 8.80837 12.3127H21.1924C21.6244 12.3127 21.9844 12.6727 22.0084 13.1047C22.0324 13.5367 21.6484 13.8967 21.1924 13.9207H8.80837C8.37637 13.9207 8.01637 13.5607 7.99237 13.1047ZM7.99237 19.1047C7.99237 18.6727 8.35237 18.3127 8.80837 18.3127H21.1924C21.6244 18.3127 21.9844 18.6727 22.0084 19.1047C22.0324 19.5367 21.6484 19.8967 21.1924 19.9207H8.80837C8.37637 19.9207 8.01637 19.5607 7.99237 19.1047Z" fill="#888888"/>
</svg>
