<svg width="24" height="25" viewBox="0 0 24 25" fill="none" xmlns="http://www.w3.org/2000/svg">
<path d="M6.95961 15.6486C7.48761 13.4646 9.43161 11.9046 11.7836 11.9046C13.1036 11.9046 14.3276 12.4326 15.2396 13.2726L13.1276 15.3846C13.0556 15.4566 13.0076 15.5526 13.0076 15.6486C13.0076 15.8406 13.1516 16.0086 13.3676 16.0086L17.9996 15.8886C18.4076 15.8886 18.7436 15.5286 18.7436 15.1206L18.8636 10.5126C18.8636 10.4166 18.8396 10.3206 18.7676 10.2486C18.6236 10.1046 18.3836 10.1046 18.2396 10.2486L16.6556 11.8566C15.3836 10.6566 13.6796 9.9126 11.7836 9.9126C8.51961 9.9126 5.83161 12.0726 5.03961 15.0726C5.01561 15.1206 5.01561 15.1926 5.01561 15.2646C4.82361 16.3206 6.09561 16.8966 6.76761 16.0326C6.86361 15.9126 6.93561 15.7686 6.95961 15.6486Z" fill="#888888"/>
</svg>
