<svg width="24" height="25" viewBox="0 0 24 25" fill="none" xmlns="http://www.w3.org/2000/svg">
<path fill-rule="evenodd" clip-rule="evenodd" d="M4 5.35078C4 4.90895 4.40934 4.55078 4.91429 4.55078H19.0857C19.5907 4.55078 20 4.90895 20 5.35078C20 5.79261 19.5907 6.15078 19.0857 6.15078H4.91429C4.40934 6.15078 4 5.79261 4 5.35078ZM8 9.95078C8 9.50895 8.307 9.15078 8.68571 9.15078H19.3143C19.693 9.15078 20 9.50895 20 9.95078C20 10.3926 19.693 10.7508 19.3143 10.7508H8.68571C8.307 10.7508 8 10.3926 8 9.95078ZM8 19.1508C8 18.709 8.307 18.3508 8.68571 18.3508H19.3143C19.693 18.3508 20 18.709 20 19.1508C20 19.5926 19.693 19.9508 19.3143 19.9508H8.68571C8.307 19.9508 8 19.5926 8 19.1508ZM4 14.5508C4 14.109 4.40934 13.7508 4.91429 13.7508H19.0857C19.5907 13.7508 20 14.109 20 14.5508C20 14.9926 19.5907 15.3508 19.0857 15.3508H4.91429C4.40934 15.3508 4 14.9926 4 14.5508Z" fill="#888888"/>
</svg>
