<svg width="24" height="25" viewBox="0 0 24 25" fill="none" xmlns="http://www.w3.org/2000/svg">
<path d="M9.87551 6.68088V13.1609C9.87551 13.8709 10.0605 14.4159 10.4305 14.7959C10.8005 15.1659 11.3205 15.3509 11.9905 15.3509C12.6705 15.3509 13.1955 15.1659 13.5655 14.7959C13.9355 14.4159 14.1205 13.8709 14.1205 13.1609V6.68088H16.2355V13.1459C16.2355 14.0359 16.0405 14.7909 15.6505 15.4109C15.2705 16.0209 14.7555 16.4809 14.1055 16.7909C13.4655 17.1009 12.7505 17.2559 11.9605 17.2559C11.1805 17.2559 10.4705 17.1009 9.83051 16.7909C9.20051 16.4809 8.70051 16.0209 8.33051 15.4109C7.96051 14.7909 7.77551 14.0359 7.77551 13.1459V6.68088H9.87551Z" fill="#888888"/>
<path d="M6.77051 18.6509H17.2255V19.4009H6.77051V18.6509Z" fill="#888888"/>
</svg>
