<svg width="24" height="25" viewBox="0 0 24 25" fill="none" xmlns="http://www.w3.org/2000/svg">
<path d="M17.0397 14.8234C16.5117 12.6394 14.5677 11.0794 12.2157 11.0794C10.8957 11.0794 9.67174 11.6074 8.75974 12.4474L10.8717 14.5594C10.9437 14.6314 10.9917 14.7274 10.9917 14.8234C10.9917 15.0154 10.8477 15.1834 10.6317 15.1834L5.99974 15.0634C5.59174 15.0634 5.25574 14.7034 5.25574 14.2954L5.13574 9.6874C5.13574 9.5914 5.15974 9.4954 5.23174 9.4234C5.37574 9.2794 5.61574 9.2794 5.75974 9.4234L7.34374 11.0314C8.61574 9.8314 10.3197 9.0874 12.2157 9.0874C15.4797 9.0874 18.1677 11.2474 18.9597 14.2474C18.9837 14.2954 18.9837 14.3674 18.9837 14.4394C19.1757 15.4954 17.9037 16.0714 17.2317 15.2074C17.1357 15.0874 17.0637 14.9434 17.0397 14.8234Z" fill="#888888"/>
</svg>
