<svg width="24" height="25" viewBox="0 0 24 25" fill="none" xmlns="http://www.w3.org/2000/svg">
<path d="M3.50448 7.88728C2.49648 7.88728 1.89648 7.26328 1.89648 6.37528C1.89648 5.48728 2.49648 4.86328 3.50448 4.86328C4.51248 4.86328 5.11248 5.48728 5.11248 6.37528C5.11248 7.26328 4.51248 7.88728 3.50448 7.88728ZM3.50448 13.8873C2.49648 13.8873 1.89648 13.2633 1.89648 12.3753C1.89648 11.4873 2.49648 10.8633 3.50448 10.8633C4.51248 10.8633 5.11248 11.4873 5.11248 12.3753C5.11248 13.2633 4.51248 13.8873 3.50448 13.8873ZM3.50448 19.8873C2.49648 19.8873 1.89648 19.2633 1.89648 18.3753C1.89648 17.4873 2.49648 16.8633 3.50448 16.8633C4.51248 16.8633 5.11248 17.4873 5.11248 18.3753C5.11248 19.2633 4.51248 19.8873 3.50448 19.8873ZM7.99248 6.27928C7.99248 5.84728 8.35248 5.48728 8.80848 5.48728H21.1925C21.6245 5.48728 21.9845 5.84728 22.0085 6.27928C22.0085 6.71128 21.6485 7.07128 21.1925 7.09528H8.80848C8.37648 7.09528 8.01648 6.73528 7.99248 6.27928ZM7.99248 12.2793C7.99248 11.8473 8.35248 11.4873 8.80848 11.4873H21.1925C21.6245 11.4873 21.9845 11.8473 22.0085 12.2793C22.0325 12.7113 21.6485 13.0713 21.1925 13.0953H8.80848C8.37648 13.0953 8.01648 12.7353 7.99248 12.2793ZM7.99248 18.2793C7.99248 17.8473 8.35248 17.4873 8.80848 17.4873H21.1925C21.6245 17.4873 21.9845 17.8473 22.0085 18.2793C22.0325 18.7113 21.6485 19.0713 21.1925 19.0953H8.80848C8.37648 19.0953 8.01648 18.7353 7.99248 18.2793Z" fill="#888888"/>
</svg>
