<svg width="39" height="40" viewBox="0 0 39 40" fill="none" xmlns="http://www.w3.org/2000/svg">
<path d="M31.6875 40.0002H7.3125C3.27356 40.0002 0 36.6427 0 32.5002V7.50021C0 3.35771 3.27356 0.000213623 7.3125 0.000213623H31.6875C35.7264 0.000213623 39 3.35771 39 7.50021V32.5002C39 36.6427 35.7264 40.0002 31.6875 40.0002Z" fill="#000000"/>
<path d="M24.7731 16.6535C24.5376 16.6535 24.3467 16.4786 24.3467 16.2629V13.5918C24.3467 13.3761 24.5376 13.2012 24.7731 13.2012C25.0086 13.2012 25.1995 13.3761 25.1995 13.5918V16.2629C25.1995 16.4786 25.0086 16.6535 24.7731 16.6535Z" fill="url(#paint0_linear_1485_49878)"/>
<path d="M24.7702 12.7266C25.0057 12.7266 25.1966 12.5517 25.1966 12.3359C25.1966 12.1202 25.0057 11.9453 24.7702 11.9453C24.5347 11.9453 24.3438 12.1202 24.3438 12.3359C24.3438 12.5517 24.5347 12.7266 24.7702 12.7266Z" fill="url(#paint1_linear_1485_49878)"/>
<path d="M29.25 14.1038C29.25 11.8409 27.2408 10 24.771 10C23.7488 10 22.8054 10.3154 22.0508 10.8455H11.3019C10.4462 10.8455 9.75 11.4832 9.75 12.2671V26.477C9.75 27.2609 10.4462 27.8987 11.3019 27.8987H12.6549V28.5784C12.6549 29.3622 13.3511 30 14.2068 30H25.356C26.2117 30 26.9079 29.3623 26.9079 28.5784V23.1603C26.9079 22.9446 26.7169 22.7697 26.4815 22.7697C26.246 22.7697 26.055 22.9446 26.055 23.1603V28.5784C26.055 28.9314 25.7415 29.2188 25.356 29.2188H14.2068C13.8214 29.2188 13.5078 28.9315 13.5078 28.5784V27.8987H22.4511C23.3068 27.8987 24.003 27.2609 24.003 26.477V18.1472C24.2527 18.1869 24.5092 18.2076 24.7711 18.2076C25.2171 18.2076 25.6482 18.1475 26.0551 18.0357V19.6286C26.0551 19.8443 26.246 20.0193 26.4815 20.0193C26.717 20.0193 26.9079 19.8443 26.9079 19.6286V17.7097C28.302 17.0134 29.25 15.6581 29.25 14.1038ZM23.1502 26.4771C23.1502 26.8302 22.8366 27.1175 22.4511 27.1175H11.3019C10.9164 27.1175 10.6028 26.8302 10.6028 26.4771V12.2671C10.6028 11.9141 10.9164 11.6268 11.3019 11.6268H21.2021C20.6669 12.2726 20.3354 13.0675 20.296 13.9305H13.0345C12.799 13.9305 12.6081 14.1054 12.6081 14.3211V15.9709C12.6081 16.1866 12.799 16.3615 13.0345 16.3615H20.7185C20.8154 16.3615 20.9048 16.3318 20.9764 16.2819C21.4858 17.0243 22.2474 17.6073 23.1502 17.9295V26.4771ZM20.2921 14.7117V15.5802H13.4609V14.7117H20.2921ZM24.771 17.4263C22.7716 17.4263 21.1449 15.9358 21.1449 14.1038C21.1449 12.2717 22.7716 10.7812 24.771 10.7812C26.7705 10.7812 28.3972 12.2717 28.3972 14.1038C28.3972 15.9358 26.7705 17.4263 24.771 17.4263Z" fill="url(#paint2_linear_1485_49878)"/>
<path d="M26.4812 21.7785C26.3055 21.7785 26.1444 21.6755 26.0825 21.5253C26.0189 21.3711 26.071 21.1899 26.2108 21.0856C26.3509 20.9812 26.5525 20.9687 26.7062 21.056C26.8595 21.1432 26.938 21.3152 26.8965 21.4765C26.8516 21.6509 26.6771 21.7785 26.4812 21.7785Z" fill="url(#paint3_linear_1485_49878)"/>
<path d="M20.7227 18.502H13.0387C12.8033 18.502 12.6123 18.3271 12.6123 18.1113C12.6123 17.8956 12.8033 17.7207 13.0387 17.7207H20.7227C20.9582 17.7207 21.1491 17.8956 21.1491 18.1113C21.1491 18.327 20.9582 18.502 20.7227 18.502Z" fill="url(#paint4_linear_1485_49878)"/>
<path d="M20.7227 20.3555H13.0387C12.8033 20.3555 12.6123 20.1805 12.6123 19.9648C12.6123 19.7491 12.8033 19.5742 13.0387 19.5742H20.7227C20.9582 19.5742 21.1491 19.7491 21.1491 19.9648C21.1491 20.1805 20.9582 20.3555 20.7227 20.3555Z" fill="url(#paint5_linear_1485_49878)"/>
<path d="M20.7227 22.207H13.0387C12.8033 22.207 12.6123 22.0321 12.6123 21.8164C12.6123 21.6007 12.8033 21.4258 13.0387 21.4258H20.7227C20.9582 21.4258 21.1491 21.6007 21.1491 21.8164C21.1491 22.0321 20.9582 22.207 20.7227 22.207Z" fill="url(#paint6_linear_1485_49878)"/>
<path d="M20.7227 24.0605H13.0387C12.8033 24.0605 12.6123 23.8856 12.6123 23.6699C12.6123 23.4542 12.8033 23.2793 13.0387 23.2793H20.7227C20.9582 23.2793 21.1491 23.4542 21.1491 23.6699C21.1491 23.8856 20.9582 24.0605 20.7227 24.0605Z" fill="url(#paint7_linear_1485_49878)"/>
<defs>
<linearGradient id="paint0_linear_1485_49878" x1="24.3467" y1="13.2012" x2="25.2103" y2="13.2039" gradientUnits="userSpaceOnUse">
<stop stopColor="#40EDC3"/>
<stop offset="0.496174" stopColor="#7FFBA9"/>
<stop offset="1" stopColor="#D3F89A"/>
</linearGradient>
<linearGradient id="paint1_linear_1485_49878" x1="24.3438" y1="11.9453" x2="25.2072" y2="11.9572" gradientUnits="userSpaceOnUse">
<stop stopColor="#40EDC3"/>
<stop offset="0.496174" stopColor="#7FFBA9"/>
<stop offset="1" stopColor="#D3F89A"/>
</linearGradient>
<linearGradient id="paint2_linear_1485_49878" x1="9.75" y1="10" x2="29.4929" y2="10.2427" gradientUnits="userSpaceOnUse">
<stop stopColor="#40EDC3"/>
<stop offset="0.496174" stopColor="#7FFBA9"/>
<stop offset="1" stopColor="#D3F89A"/>
</linearGradient>
<linearGradient id="paint3_linear_1485_49878" x1="26.0557" y1="20.998" x2="26.9181" y2="21.0099" gradientUnits="userSpaceOnUse">
<stop stopColor="#40EDC3"/>
<stop offset="0.496174" stopColor="#7FFBA9"/>
<stop offset="1" stopColor="#D3F89A"/>
</linearGradient>
<linearGradient id="paint4_linear_1485_49878" x1="12.6123" y1="17.7207" x2="21.0958" y2="18.8895" gradientUnits="userSpaceOnUse">
<stop stopColor="#40EDC3"/>
<stop offset="0.496174" stopColor="#7FFBA9"/>
<stop offset="1" stopColor="#D3F89A"/>
</linearGradient>
<linearGradient id="paint5_linear_1485_49878" x1="12.6123" y1="19.5742" x2="21.0958" y2="20.743" gradientUnits="userSpaceOnUse">
<stop stopColor="#40EDC3"/>
<stop offset="0.496174" stopColor="#7FFBA9"/>
<stop offset="1" stopColor="#D3F89A"/>
</linearGradient>
<linearGradient id="paint6_linear_1485_49878" x1="12.6123" y1="21.4258" x2="21.0958" y2="22.5945" gradientUnits="userSpaceOnUse">
<stop stopColor="#40EDC3"/>
<stop offset="0.496174" stopColor="#7FFBA9"/>
<stop offset="1" stopColor="#D3F89A"/>
</linearGradient>
<linearGradient id="paint7_linear_1485_49878" x1="12.6123" y1="23.2793" x2="21.0958" y2="24.4481" gradientUnits="userSpaceOnUse">
<stop stopColor="#40EDC3"/>
<stop offset="0.496174" stopColor="#7FFBA9"/>
<stop offset="1" stopColor="#D3F89A"/>
</linearGradient>
</defs>
</svg>
