<svg width="39" height="40" viewBox="0 0 39 40" fill="none" xmlns="http://www.w3.org/2000/svg">
<path d="M31.6875 40.0002H7.3125C3.27356 40.0002 0 36.6427 0 32.5002V7.50021C0 3.35771 3.27356 0.000213623 7.3125 0.000213623H31.6875C35.7264 0.000213623 39 3.35771 39 7.50021V32.5002C39 36.6427 35.7264 40.0002 31.6875 40.0002Z" fill="#000000"/>
<path d="M28.5492 9.6875H13.132C12.8655 9.68781 12.6099 9.79655 12.4214 9.98989C12.2329 10.1832 12.1269 10.4453 12.1266 10.7188V11.0625H11.7914C11.5248 11.0628 11.2693 11.1716 11.0808 11.3649C10.8923 11.5582 10.7862 11.8203 10.7859 12.0938V12.4375H10.4508C10.1842 12.4378 9.92864 12.5466 9.74014 12.7399C9.55164 12.9332 9.44561 13.1953 9.44531 13.4688V29.2812C9.44561 29.5547 9.55164 29.8168 9.74014 30.0101C9.92864 30.2034 10.1842 30.3122 10.4508 30.3125H25.868C26.1345 30.3122 26.3901 30.2034 26.5786 30.0101C26.7671 29.8168 26.8731 29.5547 26.8734 29.2812V28.9375H27.2086C27.4752 28.9372 27.7307 28.8284 27.9192 28.6351C28.1077 28.4418 28.2138 28.1797 28.2141 27.9062V27.5625H28.5492C28.8158 27.5622 29.0714 27.4534 29.2599 27.2601C29.4484 27.0668 29.5544 26.8047 29.5547 26.5312V10.7188C29.5544 10.4453 29.4484 10.1832 29.2599 9.98989C29.0714 9.79655 28.8158 9.68781 28.5492 9.6875ZM26.2031 29.2812C26.203 29.3724 26.1677 29.4598 26.1048 29.5242C26.042 29.5886 25.9568 29.6249 25.868 29.625H10.4508C10.3619 29.6249 10.2767 29.5886 10.2139 29.5242C10.1511 29.4598 10.1157 29.3724 10.1156 29.2812V13.4688C10.1157 13.3776 10.1511 13.2902 10.2139 13.2258C10.2767 13.1614 10.3619 13.1251 10.4508 13.125H10.7859V27.9062C10.7862 28.1797 10.8923 28.4418 11.0808 28.6351C11.2693 28.8284 11.5248 28.9372 11.7914 28.9375H26.2031V29.2812ZM27.5437 27.9062C27.5436 27.9974 27.5083 28.0848 27.4455 28.1492C27.3826 28.2136 27.2975 28.2499 27.2086 28.25H11.7914C11.7025 28.2499 11.6174 28.2136 11.5545 28.1492C11.4917 28.0848 11.4563 27.9974 11.4562 27.9062V12.0938C11.4563 12.0026 11.4917 11.9152 11.5545 11.8508C11.6174 11.7864 11.7025 11.7501 11.7914 11.75H12.1266V26.5312C12.1269 26.8047 12.2329 27.0668 12.4214 27.2601C12.6099 27.4534 12.8655 27.5622 13.132 27.5625H27.5437V27.9062ZM28.8844 26.5312C28.8843 26.6224 28.8489 26.7098 28.7861 26.7742C28.7233 26.8386 28.6381 26.8749 28.5492 26.875H13.132C13.0432 26.8749 12.958 26.8386 12.8952 26.7742C12.8323 26.7098 12.797 26.6224 12.7969 26.5312V10.7188C12.797 10.6276 12.8323 10.5402 12.8952 10.4758C12.958 10.4114 13.0432 10.3751 13.132 10.375H28.5492C28.6381 10.3751 28.7233 10.4114 28.7861 10.4758C28.8489 10.5402 28.8843 10.6276 28.8844 10.7188V26.5312Z" fill="url(#paint0_linear_1485_49650)"/>
<path d="M13.4668 13.8125H28.2137V14.5H13.4668V13.8125Z" fill="url(#paint1_linear_1485_49650)"/>
<path d="M19.1646 11.0625C18.9658 11.0625 18.7714 11.123 18.606 11.2363C18.4407 11.3496 18.3118 11.5107 18.2357 11.6991C18.1596 11.8875 18.1397 12.0949 18.1785 12.2949C18.2173 12.495 18.3131 12.6787 18.4537 12.823C18.5943 12.9672 18.7734 13.0654 18.9685 13.1052C19.1635 13.145 19.3657 13.1246 19.5494 13.0465C19.7331 12.9684 19.8902 12.8363 20.0007 12.6667C20.1111 12.4971 20.1701 12.2977 20.1701 12.0938C20.1698 11.8203 20.0638 11.5582 19.8753 11.3649C19.6868 11.1716 19.4312 11.0628 19.1646 11.0625ZM19.1646 12.4375C19.0984 12.4375 19.0336 12.4173 18.9784 12.3796C18.9233 12.3418 18.8804 12.2881 18.855 12.2253C18.8296 12.1625 18.823 12.0934 18.8359 12.0267C18.8489 11.96 18.8808 11.8988 18.9277 11.8507C18.9745 11.8026 19.0342 11.7699 19.0993 11.7566C19.1643 11.7433 19.2317 11.7501 19.2929 11.7762C19.3541 11.8022 19.4065 11.8462 19.4433 11.9028C19.4801 11.9593 19.4998 12.0258 19.4998 12.0938C19.4997 12.1849 19.4644 12.2723 19.4015 12.3367C19.3387 12.4011 19.2535 12.4374 19.1646 12.4375Z" fill="url(#paint2_linear_1485_49650)"/>
<path d="M16.8189 13.125C17.0178 13.125 17.2122 13.0645 17.3776 12.9512C17.5429 12.8379 17.6718 12.6768 17.7479 12.4884C17.824 12.3 17.8439 12.0926 17.8051 11.8926C17.7663 11.6925 17.6705 11.5088 17.5299 11.3645C17.3893 11.2203 17.2101 11.1221 17.0151 11.0823C16.8201 11.0425 16.6179 11.0629 16.4342 11.141C16.2504 11.2191 16.0934 11.3512 15.9829 11.5208C15.8724 11.6904 15.8135 11.8898 15.8135 12.0938C15.8138 12.3672 15.9198 12.6293 16.1083 12.8226C16.2968 13.0159 16.5524 13.1247 16.8189 13.125ZM16.8189 11.75C16.8852 11.75 16.95 11.7702 17.0051 11.8079C17.0603 11.8457 17.1032 11.8994 17.1286 11.9622C17.154 12.025 17.1606 12.0941 17.1477 12.1608C17.1347 12.2275 17.1028 12.2887 17.0559 12.3368C17.0091 12.3849 16.9493 12.4176 16.8843 12.4309C16.8193 12.4442 16.7519 12.4374 16.6907 12.4113C16.6294 12.3853 16.5771 12.3413 16.5403 12.2847C16.5034 12.2282 16.4838 12.1617 16.4838 12.0938C16.4839 12.0026 16.5192 11.9152 16.5821 11.8508C16.6449 11.7864 16.7301 11.7501 16.8189 11.75Z" fill="url(#paint3_linear_1485_49650)"/>
<path d="M14.4723 13.125C14.6711 13.125 14.8655 13.0645 15.0309 12.9512C15.1962 12.8379 15.3251 12.6768 15.4012 12.4884C15.4773 12.3 15.4972 12.0926 15.4584 11.8926C15.4196 11.6925 15.3239 11.5088 15.1832 11.3645C15.0426 11.2203 14.8635 11.1221 14.6684 11.0823C14.4734 11.0425 14.2712 11.0629 14.0875 11.141C13.9038 11.2191 13.7467 11.3512 13.6362 11.5208C13.5258 11.6904 13.4668 11.8898 13.4668 12.0938C13.4671 12.3672 13.5731 12.6293 13.7616 12.8226C13.9501 13.0159 14.2057 13.1247 14.4723 13.125ZM14.4723 11.75C14.5386 11.75 14.6034 11.7702 14.6585 11.8079C14.7136 11.8457 14.7565 11.8994 14.7819 11.9622C14.8073 12.025 14.8139 12.0941 14.801 12.1608C14.7881 12.2275 14.7561 12.2887 14.7093 12.3368C14.6624 12.3849 14.6027 12.4176 14.5377 12.4309C14.4726 12.4442 14.4052 12.4374 14.344 12.4113C14.2828 12.3853 14.2304 12.3413 14.1936 12.2847C14.1568 12.2282 14.1371 12.1617 14.1371 12.0938C14.1372 12.0026 14.1726 11.9152 14.2354 11.8508C14.2982 11.7864 14.3834 11.7501 14.4723 11.75Z" fill="url(#paint4_linear_1485_49650)"/>
<path d="M23.4984 15.1875C23.1431 15.1865 22.791 15.2578 22.4627 15.3973C22.1344 15.5368 21.8363 15.7417 21.5857 16.0001L19.2872 18.3575C19.1659 18.482 19.0564 18.6178 18.9599 18.7634C18.8199 18.8608 18.6891 18.9714 18.5693 19.0939L16.2708 21.4513C15.7635 21.9716 15.4785 22.6772 15.4785 23.4131C15.4785 24.1489 15.7635 24.8546 16.2708 25.3749C16.7781 25.8952 17.4661 26.1875 18.1836 26.1875C18.901 26.1875 19.589 25.8952 20.0963 25.3749L22.3948 23.0175C22.5161 22.893 22.6256 22.7572 22.7221 22.6116C22.8621 22.5142 22.9928 22.4036 23.1127 22.2811L25.4112 19.9237C25.7895 19.5357 26.0471 19.0414 26.1515 18.5032C26.2559 17.965 26.2023 17.4072 25.9976 16.9002C25.7929 16.3932 25.4461 15.9599 25.0013 15.6551C24.5565 15.3502 24.0335 15.1875 23.4984 15.1875ZM19.7698 22.6749L18.5355 23.9409C18.4204 24.0581 18.2648 24.1238 18.1026 24.1235C17.9404 24.1233 17.785 24.057 17.6703 23.9394C17.5556 23.8218 17.4911 23.6624 17.4908 23.496C17.4905 23.3297 17.5545 23.17 17.6688 23.052L18.9029 21.7863C19.1217 22.1468 19.4183 22.4508 19.7699 22.6749H19.7698ZM19.6223 24.8888C19.2407 25.2801 18.7231 25.5 18.1835 25.5C17.6438 25.5 17.1263 25.2801 16.7447 24.8888C16.3631 24.4974 16.1487 23.9666 16.1487 23.4131C16.1487 22.8596 16.3631 22.3288 16.7447 21.9374L18.5014 20.1357C18.4975 20.1966 18.4948 20.2577 18.4948 20.3193C18.4948 20.5892 18.533 20.8577 18.6083 21.1162L17.1949 22.5659C17.0753 22.688 16.9803 22.8331 16.9155 22.9929C16.8506 23.1527 16.8171 23.324 16.8169 23.4971C16.8167 23.6702 16.8498 23.8416 16.9143 24.0016C16.9788 24.1615 17.0734 24.3068 17.1927 24.4292C17.3121 24.5516 17.4538 24.6486 17.6097 24.7148C17.7657 24.7809 17.9328 24.8149 18.1015 24.8147C18.2703 24.8145 18.4373 24.7801 18.5931 24.7136C18.7489 24.6471 18.8904 24.5497 19.0095 24.427L21.4705 21.9028C21.6279 21.7415 21.7416 21.541 21.8005 21.321C21.8595 21.101 21.8616 20.8691 21.8068 20.648C21.752 20.4269 21.642 20.2242 21.4878 20.0598C21.3335 19.8954 21.1403 19.775 20.9269 19.7104L21.421 19.2037C21.7046 19.355 21.9494 19.5728 22.1357 19.8393C22.3219 20.1058 22.4443 20.4136 22.493 20.7376C22.5416 21.0617 22.5152 21.393 22.4158 21.7046C22.3164 22.0163 22.1468 22.2995 21.9207 22.5314L19.6223 24.8888ZM20.5084 20.3465C20.5266 20.3448 20.5448 20.3437 20.5633 20.3437C20.7258 20.3439 20.8815 20.4102 20.9964 20.528C21.1113 20.6458 21.176 20.8056 21.1762 20.9723C21.1762 20.9912 21.1751 21.0099 21.1735 21.0285C21.1553 21.0302 21.1371 21.0312 21.1186 21.0312C20.9562 21.0311 20.8004 20.9648 20.6855 20.8469C20.5707 20.7291 20.506 20.5694 20.5058 20.4027C20.5058 20.3838 20.5069 20.3652 20.5085 20.3465H20.5084ZM21.9125 18.6995L23.1463 17.4341C23.2614 17.3169 23.4171 17.2512 23.5792 17.2515C23.7414 17.2517 23.8969 17.3179 24.0115 17.4356C24.1262 17.5532 24.1908 17.7126 24.191 17.879C24.1913 18.0453 24.1273 18.205 24.013 18.323L22.7807 19.5869C22.5619 19.2264 22.2648 18.9227 21.9126 18.6995H21.9125ZM24.9373 19.4376L23.1806 21.2393C23.1845 21.1784 23.1871 21.1173 23.1871 21.0557C23.1873 20.7855 23.1493 20.5168 23.0744 20.2578L24.487 18.809C24.6066 18.6869 24.7016 18.5418 24.7664 18.382C24.8313 18.2222 24.8648 18.0509 24.865 17.8778C24.8652 17.7047 24.8321 17.5333 24.7676 17.3734C24.7031 17.2134 24.6085 17.0681 24.4892 16.9457C24.3698 16.8233 24.2281 16.7263 24.0722 16.6601C23.9163 16.594 23.7491 16.56 23.5804 16.5603C23.4116 16.5605 23.2446 16.5948 23.0888 16.6613C22.933 16.7278 22.7915 16.8252 22.6725 16.9479L20.2114 19.4721C20.0541 19.6334 19.9403 19.8339 19.8814 20.0539C19.8224 20.2739 19.8203 20.5058 19.8751 20.7269C19.9299 20.948 20.0399 21.1507 20.1941 21.3151C20.3484 21.4795 20.5417 21.5999 20.755 21.6645L20.261 22.1712C19.9774 22.0198 19.7325 21.8021 19.5463 21.5356C19.36 21.2691 19.2376 20.9613 19.1889 20.6372C19.1403 20.3132 19.1667 19.9819 19.2661 19.6703C19.3655 19.3586 19.5351 19.0754 19.7612 18.8435L22.0596 16.4861C22.4412 16.0948 22.9588 15.8749 23.4984 15.8749C24.0381 15.8749 24.5556 16.0948 24.9372 16.4861C25.3188 16.8775 25.5332 17.4083 25.5332 17.9618C25.5332 18.5153 25.3188 19.0462 24.9372 19.4375L24.9373 19.4376Z" fill="url(#paint5_linear_1485_49650)"/>
<defs>
<linearGradient id="paint0_linear_1485_49650" x1="9.44531" y1="9.6875" x2="29.8051" y2="9.93778" gradientUnits="userSpaceOnUse">
<stop stopColor="#40EDC3"/>
<stop offset="0.496174" stopColor="#7FFBA9"/>
<stop offset="1" stopColor="#D3F89A"/>
</linearGradient>
<linearGradient id="paint1_linear_1485_49650" x1="13.4668" y1="13.8125" x2="27.3819" y2="17.5757" gradientUnits="userSpaceOnUse">
<stop stopColor="#40EDC3"/>
<stop offset="0.496174" stopColor="#7FFBA9"/>
<stop offset="1" stopColor="#D3F89A"/>
</linearGradient>
<linearGradient id="paint2_linear_1485_49650" x1="18.1592" y1="11.0625" x2="20.1952" y2="11.0875" gradientUnits="userSpaceOnUse">
<stop stopColor="#40EDC3"/>
<stop offset="0.496174" stopColor="#7FFBA9"/>
<stop offset="1" stopColor="#D3F89A"/>
</linearGradient>
<linearGradient id="paint3_linear_1485_49650" x1="15.8135" y1="11.0625" x2="17.8495" y2="11.0875" gradientUnits="userSpaceOnUse">
<stop stopColor="#40EDC3"/>
<stop offset="0.496174" stopColor="#7FFBA9"/>
<stop offset="1" stopColor="#D3F89A"/>
</linearGradient>
<linearGradient id="paint4_linear_1485_49650" x1="13.4668" y1="11.0625" x2="15.5028" y2="11.0875" gradientUnits="userSpaceOnUse">
<stop stopColor="#40EDC3"/>
<stop offset="0.496174" stopColor="#7FFBA9"/>
<stop offset="1" stopColor="#D3F89A"/>
</linearGradient>
<linearGradient id="paint5_linear_1485_49650" x1="15.4785" y1="15.1875" x2="26.3371" y2="15.321" gradientUnits="userSpaceOnUse">
<stop stopColor="#40EDC3"/>
<stop offset="0.496174" stopColor="#7FFBA9"/>
<stop offset="1" stopColor="#D3F89A"/>
</linearGradient>
</defs>
</svg>
