<svg width="39" height="40" viewBox="0 0 39 40" fill="none" xmlns="http://www.w3.org/2000/svg">
<path d="M31.6875 40.0002H7.3125C3.27356 40.0002 0 36.6427 0 32.5002V7.50021C0 3.35771 3.27356 0.000213623 7.3125 0.000213623H31.6875C35.7264 0.000213623 39 3.35771 39 7.50021V32.5002C39 36.6427 35.7264 40.0002 31.6875 40.0002Z" fill="#000000"/>
<g clip-path="url(#clip0_1485_49737)">
<path d="M27.9212 9H11.0796C9.80905 9 8.77539 10.0602 8.77539 11.3633V25.1992C8.77539 26.5023 9.80905 27.5625 11.0796 27.5625H16.7772V28.207C16.7772 29.7471 17.9988 31 19.5004 31C21.0019 31 22.2235 29.7471 22.2235 28.207V27.5625H27.9212C29.1917 27.5625 30.2254 26.5023 30.2254 25.1992V11.3633C30.2254 10.0602 29.1917 9 27.9212 9ZM10.0322 11.3633C10.0322 10.771 10.5021 10.2891 11.0796 10.2891H23.9412V12.4375H10.0322V11.3633ZM19.5004 29.7109C18.763 29.7109 18.151 29.1497 18.049 28.4219H20.9518C20.8498 29.1497 20.2378 29.7109 19.5004 29.7109ZM18.872 21.9766H18.2436C17.897 21.9766 17.6151 21.6874 17.6151 21.332C17.6151 20.9766 17.897 20.6875 18.2436 20.6875C18.5901 20.6875 18.872 20.9766 18.872 21.332V21.9766ZM20.9678 27.1328H20.1288V23.2656H20.7572C21.7968 23.2656 22.6425 22.3982 22.6425 21.332C22.6425 20.2658 21.7968 19.3984 20.7572 19.3984C20.2747 19.3984 19.8342 19.5855 19.5004 19.8924C19.1666 19.5855 18.7261 19.3984 18.2436 19.3984C17.204 19.3984 16.3583 20.2658 16.3583 21.332C16.3583 22.3982 17.204 23.2656 18.2436 23.2656H18.872V27.1328H18.033C18.0073 26.0723 17.5272 25.0738 16.7067 24.3817C15.6866 23.5212 15.1015 22.253 15.1015 20.9023C15.1015 18.4146 17.0748 16.3906 19.5004 16.3906C21.926 16.3906 23.8993 18.4146 23.8993 20.9023C23.8993 22.253 23.3142 23.5212 22.2941 24.3817C21.4736 25.0738 20.9935 26.0723 20.9678 27.1328ZM20.1288 21.9766V21.332C20.1288 20.9766 20.4107 20.6875 20.7572 20.6875C21.1037 20.6875 21.3856 20.9766 21.3856 21.332C21.3856 21.6874 21.1037 21.9766 20.7572 21.9766H20.1288ZM28.9686 25.1992C28.9686 25.7915 28.4987 26.2734 27.9212 26.2734H22.4229C22.5711 25.9335 22.7979 25.6258 23.0924 25.3773C24.404 24.271 25.1562 22.6399 25.1562 20.9023C25.1562 17.7038 22.619 15.1016 19.5004 15.1016C16.3818 15.1016 13.8446 17.7038 13.8446 20.9023C13.8446 22.6399 14.5968 24.271 15.9084 25.3773C16.2029 25.6258 16.4296 25.9335 16.5779 26.2734H11.0796C10.5021 26.2734 10.0322 25.7915 10.0322 25.1992V13.7266H28.9686V25.1992ZM28.9686 12.4375H25.198V10.2891H27.9212C28.4987 10.2891 28.9686 10.771 28.9686 11.3633V12.4375Z" fill="url(#paint0_linear_1485_49737)"/>
</g>
<defs>
<linearGradient id="paint0_linear_1485_49737" x1="8.77539" y1="9" x2="30.4925" y2="9.26696" gradientUnits="userSpaceOnUse">
<stop stop-color="#40EDC3"/>
<stop offset="0.496174" stop-color="#7FFBA9"/>
<stop offset="1" stop-color="#D3F89A"/>
</linearGradient>
<clipPath id="clip0_1485_49737">
<rect width="21.45" height="22" fill="white" transform="translate(8.77539 9)"/>
</clipPath>
</defs>
</svg>
