<svg width="39" height="40" viewBox="0 0 39 40" fill="none" xmlns="http://www.w3.org/2000/svg">
<path d="M31.6875 40.0002H7.3125C3.27356 40.0002 0 36.6427 0 32.5002V7.50021C0 3.35771 3.27356 0.000213623 7.3125 0.000213623H31.6875C35.7264 0.000213623 39 3.35771 39 7.50021V32.5002C39 36.6427 35.7264 40.0002 31.6875 40.0002Z" fill="#000000"/>
<path d="M25.6942 10H10.3561C8.94632 10 7.7998 11.1759 7.7998 12.6219V26.6057C7.7998 28.0517 8.94632 29.2276 10.3561 29.2276H25.6942C27.104 29.2276 28.2505 28.0517 28.2505 26.6057V12.6219C28.2505 11.1759 27.104 10 25.6942 10ZM25.6942 27.4788H10.3561C9.88578 27.4788 9.50361 27.0869 9.50361 26.6044V14.3694H26.5467V26.6044C26.5467 27.0869 26.1646 27.4788 25.6942 27.4788Z" fill="url(#paint0_linear_1485_49760)"/>
<path d="M23.9906 18.7392H18.0254C17.555 18.7392 17.1729 18.3472 17.1729 17.8648C17.1729 17.3824 17.555 16.9917 18.0254 16.9917H23.9906C24.461 16.9917 24.8432 17.3837 24.8432 17.8661C24.8432 18.3485 24.461 18.7392 23.9906 18.7392Z" fill="url(#paint1_linear_1485_49760)"/>
<path d="M23.9906 22.235H18.0254C17.555 22.235 17.1729 21.843 17.1729 21.3606C17.1729 20.8781 17.555 20.4862 18.0254 20.4862H23.9906C24.461 20.4862 24.8432 20.8781 24.8432 21.3606C24.8432 21.843 24.461 22.235 23.9906 22.235Z" fill="url(#paint2_linear_1485_49760)"/>
<path d="M23.9906 25.7315H18.0254C17.555 25.7315 17.1729 25.3396 17.1729 24.8571C17.1729 24.3747 17.555 23.9827 18.0254 23.9827H23.9906C24.461 23.9827 24.8432 24.3747 24.8432 24.8571C24.8432 25.3396 24.461 25.7315 23.9906 25.7315Z" fill="url(#paint3_linear_1485_49760)"/>
<path d="M14.6159 18.7392H12.0596C11.5892 18.7392 11.207 18.3472 11.207 17.8648C11.207 17.3824 11.5892 16.9917 12.0596 16.9917H14.6159C15.0863 16.9917 15.4685 17.3824 15.4685 17.8661C15.4685 18.3498 15.0863 18.7392 14.6159 18.7392Z" fill="url(#paint4_linear_1485_49760)"/>
<path d="M14.6159 22.235H12.0596C11.5892 22.235 11.207 21.843 11.207 21.3606C11.207 20.8781 11.5892 20.4862 12.0596 20.4862H14.6159C15.0863 20.4862 15.4685 20.8781 15.4685 21.3606C15.4685 21.843 15.0863 22.235 14.6159 22.235Z" fill="url(#paint5_linear_1485_49760)"/>
<path d="M14.6159 25.7315H12.0596C11.5892 25.7315 11.207 25.3396 11.207 24.8571C11.207 24.3747 11.5892 23.9827 12.0596 23.9827H14.6159C15.0863 23.9827 15.4685 24.3747 15.4685 24.8571C15.4685 25.3396 15.0863 25.7315 14.6159 25.7315Z" fill="url(#paint6_linear_1485_49760)"/>
<path d="M34.8952 20.55C35.617 19.5292 35.4004 18.0951 34.3979 17.3468L33.0535 16.343C32.0685 15.5799 30.5832 15.8274 29.8834 16.855L23.0772 26.4817C22.9412 26.6741 22.8608 26.8998 22.8432 27.1336L22.8432 27.1338L22.5758 30.6889C22.5286 31.172 22.768 31.5865 23.0927 31.828C23.417 32.0692 23.8877 32.1812 24.3369 31.9783L27.5441 30.6187C27.7626 30.526 27.9496 30.374 28.0858 30.1813L28.0859 30.1813L31.1715 25.8169C31.1715 25.8169 31.1715 25.8169 31.1716 25.8168C31.5745 25.247 31.4548 24.4488 30.8908 24.0294L30.8907 24.0292C30.3177 23.6034 29.5184 23.7391 29.1094 24.3169L29.1093 24.3171L27.7872 26.1871L26.8845 25.5131L30.2523 20.7499L32.1605 22.1746C32.7222 22.6056 33.5522 22.4651 33.9497 21.8874L34.8952 20.5501C34.8952 20.5501 34.8952 20.55 34.8952 20.55ZM31.7804 18.5883L32.6831 19.2623L32.6336 19.3322L31.731 18.6583L31.7804 18.5883ZM32.8329 19.0503L32.8329 19.0504L32.8329 19.0503ZM26.2333 28.385L25.2631 28.7962L25.3464 27.6886L25.4057 27.6048L26.3084 28.2788L26.2333 28.385Z" fill="url(#paint7_linear_1485_49760)" stroke="#000000" stroke-width="1.13734"/>
<path d="M31.4528 24.4492C32.1993 24.4492 32.7799 23.8326 32.7799 23.1026C32.7799 22.3726 32.1993 21.756 31.4528 21.756C30.7064 21.756 30.1257 22.3726 30.1257 23.1026C30.1257 23.8326 30.7064 24.4492 31.4528 24.4492Z" fill="url(#paint8_linear_1485_49760)" stroke="#000000" stroke-width="1.13734"/>
<defs>
<linearGradient id="paint0_linear_1485_49760" x1="7.7998" y1="10" x2="28.5047" y2="10.2777" gradientUnits="userSpaceOnUse">
<stop stop-color="#40EDC3"/>
<stop offset="0.496174" stop-color="#7FFBA9"/>
<stop offset="1" stop-color="#D3F89A"/>
</linearGradient>
<linearGradient id="paint1_linear_1485_49760" x1="17.1729" y1="16.9917" x2="24.9161" y2="17.4202" gradientUnits="userSpaceOnUse">
<stop stop-color="#40EDC3"/>
<stop offset="0.496174" stop-color="#7FFBA9"/>
<stop offset="1" stop-color="#D3F89A"/>
</linearGradient>
<linearGradient id="paint2_linear_1485_49760" x1="17.1729" y1="20.4862" x2="24.9162" y2="20.9144" gradientUnits="userSpaceOnUse">
<stop stop-color="#40EDC3"/>
<stop offset="0.496174" stop-color="#7FFBA9"/>
<stop offset="1" stop-color="#D3F89A"/>
</linearGradient>
<linearGradient id="paint3_linear_1485_49760" x1="17.1729" y1="23.9827" x2="24.9162" y2="24.4109" gradientUnits="userSpaceOnUse">
<stop stop-color="#40EDC3"/>
<stop offset="0.496174" stop-color="#7FFBA9"/>
<stop offset="1" stop-color="#D3F89A"/>
</linearGradient>
<linearGradient id="paint4_linear_1485_49760" x1="11.207" y1="16.9917" x2="15.5181" y2="17.1242" gradientUnits="userSpaceOnUse">
<stop stop-color="#40EDC3"/>
<stop offset="0.496174" stop-color="#7FFBA9"/>
<stop offset="1" stop-color="#D3F89A"/>
</linearGradient>
<linearGradient id="paint5_linear_1485_49760" x1="11.207" y1="20.4862" x2="15.5181" y2="20.6186" gradientUnits="userSpaceOnUse">
<stop stop-color="#40EDC3"/>
<stop offset="0.496174" stop-color="#7FFBA9"/>
<stop offset="1" stop-color="#D3F89A"/>
</linearGradient>
<linearGradient id="paint6_linear_1485_49760" x1="11.207" y1="23.9827" x2="15.5181" y2="24.1152" gradientUnits="userSpaceOnUse">
<stop stop-color="#40EDC3"/>
<stop offset="0.496174" stop-color="#7FFBA9"/>
<stop offset="1" stop-color="#D3F89A"/>
</linearGradient>
<linearGradient id="paint7_linear_1485_49760" x1="23.1387" y1="16.4664" x2="34.8974" y2="16.5808" gradientUnits="userSpaceOnUse">
<stop stop-color="#40EDC3"/>
<stop offset="0.496174" stop-color="#7FFBA9"/>
<stop offset="1" stop-color="#D3F89A"/>
</linearGradient>
<linearGradient id="paint8_linear_1485_49760" x1="30.6943" y1="22.3247" x2="32.2302" y2="22.3436" gradientUnits="userSpaceOnUse">
<stop stop-color="#40EDC3"/>
<stop offset="0.496174" stop-color="#7FFBA9"/>
<stop offset="1" stop-color="#D3F89A"/>
</linearGradient>
</defs>
</svg>
