<svg width="39" height="40" viewBox="0 0 39 40" fill="none" xmlns="http://www.w3.org/2000/svg">
<path d="M31.6875 40.0002H7.3125C3.27356 40.0002 0 36.6427 0 32.5002V7.50021C0 3.35771 3.27356 0.000213623 7.3125 0.000213623H31.6875C35.7264 0.000213623 39 3.35771 39 7.50021V32.5002C39 36.6427 35.7264 40.0002 31.6875 40.0002Z" fill="#000000"/>
<g clip-path="url(#clip0_1485_49743)">
<path d="M14.4336 17.4703H15.6904V16.3906H18.8723V23.7318H17.7832V25.0209H21.2182V23.7318H20.1292V16.3906H23.311V17.4703H24.5679V15.1016H14.4336V17.4703Z" fill="url(#paint0_linear_1485_49743)"/>
<path d="M28.7277 26.2307V13.7693C29.6056 13.3979 30.2254 12.5109 30.2254 11.4779C30.2254 10.1116 29.1416 9 27.8095 9C26.8023 9 25.9375 9.63564 25.5753 10.5361H13.4255C13.0633 9.63564 12.1985 9 11.1913 9C9.85916 9 8.77539 10.1116 8.77539 11.4779C8.77539 12.5109 9.39514 13.3979 10.2731 13.7694V26.2307C9.39514 26.6021 8.77539 27.4891 8.77539 28.5221C8.77539 29.8884 9.85916 31 11.1913 31C12.1985 31 13.0633 30.3644 13.4255 29.4639H25.5753C25.9375 30.3644 26.8023 31 27.8095 31C29.1416 31 30.2254 29.8884 30.2254 28.5221C30.2254 27.4891 29.6056 26.6021 28.7277 26.2307ZM25.4178 28.1748H13.583C13.4334 27.086 12.5915 26.2226 11.53 26.0691V13.9309C12.5915 13.7774 13.4334 12.914 13.583 11.8252H25.4178C25.5674 12.914 26.4093 13.7774 27.4708 13.9309V26.0691C26.4093 26.2226 25.5674 27.086 25.4178 28.1748ZM27.8095 10.2891C28.4486 10.2891 28.9686 10.8223 28.9686 11.4779C28.9686 12.1334 28.4486 12.6667 27.8095 12.6667C27.1704 12.6667 26.6504 12.1334 26.6504 11.4779C26.6504 10.8223 27.1704 10.2891 27.8095 10.2891ZM11.1913 10.2891C11.8304 10.2891 12.3504 10.8223 12.3504 11.4779C12.3504 12.1334 11.8304 12.6667 11.1913 12.6667C10.5522 12.6667 10.0322 12.1334 10.0322 11.4779C10.0322 10.8223 10.5522 10.2891 11.1913 10.2891ZM11.1913 29.7109C10.5522 29.7109 10.0322 29.1777 10.0322 28.5221C10.0322 27.8666 10.5522 27.3333 11.1913 27.3333C11.8304 27.3333 12.3504 27.8666 12.3504 28.5221C12.3504 29.1777 11.8304 29.7109 11.1913 29.7109ZM27.8095 29.7109C27.1704 29.7109 26.6504 29.1777 26.6504 28.5221C26.6504 27.8666 27.1704 27.3333 27.8095 27.3333C28.4486 27.3333 28.9686 27.8666 28.9686 28.5221C28.9686 29.1777 28.4486 29.7109 27.8095 29.7109Z" fill="url(#paint1_linear_1485_49743)"/>
</g>
<defs>
<linearGradient id="paint0_linear_1485_49743" x1="14.4336" y1="15.1016" x2="24.694" y2="15.2337" gradientUnits="userSpaceOnUse">
<stop stop-color="#40EDC3"/>
<stop offset="0.496174" stop-color="#7FFBA9"/>
<stop offset="1" stop-color="#D3F89A"/>
</linearGradient>
<linearGradient id="paint1_linear_1485_49743" x1="8.77539" y1="9" x2="30.4925" y2="9.26696" gradientUnits="userSpaceOnUse">
<stop stop-color="#40EDC3"/>
<stop offset="0.496174" stop-color="#7FFBA9"/>
<stop offset="1" stop-color="#D3F89A"/>
</linearGradient>
<clipPath id="clip0_1485_49743">
<rect width="21.45" height="22" fill="white" transform="translate(8.77539 9)"/>
</clipPath>
</defs>
</svg>
