<svg width="39" height="40" viewBox="0 0 39 40" fill="none" xmlns="http://www.w3.org/2000/svg">
<path d="M31.6875 40H7.3125C3.27356 40 0 36.6425 0 32.5V7.5C0 3.3575 3.27356 0 7.3125 0H31.6875C35.7264 0 39 3.3575 39 7.5V32.5C39 36.6425 35.7264 40 31.6875 40Z" fill="#000000"/>
<path d="M29.4326 15.9234C28.6787 15.1695 27.452 15.1695 26.6979 15.9236C26.4659 16.1558 24.985 17.6379 24.7588 17.8643V12.7566C24.7588 12.2401 24.5577 11.7546 24.1924 11.3894L22.3695 9.56633C22.0043 9.20109 21.5187 9 21.0022 9H9.93457C8.86839 9 8.00098 9.86741 8.00098 10.9336V29.0664C8.00098 30.1326 8.86839 31 9.93457 31H22.8252C23.8914 31 24.7588 30.1326 24.7588 29.0664V23.3357L29.4326 18.658C30.1883 17.9023 30.1884 16.6792 29.4326 15.9234ZM20.8916 10.2891C21.0134 10.2891 21.2481 10.268 21.458 10.4778L23.281 12.3009C23.4855 12.5054 23.4698 12.7296 23.4698 12.8672H20.8916V10.2891ZM23.4697 29.0664C23.4697 29.4218 23.1806 29.7109 22.8252 29.7109H9.93457C9.57918 29.7109 9.29004 29.4218 9.29004 29.0664V10.9336C9.29004 10.5782 9.57918 10.2891 9.93457 10.2891H19.6025V13.5117C19.6025 13.8677 19.8911 14.1562 20.2471 14.1562H23.4697V19.1545C23.4697 19.1545 21.5682 21.0577 21.5681 21.0577L20.657 21.9688C20.5863 22.0396 20.5329 22.1258 20.5013 22.2208L19.5898 24.9553C19.5126 25.1869 19.5728 25.4422 19.7455 25.6149C19.9184 25.7877 20.1738 25.8477 20.4051 25.7706L23.1396 24.8591C23.2345 24.8275 23.3208 24.7741 23.3915 24.7034L23.4697 24.6252V29.0664ZM22.0243 22.4246L22.9358 23.3361L22.5876 23.6843L21.2204 24.14L21.6761 22.7727L22.0243 22.4246ZM23.8471 22.4244L22.9356 21.5129C23.421 21.0271 25.5767 18.8696 26.0338 18.412L26.9453 19.3235L23.8471 22.4244ZM28.5209 17.7466L27.8565 18.4116L26.945 17.5001L27.6096 16.8349C27.8611 16.5836 28.2699 16.5836 28.5212 16.8349C28.7724 17.0863 28.7737 17.4938 28.5209 17.7466Z" fill="url(#paint0_linear_1485_49977)"/>
<path d="M20.2471 15.4453H11.2236C10.8677 15.4453 10.5791 15.7339 10.5791 16.0898C10.5791 16.4458 10.8677 16.7344 11.2236 16.7344H20.2471C20.603 16.7344 20.8916 16.4458 20.8916 16.0898C20.8916 15.7339 20.603 15.4453 20.2471 15.4453Z" fill="url(#paint1_linear_1485_49977)"/>
<path d="M17.6689 18.0234H11.2236C10.8677 18.0234 10.5791 18.312 10.5791 18.668C10.5791 19.0239 10.8677 19.3125 11.2236 19.3125H17.6689C18.0249 19.3125 18.3135 19.0239 18.3135 18.668C18.3135 18.312 18.0249 18.0234 17.6689 18.0234Z" fill="url(#paint2_linear_1485_49977)"/>
<path d="M17.6689 20.6016H11.2236C10.8677 20.6016 10.5791 20.8901 10.5791 21.2461C10.5791 21.602 10.8677 21.8906 11.2236 21.8906H17.6689C18.0249 21.8906 18.3135 21.602 18.3135 21.2461C18.3135 20.8901 18.0249 20.6016 17.6689 20.6016Z" fill="url(#paint3_linear_1485_49977)"/>
<path d="M17.6689 23.1797H11.2236C10.8677 23.1797 10.5791 23.4683 10.5791 23.8242C10.5791 24.1802 10.8677 24.4688 11.2236 24.4688H17.6689C18.0249 24.4688 18.3135 24.1802 18.3135 23.8242C18.3135 23.4683 18.0249 23.1797 17.6689 23.1797Z" fill="url(#paint4_linear_1485_49977)"/>
<path d="M20.2471 27.1328H16.3799C16.0239 27.1328 15.7354 27.4214 15.7354 27.7773C15.7354 28.1333 16.0239 28.4219 16.3799 28.4219H20.2471C20.603 28.4219 20.8916 28.1333 20.8916 27.7773C20.8916 27.4214 20.603 27.1328 20.2471 27.1328Z" fill="url(#paint5_linear_1485_49977)"/>
<defs>
<linearGradient id="paint0_linear_1485_49977" x1="8.00098" y1="9" x2="30.2732" y2="9.28079" gradientUnits="userSpaceOnUse">
<stop stopColor="#40EDC3"/>
<stop offset="0.496174" stopColor="#7FFBA9"/>
<stop offset="1" stopColor="#D3F89A"/>
</linearGradient>
<linearGradient id="paint1_linear_1485_49977" x1="10.5791" y1="15.4453" x2="20.9165" y2="16.488" gradientUnits="userSpaceOnUse">
<stop stopColor="#40EDC3"/>
<stop offset="0.496174" stopColor="#7FFBA9"/>
<stop offset="1" stopColor="#D3F89A"/>
</linearGradient>
<linearGradient id="paint2_linear_1485_49977" x1="10.5791" y1="18.0234" x2="18.3664" y2="18.6125" gradientUnits="userSpaceOnUse">
<stop stopColor="#40EDC3"/>
<stop offset="0.496174" stopColor="#7FFBA9"/>
<stop offset="1" stopColor="#D3F89A"/>
</linearGradient>
<linearGradient id="paint3_linear_1485_49977" x1="10.5791" y1="20.6016" x2="18.3664" y2="21.1907" gradientUnits="userSpaceOnUse">
<stop stopColor="#40EDC3"/>
<stop offset="0.496174" stopColor="#7FFBA9"/>
<stop offset="1" stopColor="#D3F89A"/>
</linearGradient>
<linearGradient id="paint4_linear_1485_49977" x1="10.5791" y1="23.1797" x2="18.3664" y2="23.7688" gradientUnits="userSpaceOnUse">
<stop stopColor="#40EDC3"/>
<stop offset="0.496174" stopColor="#7FFBA9"/>
<stop offset="1" stopColor="#D3F89A"/>
</linearGradient>
<linearGradient id="paint5_linear_1485_49977" x1="15.7354" y1="27.1328" x2="20.9434" y2="27.3955" gradientUnits="userSpaceOnUse">
<stop stopColor="#40EDC3"/>
<stop offset="0.496174" stopColor="#7FFBA9"/>
<stop offset="1" stopColor="#D3F89A"/>
</linearGradient>
</defs>
</svg>
