<svg width="39" height="40" viewBox="0 0 39 40" fill="none" xmlns="http://www.w3.org/2000/svg">
<path d="M31.6875 40H7.3125C3.27356 40 0 36.6425 0 32.5V7.5C0 3.3575 3.27356 0 7.3125 0H31.6875C35.7264 0 39 3.3575 39 7.5V32.5C39 36.6425 35.7264 40 31.6875 40Z" fill="#000000"/>
<path d="M22.6046 15.9965C20.5185 12.8488 17.7323 11.1758 16.2733 12.2009C16.1126 12.3169 15.973 12.4609 15.8608 12.6264C15.8608 12.6385 12.483 19.6494 12.483 19.6494L10.5973 20.9598C10.3078 21.1613 10.0599 21.4194 9.86764 21.7192C9.67542 22.0191 9.54269 22.3548 9.47702 22.7073C9.41135 23.0598 9.41404 23.4221 9.48492 23.7735C9.5558 24.1249 9.69349 24.4586 9.89013 24.7554L9.97498 24.8835C10.3724 25.4773 10.9821 25.8865 11.6718 26.0223C12.3615 26.1581 13.0756 26.0095 13.6592 25.6088L16.6881 30.1853C17.1336 30.7486 17.9893 31.3094 19.0453 30.6494C19.2323 30.525 19.3919 30.3618 19.5137 30.1702C19.6355 29.9787 19.7168 29.7631 19.7524 29.5374C19.7951 29.3128 19.7939 29.0818 19.749 28.8577C19.7041 28.6337 19.6163 28.4209 19.4908 28.2319L16.8225 24.1945C16.8225 24.1945 23.1302 23.6796 23.1538 23.6699C23.3507 23.6276 23.5374 23.5454 23.703 23.4281C24.4526 22.9059 24.7213 21.8108 24.462 20.3433C24.2286 18.9919 23.5663 17.4615 22.6046 15.9965ZM10.6609 24.4072L10.5761 24.2791C10.4404 24.0743 10.3454 23.844 10.2967 23.6014C10.2479 23.3589 10.2462 23.1089 10.2917 22.8657C10.3373 22.6225 10.4291 22.3909 10.5621 22.1842C10.695 21.9774 10.8663 21.7996 11.0663 21.6609L12.6951 20.5246L14.8448 23.7714L13.2161 24.9077C13.0163 25.047 12.7917 25.1446 12.5551 25.1948C12.3186 25.2451 12.0747 25.2471 11.8374 25.2006C11.6001 25.1541 11.374 25.0601 11.1722 24.924C10.9703 24.7879 10.7966 24.6123 10.6609 24.4072ZM18.8119 28.7081C18.9407 28.9047 18.9883 29.1457 18.9441 29.3782C18.8999 29.6107 18.7676 29.8158 18.5762 29.9483C18.3841 30.0806 18.1488 30.1294 17.9217 30.0841C17.6947 30.0388 17.4943 29.9031 17.3646 29.7066L14.3451 25.1446L15.5591 24.2985L15.8796 24.2719L18.8119 28.7081ZM15.6251 23.4426L13.2821 19.9033L15.5166 15.2301C15.7335 16.5429 16.3676 18.1022 17.3811 19.6325C18.3947 21.1629 19.5733 22.3426 20.6811 23.0341L15.6251 23.4426ZM22.5786 22.8793C21.4519 22.8044 19.6181 21.5013 18.0647 19.1538C16.5113 16.8064 16.0069 14.5846 16.3534 13.4798C16.416 13.2724 16.5409 13.0906 16.7102 12.9603C16.8795 12.8301 17.0846 12.758 17.2963 12.7545C18.4136 12.7545 20.3158 14.0648 21.9139 16.48C22.8143 17.8387 23.4696 19.2602 23.6488 20.5029C24 22.8793 22.5786 22.8793 22.5786 22.8793Z" fill="url(#paint0_linear_1485_49868)"/>
<path d="M19.6585 16.0859C19.3698 16.0278 19.0727 16.0292 18.7845 16.0903C18.4963 16.1513 18.2229 16.2706 17.9803 16.4413C17.9355 16.473 17.8973 16.5135 17.8679 16.5604C17.8384 16.6073 17.8182 16.6597 17.8085 16.7146C17.7987 16.7695 17.7996 16.8258 17.8111 16.8803C17.8226 16.9348 17.8444 16.9865 17.8754 17.0324C17.9063 17.0783 17.9458 17.1174 17.9915 17.1477C18.0372 17.1779 18.0883 17.1986 18.1418 17.2086C18.1953 17.2186 18.2502 17.2177 18.3034 17.2059C18.3566 17.1941 18.407 17.1717 18.4517 17.14C18.6054 17.033 18.7781 16.9581 18.96 16.9196C19.1419 16.881 19.3295 16.8796 19.5119 16.9154C19.6943 16.9513 19.8681 17.0236 20.0233 17.1283C20.1785 17.2329 20.312 17.368 20.4164 17.5256C20.5207 17.6832 20.5937 17.8604 20.6313 18.0469C20.6688 18.2335 20.6702 18.4259 20.6353 18.613C20.6004 18.8001 20.5299 18.9783 20.4278 19.1375C20.3257 19.2967 20.1941 19.4336 20.0404 19.5406C19.9679 19.592 19.9134 19.6657 19.8847 19.7511C19.8561 19.8366 19.8548 19.9291 19.8812 20.0153C19.9075 20.1015 19.9601 20.1768 20.0311 20.2302C20.1022 20.2835 20.188 20.3121 20.2761 20.3118C20.3601 20.3135 20.4426 20.2881 20.5118 20.2393C20.8785 19.9846 21.1631 19.624 21.3298 19.2032C21.4964 18.7824 21.5375 18.3203 21.4479 17.8756C21.3583 17.4308 21.142 17.0233 20.8264 16.7047C20.5108 16.3861 20.1101 16.1707 19.675 16.0859H19.6585Z" fill="url(#paint1_linear_1485_49868)"/>
<path d="M23.114 13.0543H23.1541C23.2561 13.0542 23.3545 13.0154 23.4303 12.9453C23.506 12.8752 23.5537 12.7788 23.5642 12.6747L23.8825 9.50285C23.8897 9.44676 23.8859 9.38975 23.8713 9.3352C23.8567 9.28065 23.8315 9.22965 23.7974 9.18524C23.7632 9.14082 23.7207 9.10389 23.6723 9.07662C23.624 9.04935 23.5708 9.0323 23.516 9.02648C23.4611 9.02066 23.4057 9.02618 23.3529 9.04272C23.3002 9.05927 23.2512 9.0865 23.2089 9.1228C23.1665 9.1591 23.1318 9.20373 23.1066 9.25406C23.0814 9.30439 23.0663 9.3594 23.0622 9.41582L22.7463 12.5901C22.7351 12.7017 22.7675 12.8132 22.8365 12.9003C22.9054 12.9873 23.0053 13.0427 23.114 13.0543Z" fill="url(#paint2_linear_1485_49868)"/>
<path d="M28.4458 12.4015C28.3852 12.3079 28.291 12.2426 28.1837 12.22C28.0764 12.1973 27.9647 12.2191 27.873 12.2806L24.9997 14.2147C24.925 14.2652 24.8685 14.3393 24.8384 14.4256C24.8084 14.512 24.8065 14.6061 24.8331 14.6936C24.8597 14.7812 24.9133 14.8575 24.9859 14.9111C25.0584 14.9647 25.146 14.9926 25.2354 14.9908C25.3188 14.9927 25.4008 14.9692 25.4711 14.9231L28.3444 12.989C28.4336 12.9247 28.4943 12.8268 28.5133 12.7167C28.5323 12.6066 28.508 12.4933 28.4458 12.4015Z" fill="url(#paint3_linear_1485_49868)"/>
<path d="M29.3247 17.5655L25.9823 16.949C25.8744 16.9291 25.7633 16.954 25.6734 17.0182C25.5834 17.0823 25.522 17.1805 25.5026 17.2911C25.4832 17.4017 25.5075 17.5157 25.57 17.6079C25.6326 17.7002 25.7283 17.7632 25.8361 17.7831L29.1762 18.3996H29.2493C29.3544 18.4027 29.4567 18.3646 29.5353 18.2929C29.6139 18.2213 29.6629 18.1216 29.6722 18.0142C29.6815 17.9068 29.6505 17.7998 29.5855 17.715C29.5205 17.6303 29.4263 17.5742 29.3224 17.5582L29.3247 17.5655Z" fill="url(#paint4_linear_1485_49868)"/>
<defs>
<linearGradient id="paint0_linear_1485_49868" x1="9.42969" y1="11.8998" x2="24.7474" y2="12.0532" gradientUnits="userSpaceOnUse">
<stop stopColor="#40EDC3"/>
<stop offset="0.496174" stopColor="#7FFBA9"/>
<stop offset="1" stopColor="#D3F89A"/>
</linearGradient>
<linearGradient id="paint1_linear_1485_49868" x1="17.8018" y1="16.0434" x2="21.5403" y2="16.0841" gradientUnits="userSpaceOnUse">
<stop stopColor="#40EDC3"/>
<stop offset="0.496174" stopColor="#7FFBA9"/>
<stop offset="1" stopColor="#D3F89A"/>
</linearGradient>
<linearGradient id="paint2_linear_1485_49868" x1="22.7441" y1="9.02423" x2="23.9004" y2="9.02836" gradientUnits="userSpaceOnUse">
<stop stopColor="#40EDC3"/>
<stop offset="0.496174" stopColor="#7FFBA9"/>
<stop offset="1" stopColor="#D3F89A"/>
</linearGradient>
<linearGradient id="paint3_linear_1485_49868" x1="24.8145" y1="12.2112" x2="28.5652" y2="12.2743" gradientUnits="userSpaceOnUse">
<stop stopColor="#40EDC3"/>
<stop offset="0.496174" stopColor="#7FFBA9"/>
<stop offset="1" stopColor="#D3F89A"/>
</linearGradient>
<linearGradient id="paint4_linear_1485_49868" x1="25.4961" y1="16.9423" x2="29.721" y2="17.095" gradientUnits="userSpaceOnUse">
<stop stopColor="#40EDC3"/>
<stop offset="0.496174" stopColor="#7FFBA9"/>
<stop offset="1" stopColor="#D3F89A"/>
</linearGradient>
</defs>
</svg>
