<svg width="39" height="40" viewBox="0 0 39 40" fill="none" xmlns="http://www.w3.org/2000/svg">
<path d="M31.6875 40.0002H7.3125C3.27356 40.0002 0 36.6427 0 32.5002V7.50018C0 3.35768 3.27356 0.000183105 7.3125 0.000183105H31.6875C35.7264 0.000183105 39 3.35768 39 7.50018V32.5002C39 36.6427 35.7264 40.0002 31.6875 40.0002Z" fill="#000000"/>
<path d="M28.0664 9H9.93359C8.86204 9 8 9.87317 8 10.9336V22.6211C8 23.6989 8.87841 24.5461 9.93359 24.5461H14.0069C13.9004 24.9582 13.8438 25.3988 13.8438 25.8438C13.8438 28.6869 16.1568 31 19 31C21.8432 31 24.1562 28.6869 24.1562 25.8438C24.1562 25.3988 24.0996 24.9668 23.9931 24.5547H28.0664C29.1254 24.5547 30 23.6945 30 22.6211V10.9336C30 9.8806 29.1469 9 28.0664 9ZM27.7994 10.2891C27.5548 10.5337 20.5242 17.5643 20.3673 17.7212C19.6133 18.4751 18.3867 18.4751 17.6328 17.7212L10.2006 10.2891H27.7994ZM9.28906 22.3541V11.2006L14.8658 16.7773L9.28906 22.3541ZM19 29.7109C16.8676 29.7109 15.1328 27.9761 15.1328 25.8438C15.1328 23.7114 16.8676 21.9766 19 21.9766C21.1324 21.9766 22.8672 23.7114 22.8672 25.8438C22.8672 27.9761 21.1324 29.7109 19 29.7109ZM23.4641 23.2656C22.5712 21.7256 20.9046 20.6875 19 20.6875C17.0954 20.6875 15.4288 21.7256 14.5359 23.2656H10.2006L15.7773 17.6888L16.7212 18.6327C17.3496 19.2611 18.1746 19.5751 19 19.5751C19.8252 19.5751 20.6506 19.2609 21.2788 18.6327L22.2227 17.6888L27.7994 23.2656H23.4641ZM28.7109 22.3541L23.1342 16.7773L28.7109 11.2006V22.3541Z" fill="url(#paint0_linear_1485_50055)"/>
<path d="M21.3893 24.099C21.1377 23.8472 20.7296 23.8472 20.4779 24.0989L18.3555 26.2213L17.5222 25.388C17.2705 25.1363 16.8624 25.1363 16.6107 25.388C16.3589 25.6397 16.3589 26.0478 16.6107 26.2995L17.8997 27.5886C18.0256 27.7145 18.1905 27.7774 18.3555 27.7774C18.5204 27.7774 18.6854 27.7145 18.8112 27.5886L21.3893 25.0105C21.6411 24.7588 21.6411 24.3507 21.3893 24.099Z" fill="url(#paint1_linear_1485_50055)"/>
<defs>
<linearGradient id="paint0_linear_1485_50055" x1="8" y1="9" x2="30.2738" y2="9.28083" gradientUnits="userSpaceOnUse">
<stop stopColor="#40EDC3"/>
<stop offset="0.496174" stopColor="#7FFBA9"/>
<stop offset="1" stopColor="#D3F89A"/>
</linearGradient>
<linearGradient id="paint1_linear_1485_50055" x1="16.4219" y1="23.9102" x2="21.6417" y2="23.9979" gradientUnits="userSpaceOnUse">
<stop stopColor="#40EDC3"/>
<stop offset="0.496174" stopColor="#7FFBA9"/>
<stop offset="1" stopColor="#D3F89A"/>
</linearGradient>
</defs>
</svg>
