<svg width="39" height="40" viewBox="0 0 39 40" fill="none" xmlns="http://www.w3.org/2000/svg">
<path d="M31.6875 40.0002H7.3125C3.27356 40.0002 0 36.6427 0 32.5002V7.50021C0 3.35771 3.27356 0.000213623 7.3125 0.000213623H31.6875C35.7264 0.000213623 39 3.35771 39 7.50021V32.5002C39 36.6427 35.7264 40.0002 31.6875 40.0002Z" fill="#000000"/>
<g clip-path="url(#clip0_1485_49661)">
<path d="M28.7626 27.9278C29.5692 27.9278 30.2254 27.2548 30.2254 26.4274V11.1484C30.2254 9.96379 29.2857 9 28.1307 9H10.8701C9.71508 9 8.77539 9.96379 8.77539 11.1484V26.4274C8.77539 27.2548 9.43163 27.9278 10.2382 27.9278H10.7025V30.1406H9.19434C8.96295 30.1406 8.77539 30.333 8.77539 30.5703C8.77539 30.8076 8.96295 31 9.19434 31H29.8064C30.0378 31 30.2254 30.8076 30.2254 30.5703C30.2254 30.333 30.0378 30.1406 29.8064 30.1406H28.2982V27.9278H28.7626ZM9.61328 11.1484C9.61328 10.4376 10.1771 9.85938 10.8701 9.85938H28.1307C28.8237 9.85938 29.3875 10.4376 29.3875 11.1484V12.0938H9.65534C9.64114 12.0938 9.62711 12.0945 9.61328 12.0959V11.1484ZM13.3838 30.1406H11.5404V26.2734H13.3838V30.1406ZM18.076 30.1406H16.2326V21.5225H18.076V30.1406ZM22.7682 30.1406H20.9248V25.1562H22.7682V30.1406ZM27.8793 20.0215H25.198C24.9667 20.0215 24.7791 20.2139 24.7791 20.4512V22.6211C24.7791 22.8583 24.9667 23.0507 25.198 23.0507C25.4294 23.0507 25.617 22.8583 25.617 22.6211V20.8809H27.4604V30.1406H25.617V25.5107C25.617 25.2735 25.4294 25.0811 25.198 25.0811C24.9667 25.0811 24.7791 25.2735 24.7791 25.5107V30.1406H23.6061V24.7266C23.6061 24.4893 23.4185 24.2969 23.1871 24.2969H20.5059C20.2745 24.2969 20.0869 24.4893 20.0869 24.7266V30.1406H18.9139V21.0928C18.9139 20.8555 18.7263 20.6631 18.4949 20.6631H15.8137C15.5823 20.6631 15.3947 20.8555 15.3947 21.0928V30.1406H14.2217V25.8438C14.2217 25.6065 14.0341 25.4141 13.8027 25.4141H11.1215C10.8901 25.4141 10.7025 25.6065 10.7025 25.8438V27.0684H10.2382C9.8936 27.0684 9.61328 26.7809 9.61328 26.4274V12.9509C9.62711 12.9524 9.64114 12.9531 9.65534 12.9531H29.3875V26.4274C29.3875 26.7809 29.1071 27.0684 28.7626 27.0684H28.2982V20.4512C28.2982 20.2139 28.1107 20.0215 27.8793 20.0215Z" fill="url(#paint0_linear_1485_49661)"/>
<path d="M27.5445 10.5469H18.0791C17.8477 10.5469 17.6602 10.7393 17.6602 10.9766C17.6602 11.2138 17.8477 11.4062 18.0791 11.4062H27.5445C27.7759 11.4062 27.9635 11.2138 27.9635 10.9766C27.9635 10.7393 27.7759 10.5469 27.5445 10.5469Z" fill="url(#paint1_linear_1485_49661)"/>
<path d="M13.429 10.6728C13.3511 10.5929 13.243 10.5469 13.1328 10.5469C13.0226 10.5469 12.9145 10.5928 12.8366 10.6728C12.7587 10.7527 12.7139 10.8636 12.7139 10.9766C12.7139 11.0896 12.7587 11.2004 12.8366 11.2803C12.9145 11.3603 13.0226 11.4062 13.1328 11.4062C13.243 11.4062 13.3511 11.3603 13.429 11.2803C13.5069 11.2004 13.5518 11.0896 13.5518 10.9766C13.5518 10.8636 13.5069 10.7527 13.429 10.6728Z" fill="url(#paint2_linear_1485_49661)"/>
<path d="M11.7532 10.6728C11.6753 10.5929 11.5672 10.5469 11.457 10.5469C11.3468 10.5469 11.2388 10.5928 11.1608 10.6728C11.0829 10.7527 11.0381 10.8636 11.0381 10.9766C11.0381 11.0896 11.0829 11.2004 11.1608 11.2803C11.2388 11.3603 11.3468 11.4062 11.457 11.4062C11.5672 11.4062 11.6753 11.3603 11.7532 11.2803C11.8311 11.2004 11.876 11.0896 11.876 10.9766C11.876 10.8636 11.8311 10.7527 11.7532 10.6728Z" fill="url(#paint3_linear_1485_49661)"/>
<path d="M15.1048 10.6728C15.0269 10.5929 14.9192 10.5469 14.8086 10.5469C14.6984 10.5469 14.5903 10.5928 14.5124 10.6728C14.4345 10.7527 14.3896 10.8636 14.3896 10.9766C14.3896 11.0896 14.4345 11.2004 14.5124 11.2803C14.5903 11.3603 14.6984 11.4062 14.8086 11.4062C14.9188 11.4062 15.0269 11.3603 15.1048 11.2803C15.1827 11.2004 15.2275 11.0896 15.2275 10.9766C15.2275 10.8636 15.1827 10.7527 15.1048 10.6728Z" fill="url(#paint4_linear_1485_49661)"/>
<path d="M25.4944 23.8487C25.4165 23.7684 25.3084 23.7228 25.1982 23.7228C25.0881 23.7228 24.98 23.7684 24.902 23.8487C24.8241 23.9286 24.7793 24.0395 24.7793 24.1525C24.7793 24.2655 24.8241 24.3764 24.902 24.4563C24.98 24.5362 25.0881 24.5822 25.1982 24.5822C25.3084 24.5822 25.4165 24.5362 25.4944 24.4563C25.5724 24.3764 25.6172 24.2655 25.6172 24.1525C25.6172 24.0391 25.5724 23.9286 25.4944 23.8487Z" fill="url(#paint5_linear_1485_49661)"/>
<path d="M26.5384 14.8411C25.7067 14.8411 25.0302 15.535 25.0302 16.388C25.0302 16.7268 25.1372 17.0403 25.318 17.2954L22.5352 20.1496C22.3192 20.027 22.0711 19.957 21.8073 19.957C21.5695 19.957 21.3445 20.0139 21.1443 20.1149L18.2386 17.1346C18.3581 16.9131 18.4264 16.6586 18.4264 16.388C18.4264 15.535 17.7498 14.8411 16.9182 14.8411C16.0865 14.8411 15.41 15.535 15.41 16.388C15.41 16.6861 15.4928 16.9646 15.6359 17.2011L13.1619 19.7384C12.9459 19.6159 12.6978 19.5458 12.434 19.5458C11.6023 19.5458 10.9258 20.2397 10.9258 21.0927C10.9258 21.9457 11.6023 22.6396 12.434 22.6396C13.2656 22.6396 13.9422 21.9457 13.9422 21.0927C13.9422 20.8221 13.8739 20.5676 13.7544 20.3461L16.2579 17.7784C16.4575 17.8785 16.6815 17.9348 16.9182 17.9348C17.182 17.9348 17.4301 17.8648 17.646 17.7422L20.5234 20.6933C20.3813 20.9292 20.2991 21.2067 20.2991 21.5038C20.2991 22.3567 20.9756 23.0506 21.8073 23.0506C22.6389 23.0506 23.3155 22.3567 23.3155 21.5038C23.3155 21.2332 23.2472 20.9787 23.1276 20.7572L25.9851 17.8265C26.1565 17.8962 26.3431 17.9349 26.5384 17.9349C27.37 17.9349 28.0466 17.241 28.0466 16.388C28.0466 15.535 27.37 14.8411 26.5384 14.8411ZM12.434 21.7803C12.0644 21.7803 11.7637 21.4718 11.7637 21.0928C11.7637 20.7137 12.0644 20.4053 12.434 20.4053C12.8036 20.4053 13.1043 20.7137 13.1043 21.0928C13.1043 21.4718 12.8036 21.7803 12.434 21.7803ZM16.9182 17.0755C16.5486 17.0755 16.2479 16.7671 16.2479 16.388C16.2479 16.0089 16.5486 15.7005 16.9182 15.7005C17.2878 15.7005 17.5885 16.0089 17.5885 16.388C17.5885 16.7671 17.2878 17.0755 16.9182 17.0755ZM21.8073 22.1914C21.4377 22.1914 21.137 21.8829 21.137 21.5039C21.137 21.1248 21.4377 20.8164 21.8073 20.8164C22.1769 20.8164 22.4776 21.1248 22.4776 21.5039C22.4776 21.8829 22.1769 22.1914 21.8073 22.1914ZM26.5384 17.0755C26.1688 17.0755 25.8681 16.7671 25.8681 16.388C25.8681 16.0089 26.1688 15.7005 26.5384 15.7005C26.908 15.7005 27.2087 16.0089 27.2087 16.388C27.2087 16.7671 26.908 17.0755 26.5384 17.0755Z" fill="url(#paint6_linear_1485_49661)"/>
<path d="M14.9896 14.5409C14.9112 14.4609 14.8035 14.4149 14.6934 14.4149C14.5828 14.4149 14.4747 14.4609 14.3967 14.5409C14.3188 14.6207 14.2744 14.7316 14.2744 14.8446C14.2744 14.9576 14.3188 15.0685 14.3967 15.1484C14.4751 15.2283 14.5828 15.2743 14.6934 15.2743C14.8035 15.2743 14.9112 15.2284 14.9896 15.1484C15.0675 15.0685 15.1123 14.9576 15.1123 14.8446C15.1123 14.7316 15.0675 14.6207 14.9896 14.5409Z" fill="url(#paint7_linear_1485_49661)"/>
<path d="M13.132 14.415H11.1211C10.8897 14.415 10.7021 14.6074 10.7021 14.8446C10.7021 15.0819 10.8897 15.2743 11.1211 15.2743H13.132C13.3634 15.2743 13.551 15.0819 13.551 14.8446C13.551 14.6074 13.3634 14.415 13.132 14.415Z" fill="url(#paint8_linear_1485_49661)"/>
<path d="M13.132 16.4775H11.1211C10.8897 16.4775 10.7021 16.6699 10.7021 16.9072C10.7021 17.1444 10.8897 17.3368 11.1211 17.3368H13.132C13.3634 17.3368 13.551 17.1444 13.551 16.9072C13.551 16.6699 13.3634 16.4775 13.132 16.4775Z" fill="url(#paint9_linear_1485_49661)"/>
</g>
<defs>
<linearGradient id="paint0_linear_1485_49661" x1="8.77539" y1="9" x2="30.4925" y2="9.26696" gradientUnits="userSpaceOnUse">
<stop stop-color="#40EDC3"/>
<stop offset="0.496174" stop-color="#7FFBA9"/>
<stop offset="1" stop-color="#D3F89A"/>
</linearGradient>
<linearGradient id="paint1_linear_1485_49661" x1="17.6602" y1="10.5469" x2="27.8603" y2="12.0887" gradientUnits="userSpaceOnUse">
<stop stop-color="#40EDC3"/>
<stop offset="0.496174" stop-color="#7FFBA9"/>
<stop offset="1" stop-color="#D3F89A"/>
</linearGradient>
<linearGradient id="paint2_linear_1485_49661" x1="12.7139" y1="10.5469" x2="13.5622" y2="10.5573" gradientUnits="userSpaceOnUse">
<stop stop-color="#40EDC3"/>
<stop offset="0.496174" stop-color="#7FFBA9"/>
<stop offset="1" stop-color="#D3F89A"/>
</linearGradient>
<linearGradient id="paint3_linear_1485_49661" x1="11.0381" y1="10.5469" x2="11.8864" y2="10.5573" gradientUnits="userSpaceOnUse">
<stop stop-color="#40EDC3"/>
<stop offset="0.496174" stop-color="#7FFBA9"/>
<stop offset="1" stop-color="#D3F89A"/>
</linearGradient>
<linearGradient id="paint4_linear_1485_49661" x1="14.3896" y1="10.5469" x2="15.238" y2="10.5573" gradientUnits="userSpaceOnUse">
<stop stop-color="#40EDC3"/>
<stop offset="0.496174" stop-color="#7FFBA9"/>
<stop offset="1" stop-color="#D3F89A"/>
</linearGradient>
<linearGradient id="paint5_linear_1485_49661" x1="24.7793" y1="23.7228" x2="25.6276" y2="23.7332" gradientUnits="userSpaceOnUse">
<stop stop-color="#40EDC3"/>
<stop offset="0.496174" stop-color="#7FFBA9"/>
<stop offset="1" stop-color="#D3F89A"/>
</linearGradient>
<linearGradient id="paint6_linear_1485_49661" x1="10.9258" y1="14.8411" x2="28.2504" y2="15.2967" gradientUnits="userSpaceOnUse">
<stop stop-color="#40EDC3"/>
<stop offset="0.496174" stop-color="#7FFBA9"/>
<stop offset="1" stop-color="#D3F89A"/>
</linearGradient>
<linearGradient id="paint7_linear_1485_49661" x1="14.2744" y1="14.4149" x2="15.1227" y2="14.4253" gradientUnits="userSpaceOnUse">
<stop stop-color="#40EDC3"/>
<stop offset="0.496174" stop-color="#7FFBA9"/>
<stop offset="1" stop-color="#D3F89A"/>
</linearGradient>
<linearGradient id="paint8_linear_1485_49661" x1="10.7021" y1="14.415" x2="13.5819" y2="14.5353" gradientUnits="userSpaceOnUse">
<stop stop-color="#40EDC3"/>
<stop offset="0.496174" stop-color="#7FFBA9"/>
<stop offset="1" stop-color="#D3F89A"/>
</linearGradient>
<linearGradient id="paint9_linear_1485_49661" x1="10.7021" y1="16.4775" x2="13.5819" y2="16.5978" gradientUnits="userSpaceOnUse">
<stop stop-color="#40EDC3"/>
<stop offset="0.496174" stop-color="#7FFBA9"/>
<stop offset="1" stop-color="#D3F89A"/>
</linearGradient>
<clipPath id="clip0_1485_49661">
<rect width="21.45" height="22" fill="white" transform="translate(8.77539 9)"/>
</clipPath>
</defs>
</svg>
