<svg width="39" height="40" viewBox="0 0 39 40" fill="none" xmlns="http://www.w3.org/2000/svg">
<path d="M31.6875 40H7.3125C3.27356 40 0 36.6425 0 32.5V7.5C0 3.3575 3.27356 0 7.3125 0H31.6875C35.7264 0 39 3.3575 39 7.5V32.5C39 36.6425 35.7264 40 31.6875 40Z" fill="#000000"/>
<path d="M22.9443 11.1872V32.6048L8.27866 30.0686L8.32675 29.6967L8.53513 28.0857C8.70788 26.7503 8.93894 24.9645 9.17217 23.1632C9.63881 19.5591 10.1137 15.8961 10.1482 15.6481L10.1482 15.6481C10.1717 15.4797 10.1884 15.3703 10.2098 15.2893C10.2299 15.213 10.249 15.1834 10.2647 15.166C10.2822 15.1466 10.3159 15.1201 10.4024 15.0834C10.4909 15.0459 10.611 15.007 10.7891 14.9511L10.7895 14.951L10.7904 14.9507L10.7932 14.9498L10.8033 14.9467L10.8396 14.9354L10.9736 14.8939L11.4649 14.7417L13.1658 14.215L13.3174 14.168L13.3394 14.0108C13.4821 12.9912 13.989 11.655 14.6597 10.5899L14.6597 10.5899C15.6145 9.07335 16.7529 8.28218 17.8406 8.25099L17.8407 8.25099C18.3984 8.23464 18.8507 8.42083 19.2062 8.80141L19.2063 8.80146C19.2303 8.82717 19.2542 8.85532 19.2812 8.88773L19.3651 8.98876L19.4959 8.97695L19.4999 8.97659C19.5657 8.97065 19.6172 8.966 19.6675 8.966H19.6675H19.6675H19.6675H19.6676H19.6676H19.6676H19.6676H19.6676H19.6676H19.6676H19.6677H19.6677H19.6677H19.6677H19.6677H19.6677H19.6677H19.6677H19.6678H19.6678H19.6678H19.6678H19.6678H19.6678H19.6678H19.6678H19.6679H19.6679H19.6679H19.6679H19.6679H19.6679H19.6679H19.6679H19.668H19.668H19.668H19.668H19.668H19.668H19.668H19.668H19.6681H19.6681H19.6681H19.6681H19.6681H19.6681H19.6681H19.6681H19.6682H19.6682H19.6682H19.6682H19.6682H19.6682H19.6682H19.6683H19.6683H19.6683H19.6683H19.6683H19.6683H19.6683H19.6683H19.6683H19.6684H19.6684H19.6684H19.6684H19.6684H19.6684H19.6684H19.6684H19.6685H19.6685H19.6685H19.6685H19.6685H19.6685H19.6685H19.6685H19.6686H19.6686H19.6686H19.6686H19.6686H19.6686H19.6686H19.6686H19.6687H19.6687H19.6687H19.6687H19.6687H19.6687H19.6687H19.6687H19.6688H19.6688H19.6688H19.6688H19.6688H19.6688H19.6688H19.6688H19.6689H19.6689H19.6689H19.6689H19.6689H19.6689H19.6689H19.6689H19.669H19.669H19.669H19.669H19.669H19.669H19.669H19.669H19.669H19.6691H19.6691H19.6691H19.6691H19.6691H19.6691H19.6691H19.6691H19.6692H19.6692H19.6692H19.6692H19.6692H19.6692H19.6692H19.6692H19.6693H19.6693H19.6693H19.6693H19.6693H19.6693H19.6693H19.6693H19.6693H19.6694H19.6694H19.6694H19.6694H19.6694H19.6694H19.6694H19.6694H19.6695H19.6695H19.6695H19.6695H19.6695H19.6695H19.6695H19.6695H19.6696H19.6696H19.6696H19.6696H19.6696H19.6696H19.6696H19.6696H19.6697H19.6697H19.6697H19.6697H19.6697H19.6697H19.6697H19.6697H19.6697H19.6698H19.6698H19.6698H19.6698H19.6698H19.6698H19.6698H19.6698H19.6699H19.6699H19.6699H19.6699H19.6699H19.6699H19.6699H19.6699H19.67H19.67H19.67H19.67H19.67H19.67H19.67H19.67H19.6701H19.6701H19.6701H19.6701H19.6701H19.6701H19.6701H19.6701H19.6702H19.6702H19.6702H19.6702H19.6702H19.6702H19.6702H19.6702H19.6702H19.6703H19.6703H19.6703H19.6703H19.6703H19.6703H19.6703H19.6703H19.6704H19.6704H19.6704H19.6704H19.6704H19.6704H19.6704H19.6704H19.6705C20.4908 8.96725 21.1898 9.42793 21.6864 10.3751L21.6864 10.3751C21.8413 10.6705 21.9509 10.9665 22.0257 11.2094L22.0994 11.4487L22.3386 11.3747L22.8418 11.2189C22.8804 11.207 22.9146 11.1964 22.9443 11.1872ZM19.5758 12.2302L19.7496 12.1763L19.7518 11.9944C19.76 11.3197 19.6891 10.2832 19.3286 9.53197L19.2263 9.31887L19.0078 9.40903C18.6067 9.57456 18.278 9.85903 18.0504 10.1031L18.0504 10.1032C17.4386 10.7595 16.953 11.7441 16.6975 12.7216L16.5838 13.1566L17.0134 13.0236L19.5758 12.2302ZM17.8514 8.55471L17.8494 8.55476C16.7932 8.58514 15.8581 9.41403 15.1567 10.4053C14.4458 11.4099 13.9218 12.6542 13.7071 13.6577L13.6179 14.075L14.0256 13.9488L16.1301 13.2971L16.2737 13.2526L16.3017 13.105C16.5292 11.9091 17.0994 10.6776 17.828 9.89593C18.1071 9.59661 18.4004 9.37161 18.6981 9.21705L19.0764 9.02067L18.7204 8.78635C18.4673 8.61975 18.1766 8.54791 17.8514 8.55471ZM15.7561 19.8403L15.7561 19.8403C15.75 19.7438 15.7521 19.5154 15.8953 19.3054C16.0303 19.1074 16.3276 18.873 17.0214 18.8292L17.0214 18.8292C17.4975 18.7992 17.9405 18.8756 18.2671 18.9613C18.4297 19.004 18.5615 19.0484 18.6518 19.0818C18.6969 19.0985 18.7315 19.1124 18.7543 19.1218L18.7794 19.1324L18.7849 19.1349L18.7855 19.1352L18.7856 19.1352L18.7857 19.1353L18.7858 19.1353L18.7858 19.1353L19.0544 19.2576L19.1307 18.9722L19.9033 16.0821L19.956 15.8849L19.7733 15.7938L19.6618 16.0175C19.7733 15.7938 19.7732 15.7937 19.7731 15.7937L19.7729 15.7936L19.7724 15.7933L19.7713 15.7928L19.7683 15.7913L19.7592 15.787C19.7519 15.7836 19.7419 15.7791 19.7293 15.7737C19.7041 15.7628 19.6683 15.7483 19.6221 15.7317C19.5296 15.6983 19.3953 15.6563 19.2197 15.6175C18.8683 15.5398 18.3527 15.4752 17.6777 15.5178C15.93 15.6281 14.6369 16.2974 13.801 17.2629C12.9674 18.2258 12.6041 19.4655 12.6815 20.6903C12.7281 21.4282 12.9491 21.9859 13.2619 22.4309C13.5717 22.8716 13.9643 23.191 14.3342 23.4617C14.4322 23.5334 14.527 23.6007 14.6182 23.6654C14.8824 23.853 15.1162 24.019 15.3097 24.2082C15.5575 24.4505 15.7103 24.7058 15.7319 25.0477C15.7414 25.1982 15.6981 25.3845 15.5879 25.5332C15.4834 25.6742 15.311 25.7929 15.0299 25.8107C14.5593 25.8404 14.0011 25.63 13.535 25.3873C13.3072 25.2687 13.1115 25.1477 12.9727 25.0564C12.9035 25.0108 12.8488 24.9728 12.8118 24.9465C12.7933 24.9334 12.7792 24.9232 12.77 24.9164L12.7598 24.9089L12.7576 24.9072L12.7572 24.907L12.7572 24.9069L12.7572 24.9069L12.7571 24.9069L12.4511 24.676L12.3633 25.0494L11.8453 27.2532L11.8148 27.3833L11.9059 27.481L12.0887 27.3104C11.9059 27.481 11.906 27.4811 11.9061 27.4812L11.9063 27.4814L11.9068 27.4819L11.9082 27.4834L11.9125 27.4879L11.927 27.5027C11.9394 27.5152 11.957 27.5326 11.9799 27.5541C12.0258 27.5972 12.0926 27.6572 12.1801 27.7278C12.3549 27.8691 12.6128 28.0539 12.9499 28.2331C13.6251 28.592 14.6186 28.9286 15.8951 28.848L15.8793 28.5985L15.8951 28.848C16.9789 28.7796 17.9077 28.3099 18.5435 27.5317C19.1785 26.7546 19.5079 25.687 19.4294 24.4429C19.3265 22.8142 18.3509 21.9272 17.4442 21.301C17.2551 21.1704 17.0662 21.0493 16.8896 20.936C16.8558 20.9143 16.8224 20.8929 16.7896 20.8718C16.5827 20.7388 16.3977 20.6171 16.2403 20.4964C15.9156 20.2474 15.7692 20.047 15.7561 19.8403ZM20.0547 11.7464L20.0596 12.0804L20.3787 11.9816L21.5697 11.6128L21.8082 11.5389L21.7347 11.3004C21.6357 10.979 21.466 10.5376 21.1937 10.1493C20.9215 9.76112 20.5299 9.40299 19.9844 9.29961L19.5421 9.21581L19.7047 9.63556C19.9738 10.3299 20.046 11.1458 20.0547 11.7464Z" stroke="url(#paint0_linear_1485_50175)" stroke-width="0.5"/>
<path d="M25.1828 12.5635L25.0086 12.7428L25.0086 12.7428L25.0084 12.7427L25.0078 12.7421L25.0055 12.7398L24.9964 12.731L24.9613 12.6969L24.8332 12.5724L24.4167 12.1677C24.2629 12.0182 24.0974 11.8572 23.9443 11.7081V32.5229L29.7172 31.0879L29.6337 30.5237L29.326 28.4434L28.3913 22.1222C27.7268 17.6283 27.0596 13.1153 27.0206 12.847C27.0168 12.8468 27.0113 12.8466 27.0037 12.8463L26.9355 12.8444C26.879 12.8429 26.8028 12.8412 26.7133 12.8394C26.5346 12.8359 26.3046 12.8318 26.0772 12.8279C25.8498 12.8241 25.6253 12.8205 25.4575 12.8178L25.2554 12.8147L25.1989 12.8138L25.1841 12.8136L25.1803 12.8135L25.1793 12.8135L25.1791 12.8135L25.179 12.8135L25.1828 12.5635ZM25.1828 12.5635L25.0086 12.7429L25.0798 12.812L25.179 12.8135L25.1828 12.5635Z" stroke="url(#paint1_linear_1485_50175)" stroke-width="0.5"/>
<defs>
<linearGradient id="paint0_linear_1485_50175" x1="8" y1="8" x2="23.3849" y2="8.11836" gradientUnits="userSpaceOnUse">
<stop stop-color="#40EDC3"/>
<stop offset="0.496174" stop-color="#7FFBA9"/>
<stop offset="1" stop-color="#D3F89A"/>
</linearGradient>
<linearGradient id="paint1_linear_1485_50175" x1="23.6943" y1="11.1152" x2="30.0771" y2="11.1386" gradientUnits="userSpaceOnUse">
<stop stop-color="#40EDC3"/>
<stop offset="0.496174" stop-color="#7FFBA9"/>
<stop offset="1" stop-color="#D3F89A"/>
</linearGradient>
</defs>
</svg>
