<svg width="39" height="40" viewBox="0 0 39 40" fill="none" xmlns="http://www.w3.org/2000/svg">
<path d="M31.6875 40.0002H7.3125C3.27356 40.0002 0 36.6427 0 32.5002V7.50018C0 3.35768 3.27356 0.000183105 7.3125 0.000183105H31.6875C35.7264 0.000183105 39 3.35768 39 7.50018V32.5002C39 36.6427 35.7264 40.0002 31.6875 40.0002Z" fill="#000000"/>
<path d="M22.9443 10.1872V31.6048L8.27866 29.0686L8.32675 28.6967L8.53513 27.0857C8.70788 25.7503 8.93894 23.9645 9.17217 22.1632C9.63881 18.5591 10.1137 14.8961 10.1482 14.6481L10.1482 14.6481C10.1717 14.4797 10.1884 14.3703 10.2098 14.2893C10.2299 14.213 10.249 14.1834 10.2647 14.166C10.2822 14.1466 10.3159 14.1201 10.4024 14.0834C10.4909 14.0459 10.611 14.007 10.7891 13.9511L10.7895 13.951L10.7904 13.9507L10.7932 13.9498L10.8033 13.9467L10.8396 13.9354L10.9736 13.8939L11.4649 13.7417L13.1658 13.215L13.3174 13.168L13.3394 13.0108C13.4821 11.9912 13.989 10.655 14.6597 9.58994L14.6597 9.58993C15.6145 8.07335 16.7529 7.28218 17.8406 7.25099L17.8407 7.25099C18.3984 7.23464 18.8507 7.42083 19.2062 7.80141L19.2063 7.80146C19.2303 7.82717 19.2542 7.85532 19.2812 7.88773L19.3651 7.98876L19.4959 7.97695L19.4999 7.97659C19.5657 7.97065 19.6172 7.966 19.6675 7.966H19.6675H19.6675H19.6675H19.6676H19.6676H19.6676H19.6676H19.6676H19.6676H19.6676H19.6677H19.6677H19.6677H19.6677H19.6677H19.6677H19.6677H19.6677H19.6678H19.6678H19.6678H19.6678H19.6678H19.6678H19.6678H19.6678H19.6679H19.6679H19.6679H19.6679H19.6679H19.6679H19.6679H19.6679H19.668H19.668H19.668H19.668H19.668H19.668H19.668H19.668H19.6681H19.6681H19.6681H19.6681H19.6681H19.6681H19.6681H19.6681H19.6682H19.6682H19.6682H19.6682H19.6682H19.6682H19.6682H19.6683H19.6683H19.6683H19.6683H19.6683H19.6683H19.6683H19.6683H19.6683H19.6684H19.6684H19.6684H19.6684H19.6684H19.6684H19.6684H19.6684H19.6685H19.6685H19.6685H19.6685H19.6685H19.6685H19.6685H19.6685H19.6686H19.6686H19.6686H19.6686H19.6686H19.6686H19.6686H19.6686H19.6687H19.6687H19.6687H19.6687H19.6687H19.6687H19.6687H19.6687H19.6688H19.6688H19.6688H19.6688H19.6688H19.6688H19.6688H19.6688H19.6689H19.6689H19.6689H19.6689H19.6689H19.6689H19.6689H19.6689H19.669H19.669H19.669H19.669H19.669H19.669H19.669H19.669H19.669H19.6691H19.6691H19.6691H19.6691H19.6691H19.6691H19.6691H19.6691H19.6692H19.6692H19.6692H19.6692H19.6692H19.6692H19.6692H19.6692H19.6693H19.6693H19.6693H19.6693H19.6693H19.6693H19.6693H19.6693H19.6693H19.6694H19.6694H19.6694H19.6694H19.6694H19.6694H19.6694H19.6694H19.6695H19.6695H19.6695H19.6695H19.6695H19.6695H19.6695H19.6695H19.6696H19.6696H19.6696H19.6696H19.6696H19.6696H19.6696H19.6696H19.6697H19.6697H19.6697H19.6697H19.6697H19.6697H19.6697H19.6697H19.6697H19.6698H19.6698H19.6698H19.6698H19.6698H19.6698H19.6698H19.6698H19.6699H19.6699H19.6699H19.6699H19.6699H19.6699H19.6699H19.6699H19.67H19.67H19.67H19.67H19.67H19.67H19.67H19.67H19.6701H19.6701H19.6701H19.6701H19.6701H19.6701H19.6701H19.6701H19.6702H19.6702H19.6702H19.6702H19.6702H19.6702H19.6702H19.6702H19.6702H19.6703H19.6703H19.6703H19.6703H19.6703H19.6703H19.6703H19.6703H19.6704H19.6704H19.6704H19.6704H19.6704H19.6704H19.6704H19.6704H19.6705C20.4908 7.96725 21.1898 8.42793 21.6864 9.37506L21.6864 9.37509C21.8413 9.67048 21.9509 9.96651 22.0257 10.2094L22.0994 10.4487L22.3386 10.3747L22.8418 10.2189C22.8804 10.207 22.9146 10.1964 22.9443 10.1872ZM19.5758 11.2302L19.7496 11.1763L19.7518 10.9944C19.76 10.3197 19.6891 9.2832 19.3286 8.53197L19.2263 8.31887L19.0078 8.40903C18.6067 8.57456 18.278 8.85903 18.0504 9.10313L18.0504 9.10316C17.4386 9.75946 16.953 10.7441 16.6975 11.7216L16.5838 12.1566L17.0134 12.0236L19.5758 11.2302ZM17.8514 7.55471L17.8494 7.55476C16.7932 7.58514 15.8581 8.41403 15.1567 9.4053C14.4458 10.4099 13.9218 11.6542 13.7071 12.6577L13.6179 13.075L14.0256 12.9488L16.1301 12.2971L16.2737 12.2526L16.3017 12.105C16.5292 10.9091 17.0994 9.67757 17.828 8.89593C18.1071 8.59661 18.4004 8.37161 18.6981 8.21705L19.0764 8.02067L18.7204 7.78635C18.4673 7.61975 18.1766 7.54791 17.8514 7.55471ZM15.7561 18.8403L15.7561 18.8403C15.75 18.7438 15.7521 18.5154 15.8953 18.3054C16.0303 18.1074 16.3276 17.873 17.0214 17.8292L17.0214 17.8292C17.4975 17.7992 17.9405 17.8756 18.2671 17.9613C18.4297 18.004 18.5615 18.0484 18.6518 18.0818C18.6969 18.0985 18.7315 18.1124 18.7543 18.1218L18.7794 18.1324L18.7849 18.1349L18.7855 18.1352L18.7856 18.1352L18.7857 18.1353L18.7858 18.1353L18.7858 18.1353L19.0544 18.2576L19.1307 17.9722L19.9033 15.0821L19.956 14.8849L19.7733 14.7938L19.6618 15.0175C19.7733 14.7938 19.7732 14.7937 19.7731 14.7937L19.7729 14.7936L19.7724 14.7933L19.7713 14.7928L19.7683 14.7913L19.7592 14.787C19.7519 14.7836 19.7419 14.7791 19.7293 14.7737C19.7041 14.7628 19.6683 14.7483 19.6221 14.7317C19.5296 14.6983 19.3953 14.6563 19.2197 14.6175C18.8683 14.5398 18.3527 14.4752 17.6777 14.5178C15.93 14.6281 14.6369 15.2974 13.801 16.2629C12.9674 17.2258 12.6041 18.4655 12.6815 19.6903C12.7281 20.4282 12.9491 20.9859 13.2619 21.4309C13.5717 21.8716 13.9643 22.191 14.3342 22.4617C14.4322 22.5334 14.527 22.6007 14.6182 22.6654C14.8824 22.853 15.1162 23.019 15.3097 23.2082C15.5575 23.4505 15.7103 23.7058 15.7319 24.0477C15.7414 24.1982 15.6981 24.3845 15.5879 24.5332C15.4834 24.6742 15.311 24.7929 15.0299 24.8107C14.5593 24.8404 14.0011 24.63 13.535 24.3873C13.3072 24.2687 13.1115 24.1477 12.9727 24.0564C12.9035 24.0108 12.8488 23.9728 12.8118 23.9465C12.7933 23.9334 12.7792 23.9232 12.77 23.9164L12.7598 23.9089L12.7576 23.9072L12.7572 23.907L12.7572 23.9069L12.7572 23.9069L12.7571 23.9069L12.4511 23.676L12.3633 24.0494L11.8453 26.2532L11.8148 26.3833L11.9059 26.481L12.0887 26.3104C11.9059 26.481 11.906 26.4811 11.9061 26.4812L11.9063 26.4814L11.9068 26.4819L11.9082 26.4834L11.9125 26.4879L11.927 26.5027C11.9394 26.5152 11.957 26.5326 11.9799 26.5541C12.0258 26.5972 12.0926 26.6572 12.1801 26.7278C12.3549 26.8691 12.6128 27.0539 12.9499 27.2331C13.6251 27.592 14.6186 27.9286 15.8951 27.848L15.8793 27.5985L15.8951 27.848C16.9789 27.7796 17.9077 27.3099 18.5435 26.5317C19.1785 25.7546 19.5079 24.687 19.4294 23.4429C19.3265 21.8142 18.3509 20.9272 17.4442 20.301C17.2551 20.1704 17.0662 20.0493 16.8896 19.936C16.8558 19.9143 16.8224 19.8929 16.7896 19.8718C16.5827 19.7388 16.3977 19.6171 16.2403 19.4964C15.9156 19.2474 15.7692 19.047 15.7561 18.8403ZM20.0547 10.7464L20.0596 11.0804L20.3787 10.9816L21.5697 10.6128L21.8082 10.5389L21.7347 10.3004C21.6357 9.97897 21.466 9.53759 21.1937 9.14934C20.9215 8.76112 20.5299 8.40299 19.9844 8.29961L19.5421 8.21581L19.7047 8.63556C19.9738 9.32993 20.046 10.1458 20.0547 10.7464Z" stroke="url(#paint0_linear_1485_50187)" stroke-width="0.5"/>
<path d="M25.1828 11.5635L25.0086 11.7428L25.0086 11.7428L25.0084 11.7427L25.0078 11.7421L25.0055 11.7398L24.9964 11.731L24.9613 11.6969L24.8332 11.5724L24.4167 11.1677C24.2629 11.0182 24.0974 10.8572 23.9443 10.7081V31.5229L29.7172 30.0879L29.6337 29.5237L29.326 27.4434L28.3913 21.1222C27.7268 16.6283 27.0596 12.1153 27.0206 11.847C27.0168 11.8468 27.0113 11.8466 27.0037 11.8463L26.9355 11.8444C26.879 11.8429 26.8028 11.8412 26.7133 11.8394C26.5346 11.8359 26.3046 11.8318 26.0772 11.8279C25.8498 11.8241 25.6253 11.8205 25.4575 11.8178L25.2554 11.8147L25.1989 11.8138L25.1841 11.8136L25.1803 11.8135L25.1793 11.8135L25.1791 11.8135L25.179 11.8135L25.1828 11.5635ZM25.1828 11.5635L25.0086 11.7429L25.0798 11.812L25.179 11.8135L25.1828 11.5635Z" stroke="url(#paint1_linear_1485_50187)" stroke-width="0.5"/>
<defs>
<linearGradient id="paint0_linear_1485_50187" x1="8" y1="7" x2="23.3849" y2="7.11836" gradientUnits="userSpaceOnUse">
<stop stop-color="#40EDC3"/>
<stop offset="0.496174" stop-color="#7FFBA9"/>
<stop offset="1" stop-color="#D3F89A"/>
</linearGradient>
<linearGradient id="paint1_linear_1485_50187" x1="23.6943" y1="10.1152" x2="30.0771" y2="10.1386" gradientUnits="userSpaceOnUse">
<stop stop-color="#40EDC3"/>
<stop offset="0.496174" stop-color="#7FFBA9"/>
<stop offset="1" stop-color="#D3F89A"/>
</linearGradient>
</defs>
</svg>
