<svg width="39" height="40" viewBox="0 0 39 40" fill="none" xmlns="http://www.w3.org/2000/svg">
<path d="M31.6875 40.0002H7.3125C3.27356 40.0002 0 36.6427 0 32.5002V7.50018C0 3.35768 3.27356 0.000183105 7.3125 0.000183105H31.6875C35.7264 0.000183105 39 3.35768 39 7.50018V32.5002C39 36.6427 35.7264 40.0002 31.6875 40.0002Z" fill="#000000"/>
<path d="M28.0664 12.2656H9.93359C8.86526 12.2656 8 13.1363 8 14.1992V25.8008C8 26.8701 8.87162 27.7344 9.93359 27.7344H28.0664C29.1258 27.7344 30 26.8737 30 25.8008V14.1992C30 13.1381 29.1382 12.2656 28.0664 12.2656ZM27.7956 13.5547C27.4006 13.9476 20.602 20.7104 20.3673 20.9439C20.002 21.3091 19.5165 21.5102 19 21.5102C18.4835 21.5102 17.998 21.3091 17.6315 20.9427C17.4737 20.7856 10.7501 14.0976 10.2044 13.5547H27.7956ZM9.28906 25.5384V14.4624L14.8594 20.0034L9.28906 25.5384ZM10.2052 26.4453L15.7734 20.9125L16.7212 21.8554C17.3299 22.4641 18.1392 22.7993 19 22.7993C19.8608 22.7993 20.6701 22.4641 21.2776 21.8566L22.2266 20.9125L27.7948 26.4453H10.2052ZM28.7109 25.5384L23.1406 20.0034L28.7109 14.4624V25.5384Z" fill="url(#paint0_linear_1485_50065)"/>
<defs>
<linearGradient id="paint0_linear_1485_50065" x1="8" y1="12.2656" x2="30.2702" y2="12.665" gradientUnits="userSpaceOnUse">
<stop stop-color="#40EDC3"/>
<stop offset="0.496174" stop-color="#7FFBA9"/>
<stop offset="1" stop-color="#D3F89A"/>
</linearGradient>
</defs>
</svg>
