<svg width="39" height="40" viewBox="0 0 39 40" fill="none" xmlns="http://www.w3.org/2000/svg">
<path d="M31.6875 40H7.3125C3.27356 40 0 36.6425 0 32.5V7.5C0 3.3575 3.27356 0 7.3125 0H31.6875C35.7264 0 39 3.3575 39 7.5V32.5C39 36.6425 35.7264 40 31.6875 40Z" fill="#000000"/>
<path d="M15.4705 14.7062H27.235C27.703 14.7062 28.1519 14.5203 28.4828 14.1893C28.8138 13.8584 28.9997 13.4095 28.9997 12.9415C28.9997 12.4735 28.8138 12.0246 28.4828 11.6937C28.1519 11.3627 27.703 11.1768 27.235 11.1768H15.4705C15.0025 11.1768 14.5536 11.3627 14.2227 11.6937C13.8917 12.0246 13.7058 12.4735 13.7058 12.9415C13.7058 13.4095 13.8917 13.8584 14.2227 14.1893C14.5536 14.5203 15.0025 14.7062 15.4705 14.7062ZM15.4705 12.3533H27.235C27.391 12.3533 27.5406 12.4152 27.6509 12.5256C27.7613 12.6359 27.8232 12.7855 27.8232 12.9415C27.8232 13.0975 27.7613 13.2471 27.6509 13.3574C27.5406 13.4677 27.391 13.5297 27.235 13.5297H15.4705C15.3145 13.5297 15.1649 13.4677 15.0545 13.3574C14.9442 13.2471 14.8823 13.0975 14.8823 12.9415C14.8823 12.7855 14.9442 12.6359 15.0545 12.5256C15.1649 12.4152 15.3145 12.3533 15.4705 12.3533ZM10.7647 11.1768C10.4157 11.1768 10.0745 11.2803 9.78428 11.4742C9.49408 11.6681 9.26789 11.9437 9.13433 12.2662C9.00076 12.5886 8.96582 12.9435 9.03391 13.2858C9.102 13.6281 9.27007 13.9425 9.51686 14.1893C9.76366 14.4361 10.0781 14.6042 10.4204 14.6723C10.7627 14.7404 11.1175 14.7054 11.44 14.5718C11.7624 14.4383 12.038 14.2121 12.232 13.9219C12.4259 13.6317 12.5294 13.2905 12.5294 12.9415C12.5288 12.4736 12.3428 12.0251 12.0119 11.6942C11.6811 11.3634 11.2325 11.1773 10.7647 11.1768ZM10.7647 13.5297C10.6483 13.5297 10.5346 13.4952 10.4379 13.4306C10.3411 13.366 10.2657 13.2741 10.2212 13.1666C10.1767 13.0591 10.1651 12.9408 10.1878 12.8267C10.2105 12.7126 10.2665 12.6078 10.3487 12.5256C10.431 12.4433 10.5358 12.3873 10.6499 12.3646C10.764 12.3419 10.8823 12.3535 10.9898 12.398C11.0973 12.4426 11.1891 12.518 11.2538 12.6147C11.3184 12.7114 11.3529 12.8252 11.3529 12.9415C11.3528 13.0975 11.2908 13.247 11.1805 13.3573C11.0702 13.4676 10.9207 13.5296 10.7647 13.5297ZM27.235 18.2355H15.4705C15.0025 18.2355 14.5536 18.4214 14.2227 18.7524C13.8917 19.0833 13.7058 19.5322 13.7058 20.0002C13.7058 20.4682 13.8917 20.9171 14.2227 21.248C14.5536 21.579 15.0025 21.7649 15.4705 21.7649H27.235C27.703 21.7649 28.1519 21.579 28.4828 21.248C28.8138 20.9171 28.9997 20.4682 28.9997 20.0002C28.9997 19.5322 28.8138 19.0833 28.4828 18.7524C28.1519 18.4214 27.703 18.2355 27.235 18.2355ZM27.235 20.5884H15.4705C15.3145 20.5884 15.1649 20.5265 15.0545 20.4161C14.9442 20.3058 14.8823 20.1562 14.8823 20.0002C14.8823 19.8442 14.9442 19.6946 15.0545 19.5843C15.1649 19.474 15.3145 19.412 15.4705 19.412H27.235C27.391 19.412 27.5406 19.474 27.6509 19.5843C27.7613 19.6946 27.8232 19.8442 27.8232 20.0002C27.8232 20.1562 27.7613 20.3058 27.6509 20.4161C27.5406 20.5265 27.391 20.5884 27.235 20.5884ZM10.7647 18.2355C10.4157 18.2355 10.0745 18.339 9.78428 18.5329C9.49408 18.7268 9.26789 19.0024 9.13433 19.3249C9.00076 19.6473 8.96582 20.0022 9.03391 20.3445C9.102 20.6868 9.27007 21.0012 9.51686 21.248C9.76366 21.4948 10.0781 21.6629 10.4204 21.731C10.7627 21.7991 11.1175 21.7641 11.44 21.6306C11.7624 21.497 12.038 21.2708 12.232 20.9806C12.4259 20.6904 12.5294 20.3492 12.5294 20.0002C12.5288 19.5323 12.3428 19.0838 12.0119 18.753C11.6811 18.4221 11.2325 18.236 10.7647 18.2355ZM10.7647 20.5884C10.6483 20.5884 10.5346 20.5539 10.4379 20.4893C10.3411 20.4247 10.2657 20.3328 10.2212 20.2253C10.1767 20.1178 10.1651 19.9996 10.1878 19.8854C10.2105 19.7713 10.2665 19.6665 10.3487 19.5843C10.431 19.502 10.5358 19.446 10.6499 19.4233C10.764 19.4006 10.8823 19.4122 10.9898 19.4568C11.0973 19.5013 11.1891 19.5767 11.2538 19.6734C11.3184 19.7701 11.3529 19.8839 11.3529 20.0002C11.3528 20.1562 11.2908 20.3057 11.1805 20.416C11.0702 20.5263 10.9207 20.5883 10.7647 20.5884ZM27.235 25.2942H15.4705C15.0025 25.2942 14.5536 25.4802 14.2227 25.8111C13.8917 26.142 13.7058 26.5909 13.7058 27.0589C13.7058 27.5269 13.8917 27.9758 14.2227 28.3067C14.5536 28.6377 15.0025 28.8236 15.4705 28.8236H27.235C27.703 28.8236 28.1519 28.6377 28.4828 28.3067C28.8138 27.9758 28.9997 27.5269 28.9997 27.0589C28.9997 26.5909 28.8138 26.142 28.4828 25.8111C28.1519 25.4802 27.703 25.2942 27.235 25.2942ZM27.235 27.6471H15.4705C15.3145 27.6471 15.1649 27.5852 15.0545 27.4749C14.9442 27.3645 14.8823 27.2149 14.8823 27.0589C14.8823 26.9029 14.9442 26.7533 15.0545 26.643C15.1649 26.5327 15.3145 26.4707 15.4705 26.4707H27.235C27.391 26.4707 27.5406 26.5327 27.6509 26.643C27.7613 26.7533 27.8232 26.9029 27.8232 27.0589C27.8232 27.2149 27.7613 27.3645 27.6509 27.4749C27.5406 27.5852 27.391 27.6471 27.235 27.6471ZM10.7647 25.2942C10.4157 25.2942 10.0745 25.3977 9.78428 25.5916C9.49408 25.7855 9.26789 26.0611 9.13433 26.3836C9.00076 26.7061 8.96582 27.0609 9.03391 27.4032C9.102 27.7455 9.27007 28.0599 9.51686 28.3067C9.76366 28.5535 10.0781 28.7216 10.4204 28.7897C10.7627 28.8578 11.1175 28.8228 11.44 28.6893C11.7624 28.5557 12.038 28.3295 12.232 28.0393C12.4259 27.7491 12.5294 27.4079 12.5294 27.0589C12.5288 26.591 12.3428 26.1425 12.0119 25.8117C11.6811 25.4808 11.2325 25.2948 10.7647 25.2942ZM10.7647 27.6471C10.6483 27.6471 10.5346 27.6126 10.4379 27.548C10.3411 27.4834 10.2657 27.3915 10.2212 27.284C10.1767 27.1765 10.1651 27.0583 10.1878 26.9442C10.2105 26.8301 10.2665 26.7252 10.3487 26.643C10.431 26.5607 10.5358 26.5047 10.6499 26.482C10.764 26.4593 10.8823 26.4709 10.9898 26.5155C11.0973 26.56 11.1891 26.6354 11.2538 26.7321C11.3184 26.8288 11.3529 26.9426 11.3529 27.0589C11.3528 27.2149 11.2908 27.3644 11.1805 27.4747C11.0702 27.585 10.9207 27.647 10.7647 27.6471Z" fill="url(#paint0_linear_1485_50170)"/>
<defs>
<linearGradient id="paint0_linear_1485_50170" x1="9" y1="11.1768" x2="29.2477" y2="11.4661" gradientUnits="userSpaceOnUse">
<stop stopColor="#40EDC3"/>
<stop offset="0.496174" stopColor="#7FFBA9"/>
<stop offset="1" stopColor="#D3F89A"/>
</linearGradient>
</defs>
</svg>
