<svg width="39" height="40" viewBox="0 0 39 40" fill="none" xmlns="http://www.w3.org/2000/svg">
<path d="M31.6875 40H7.3125C3.27356 40 0 36.6425 0 32.5V7.5C0 3.3575 3.27356 0 7.3125 0H31.6875C35.7264 0 39 3.3575 39 7.5V32.5C39 36.6425 35.7264 40 31.6875 40Z" fill="#000000"/>
<path d="M27.7638 9.00026C27.718 8.99887 27.6716 9.00305 27.625 9.01279C27.4233 9.05202 27.2738 9.185 27.1694 9.32842L25.2767 11.9282C25.234 11.1573 24.6112 10.5377 23.8495 10.5377H10.211C9.42189 10.5377 8.77539 11.2008 8.77539 12.0101V29.6794C8.77539 30.4888 9.42189 31.1518 10.211 31.1518H23.8495C24.6386 31.1518 25.2851 30.4888 25.2851 29.6794V18.0703L30.049 11.5263C30.1534 11.3829 30.2524 11.2011 30.2187 10.9748C30.185 10.7485 30.0409 10.6061 29.9032 10.4996L28.1816 9.1681C28.0367 9.06167 27.9013 9.00543 27.7638 9.00056V9.00026ZM27.7463 9.76091L29.4714 11.0888L28.9821 11.7604L28.9814 11.7596C28.9804 11.7589 28.9797 11.7582 28.9786 11.7568L27.2562 10.4376L27.7463 9.76091ZM26.8266 11.0285L28.5496 12.3471C28.5507 12.3482 28.5522 12.3484 28.5532 12.3498L24.3213 18.162C23.7444 17.724 23.168 17.2853 22.5919 16.8463L26.8266 11.0285ZM10.211 11.2736H12.3645V17.1648C12.367 17.4908 12.751 17.6527 12.9764 17.4229L14.5186 15.8441L16.0573 17.4229C16.2825 17.6577 16.6719 17.4942 16.672 17.1648V11.2736H23.8495C24.2534 11.2736 24.5673 11.5956 24.5673 12.0098V12.9028L21.8208 16.6752C21.7916 16.7225 21.7551 16.7733 21.743 16.8197L20.6333 20.7654C20.5444 21.0889 20.8898 21.3554 21.1682 21.1781L24.5603 19.0032L24.5673 29.6791C24.5673 30.0933 24.2534 30.4153 23.8495 30.4153H10.211C9.80714 30.4153 9.49319 30.0933 9.49319 29.6791V12.0098C9.49319 11.5956 9.80714 11.2736 10.211 11.2736H10.211ZM13.0823 11.2736H15.9542V16.2762L14.7724 15.0611C14.6321 14.917 14.4044 14.917 14.2641 15.0611L13.0823 16.2762V11.2736ZM27.2128 11.9689C27.0877 11.9772 26.9908 12.0309 26.9282 12.1184L24.3738 15.5558C24.0822 15.9474 24.6549 16.396 24.9465 16.0044L27.5002 12.5642C27.6821 12.3279 27.5257 11.9802 27.2128 11.9689ZM22.2884 17.5329C22.7781 17.9041 23.2659 18.2778 23.7542 18.6509L22.7223 19.3131L21.9666 18.6761L22.2884 17.5329ZM21.75 19.4461L22.0795 19.7251L21.5818 20.045L21.75 19.4461ZM11.9887 21.9502C11.5025 21.9856 11.5382 22.7008 12.007 22.6865H22.0557C22.5449 22.6976 22.5449 21.9391 22.0557 21.9502H11.9887ZM12.007 23.4392C11.5584 23.4462 11.5584 24.133 12.007 24.1402H19.9022C20.3507 24.1332 20.3507 23.4465 19.9022 23.4392H12.007ZM12.007 24.893C11.5177 24.8819 11.5177 25.6403 12.007 25.6292H22.0557C22.5449 25.6403 22.5449 24.8818 22.0557 24.893H12.007ZM19.9113 26.3841L11.9894 26.3848C11.5347 26.4239 11.5682 27.0902 12.007 27.083H19.9022C20.3715 27.112 20.3906 26.3805 19.9113 26.3841L19.9113 26.3841Z" fill="url(#paint0_linear_1485_50166)"/>
<defs>
<linearGradient id="paint0_linear_1485_50166" x1="8.77539" y1="9" x2="30.4926" y2="9.26514" gradientUnits="userSpaceOnUse">
<stop stopColor="#40EDC3"/>
<stop offset="0.496174" stopColor="#7FFBA9"/>
<stop offset="1" stopColor="#D3F89A"/>
</linearGradient>
</defs>
</svg>
