<svg width="39" height="40" viewBox="0 0 39 40" fill="none" xmlns="http://www.w3.org/2000/svg">
<path d="M31.6875 40.0002H7.3125C3.27356 40.0002 0 36.6427 0 32.5002V7.50018C0 3.35768 3.27356 0.000183105 7.3125 0.000183105H31.6875C35.7264 0.000183105 39 3.35768 39 7.50018V32.5002C39 36.6427 35.7264 40.0002 31.6875 40.0002Z" fill="#000000"/>
<path d="M11.2227 31H18.3984V23.1797H15.8203V20.6016H18.3984V17.3789C18.3984 15.6019 19.8441 14.1562 21.6211 14.1562H24.8438V16.7344H22.2656C21.5548 16.7344 20.9766 17.3126 20.9766 18.0234V20.6016H24.7274L24.2977 23.1797H20.9766V31H26.7773C28.5543 31 30 29.5543 30 27.7773V12.2227C30 10.4457 28.5543 9 26.7773 9H11.2227C9.44566 9 8 10.4457 8 12.2227V27.7773C8 29.5543 9.44566 31 11.2227 31ZM9.28906 12.2227C9.28906 11.1565 10.1565 10.2891 11.2227 10.2891H26.7773C27.8435 10.2891 28.7109 11.1565 28.7109 12.2227V27.7773C28.7109 28.8435 27.8435 29.7109 26.7773 29.7109H22.2656V24.4688H25.3898L26.2491 19.3125H22.2656V18.0234H26.1328V12.8672H21.6211C19.1333 12.8672 17.1094 14.8911 17.1094 17.3789V19.3125H14.5312V24.4688H17.1094V29.7109H11.2227C10.1565 29.7109 9.28906 28.8435 9.28906 27.7773V12.2227Z" fill="url(#paint0_linear_1485_50077)"/>
<defs>
<linearGradient id="paint0_linear_1485_50077" x1="8" y1="9" x2="30.2738" y2="9.28083" gradientUnits="userSpaceOnUse">
<stop stop-color="#40EDC3"/>
<stop offset="0.496174" stop-color="#7FFBA9"/>
<stop offset="1" stop-color="#D3F89A"/>
</linearGradient>
</defs>
</svg>
