<svg width="39" height="40" viewBox="0 0 39 40" fill="none" xmlns="http://www.w3.org/2000/svg">
<path d="M31.6875 40.0002H7.3125C3.27356 40.0002 0 36.6427 0 32.5002V7.50018C0 3.35768 3.27356 0.000183105 7.3125 0.000183105H31.6875C35.7264 0.000183105 39 3.35768 39 7.50018V32.5002C39 36.6427 35.7264 40.0002 31.6875 40.0002Z" fill="#000000"/>
<path d="M12.2227 31H19.3984V23.1797H16.8203V20.6016H19.3984V17.3789C19.3984 15.6019 20.8441 14.1562 22.6211 14.1562H25.8438V16.7344H23.2656C22.5548 16.7344 21.9766 17.3126 21.9766 18.0234V20.6016H25.7274L25.2977 23.1797H21.9766V31H27.7773C29.5543 31 31 29.5543 31 27.7773V12.2227C31 10.4457 29.5543 9 27.7773 9H12.2227C10.4457 9 9 10.4457 9 12.2227V27.7773C9 29.5543 10.4457 31 12.2227 31ZM10.2891 12.2227C10.2891 11.1565 11.1565 10.2891 12.2227 10.2891H27.7773C28.8435 10.2891 29.7109 11.1565 29.7109 12.2227V27.7773C29.7109 28.8435 28.8435 29.7109 27.7773 29.7109H23.2656V24.4688H26.3898L27.2491 19.3125H23.2656V18.0234H27.1328V12.8672H22.6211C20.1333 12.8672 18.1094 14.8911 18.1094 17.3789V19.3125H15.5312V24.4688H18.1094V29.7109H12.2227C11.1565 29.7109 10.2891 28.8435 10.2891 27.7773V12.2227Z" fill="url(#paint0_linear_1485_50072)"/>
<defs>
<linearGradient id="paint0_linear_1485_50072" x1="9" y1="9" x2="31.2738" y2="9.28083" gradientUnits="userSpaceOnUse">
<stop stopColor="#40EDC3"/>
<stop offset="0.496174" stopColor="#7FFBA9"/>
<stop offset="1" stopColor="#D3F89A"/>
</linearGradient>
</defs>
</svg>
