<svg width="39" height="40" viewBox="0 0 39 40" fill="none" xmlns="http://www.w3.org/2000/svg">
<path d="M31.6875 40.0002H7.3125C3.27356 40.0002 0 36.6427 0 32.5002V7.50021C0 3.35771 3.27356 0.000213623 7.3125 0.000213623H31.6875C35.7264 0.000213623 39 3.35771 39 7.50021V32.5002C39 36.6427 35.7264 40.0002 31.6875 40.0002Z" fill="#000000"/>
<g clip-path="url(#clip0_1485_49835)">
<path d="M29.3027 25.6582C29.907 24.5227 30.2254 23.2429 30.2254 21.9417C30.2254 17.7454 26.9627 14.3165 22.9025 14.1823C21.5926 11.8601 19.1439 10.2942 16.3453 10.2942C12.1712 10.2942 8.77539 13.7772 8.77539 18.0583C8.77539 19.3594 9.09379 20.6392 9.69803 21.7747L9.23858 24.6056C9.20527 24.8109 9.27063 25.02 9.41411 25.1672C9.55756 25.3143 9.7615 25.3812 9.96163 25.3472L12.7218 24.8759C13.757 25.4554 14.9152 25.7784 16.0984 25.818C17.4084 28.14 19.857 29.7057 22.6555 29.7057C23.9242 29.7057 25.1718 29.3792 26.279 28.7594L29.0392 29.2307C29.2392 29.2647 29.4432 29.1978 29.5867 29.0507C29.7302 28.9035 29.7956 28.6944 29.7622 28.4891L29.3027 25.6582ZM12.8378 23.5582C12.8034 23.5582 12.7689 23.5611 12.7346 23.567L10.6227 23.9276L10.9743 21.7616C10.9985 21.6127 10.9709 21.4598 10.8964 21.3296C10.3311 20.3413 10.0322 19.2101 10.0322 18.0583C10.0322 14.488 12.8643 11.5833 16.3453 11.5833C19.8263 11.5833 22.6584 14.488 22.6584 18.0582C22.6584 21.6285 19.8263 24.5332 16.3453 24.5332C15.2223 24.5332 14.1194 24.2267 13.1558 23.6468C13.0589 23.5885 12.949 23.5582 12.8378 23.5582ZM28.0265 25.645L28.3781 27.811L26.2662 27.4505C26.1212 27.4256 25.972 27.4539 25.845 27.5303C24.8814 28.1102 23.7785 28.4167 22.6555 28.4167C20.5509 28.4167 18.6837 27.3546 17.536 25.7259C18.056 25.6413 18.5584 25.502 19.0377 25.3143C19.1356 25.379 19.252 25.417 19.3771 25.417H25.9373C26.2843 25.417 26.5657 25.1284 26.5657 24.7725C26.5657 24.4165 26.2843 24.1279 25.9373 24.1279H21.0599C21.6025 23.6837 22.0844 23.1647 22.4908 22.5862H25.9373C26.2843 22.5862 26.5657 22.2977 26.5657 21.9417C26.5657 21.5858 26.2843 21.2972 25.9373 21.2972H23.2242C23.4439 20.8084 23.6154 20.2924 23.7326 19.7556H25.9373C26.2844 19.7556 26.5657 19.467 26.5657 19.111C26.5657 18.7551 26.2844 18.4665 25.9373 18.4665H23.9048C23.9116 18.3313 23.9152 18.1952 23.9152 18.0582C23.9152 17.1716 23.7691 16.3193 23.5011 15.525C26.5837 15.9502 28.9686 18.6655 28.9686 21.9417C28.9686 23.0936 28.6697 24.2247 28.1044 25.213C28.0299 25.3433 28.0023 25.4961 28.0265 25.645Z" fill="url(#paint0_linear_1485_49835)"/>
<path d="M15.3926 16.0344C15.3926 15.4957 15.8199 15.0574 16.3451 15.0574C16.8704 15.0574 17.2977 15.4957 17.2977 16.0344C17.2977 16.5731 16.8704 17.0114 16.3451 17.0114C15.9981 17.0114 15.7167 17.2999 15.7167 17.6559V19.5551C15.7167 19.9111 15.9981 20.1996 16.3451 20.1996C16.6922 20.1996 16.9736 19.9111 16.9736 19.5551V18.2071C17.8866 17.9287 18.5545 17.06 18.5545 16.0344C18.5545 14.7849 17.5634 13.7683 16.3451 13.7683C15.1269 13.7683 14.1357 14.7849 14.1357 16.0344C14.1357 16.3903 14.4171 16.6789 14.7642 16.6789C15.1112 16.6789 15.3926 16.3903 15.3926 16.0344Z" fill="url(#paint1_linear_1485_49835)"/>
<path d="M16.3457 21.0591C16.017 21.0591 15.7021 21.3556 15.7173 21.7037C15.7326 22.0529 15.9935 22.3482 16.3457 22.3482C16.6744 22.3482 16.9894 22.0518 16.9742 21.7037C16.9589 21.3545 16.698 21.0591 16.3457 21.0591Z" fill="url(#paint2_linear_1485_49835)"/>
</g>
<defs>
<linearGradient id="paint0_linear_1485_49835" x1="8.77539" y1="10.2942" x2="30.4916" y2="10.5968" gradientUnits="userSpaceOnUse">
<stop stop-color="#40EDC3"/>
<stop offset="0.496174" stop-color="#7FFBA9"/>
<stop offset="1" stop-color="#D3F89A"/>
</linearGradient>
<linearGradient id="paint1_linear_1485_49835" x1="14.1357" y1="13.7683" x2="18.6099" y2="13.8071" gradientUnits="userSpaceOnUse">
<stop stop-color="#40EDC3"/>
<stop offset="0.496174" stop-color="#7FFBA9"/>
<stop offset="1" stop-color="#D3F89A"/>
</linearGradient>
<linearGradient id="paint2_linear_1485_49835" x1="15.7168" y1="21.0591" x2="16.9904" y2="21.0748" gradientUnits="userSpaceOnUse">
<stop stop-color="#40EDC3"/>
<stop offset="0.496174" stop-color="#7FFBA9"/>
<stop offset="1" stop-color="#D3F89A"/>
</linearGradient>
<clipPath id="clip0_1485_49835">
<rect width="21.45" height="22" fill="white" transform="translate(8.77539 9)"/>
</clipPath>
</defs>
</svg>
