<svg width="39" height="40" viewBox="0 0 39 40" fill="none" xmlns="http://www.w3.org/2000/svg">
<path d="M31.6875 40.0002H7.3125C3.27356 40.0002 0 36.6427 0 32.5002V7.50021C0 3.35771 3.27356 0.000213623 7.3125 0.000213623H31.6875C35.7264 0.000213623 39 3.35771 39 7.50021V32.5002C39 36.6427 35.7264 40.0002 31.6875 40.0002Z" fill="#000000"/>
<path fill-rule="evenodd" clip-rule="evenodd" d="M22.2201 11.1993H11.9931C11.1397 11.1993 10.3213 11.547 9.71784 12.1659C9.1144 12.7848 8.77539 13.6242 8.77539 14.4995V25.5003C8.77489 26.2805 9.04397 27.0358 9.53486 27.6319C10.0257 28.228 10.7067 28.6264 11.4568 28.7565V29.3505C11.4568 29.7882 11.6263 30.2079 11.928 30.5173C12.2298 30.8268 12.639 31.0006 13.0657 31.0006C13.3154 31.0006 13.5618 30.941 13.7852 30.8264C14.0086 30.7119 14.2029 30.5455 14.3528 30.3406L15.479 28.8005H25.9365C26.7899 28.8005 27.6084 28.4528 28.2118 27.8339C28.8153 27.215 29.1543 26.3755 29.1543 25.5003V16.3091C29.5504 15.848 29.8479 15.3068 30.0277 14.7205C30.2075 14.1342 30.2656 13.5158 30.1981 12.9051C30.1307 12.2944 29.9393 11.705 29.6362 11.1748C29.3331 10.6446 28.9251 10.1854 28.4385 9.82674C27.9518 9.46812 27.3973 9.21804 26.8107 9.09261C26.224 8.96718 25.6183 8.96918 25.0325 9.09849C24.4466 9.2278 23.8937 9.48154 23.4093 9.84337C22.9249 10.2052 22.5198 10.6671 22.2201 11.1993ZM21.7803 12.2994H11.9931C11.4242 12.2994 10.8786 12.5312 10.4763 12.9438C10.074 13.3564 9.84796 13.916 9.84796 14.4995V25.5003C9.84796 26.0838 10.074 26.6434 10.4763 27.056C10.8786 27.4686 11.4242 27.7004 11.9931 27.7004C12.1353 27.7004 12.2717 27.7584 12.3723 27.8615C12.4729 27.9647 12.5294 28.1046 12.5294 28.2504V29.3505C12.5294 29.4964 12.5859 29.6363 12.6865 29.7395C12.787 29.8426 12.9234 29.9006 13.0657 29.9006C13.1489 29.9006 13.231 29.8807 13.3055 29.8425C13.38 29.8043 13.4448 29.7488 13.4947 29.6805L14.7818 27.9204C14.8317 27.8521 14.8965 27.7967 14.971 27.7585C15.0455 27.7203 15.1276 27.7004 15.2108 27.7004H25.9365C26.5055 27.7004 27.0511 27.4686 27.4534 27.056C27.8557 26.6434 28.0817 26.0838 28.0817 25.5003V17.2112C27.4294 17.5974 26.6895 17.8008 25.9363 17.8007C25.1831 17.8007 24.4432 17.5973 23.791 17.211C23.1387 16.8246 22.5972 16.269 22.2207 15.5999C21.8442 14.9309 21.6461 14.1719 21.6463 13.3994C21.6469 13.0285 21.6919 12.6591 21.7803 12.2994ZM18.9648 18.3498C18.6466 18.3498 18.3356 18.4466 18.071 18.6279C17.8064 18.8092 17.6002 19.0669 17.4784 19.3684C17.3567 19.6699 17.3248 20.0017 17.3869 20.3218C17.449 20.6419 17.6022 20.9359 17.8272 21.1667C18.0522 21.3975 18.3389 21.5546 18.651 21.6183C18.963 21.682 19.2865 21.6493 19.5805 21.5244C19.8745 21.3995 20.1258 21.188 20.3025 20.9166C20.4793 20.6453 20.5737 20.3262 20.5737 19.9999C20.5737 19.5622 20.4042 19.1425 20.1025 18.8331C19.8007 18.5236 19.3915 18.3498 18.9648 18.3498ZM24.3277 18.3498C24.0095 18.3498 23.6984 18.4466 23.4339 18.6279C23.1693 18.8092 22.9631 19.0669 22.8413 19.3684C22.7195 19.6699 22.6877 20.0017 22.7497 20.3218C22.8118 20.6419 22.965 20.9359 23.1901 21.1667C23.4151 21.3975 23.7017 21.5546 24.0138 21.6183C24.3259 21.682 24.6494 21.6493 24.9434 21.5244C25.2374 21.3995 25.4886 21.188 25.6654 20.9166C25.8422 20.6453 25.9365 20.3262 25.9365 19.9999C25.9365 19.5622 25.767 19.1425 25.4653 18.8331C25.1636 18.5236 24.7544 18.3498 24.3277 18.3498ZM13.602 18.3498C13.2838 18.3498 12.9727 18.4466 12.7081 18.6279C12.4436 18.8092 12.2373 19.0669 12.1156 19.3684C11.9938 19.6699 11.9619 20.0017 12.024 20.3218C12.0861 20.6419 12.2393 20.9359 12.4643 21.1667C12.6893 21.3975 12.976 21.5546 13.2881 21.6183C13.6002 21.682 13.9237 21.6493 14.2176 21.5244C14.5116 21.3995 14.7629 21.188 14.9397 20.9166C15.1165 20.6453 15.2108 20.3262 15.2108 19.9999C15.2108 19.5622 15.0413 19.1425 14.7396 18.8331C14.4379 18.5236 14.0287 18.3498 13.602 18.3498ZM18.9648 19.4498C19.0709 19.4498 19.1746 19.4821 19.2628 19.5425C19.351 19.603 19.4197 19.6889 19.4603 19.7894C19.5009 19.8899 19.5115 20.0005 19.4908 20.1072C19.4701 20.2139 19.419 20.3119 19.344 20.3888C19.269 20.4657 19.1735 20.5181 19.0695 20.5394C18.9654 20.5606 18.8576 20.5497 18.7596 20.5081C18.6616 20.4664 18.5778 20.3959 18.5189 20.3055C18.46 20.215 18.4285 20.1087 18.4285 19.9999C18.4285 19.854 18.485 19.7141 18.5856 19.611C18.6862 19.5078 18.8226 19.4498 18.9648 19.4498ZM24.3277 19.4498C24.4338 19.4498 24.5374 19.4821 24.6256 19.5425C24.7138 19.603 24.7826 19.6889 24.8232 19.7894C24.8637 19.8899 24.8744 20.0005 24.8537 20.1072C24.833 20.2139 24.7819 20.3119 24.7069 20.3888C24.6319 20.4657 24.5363 20.5181 24.4323 20.5394C24.3283 20.5606 24.2205 20.5497 24.1225 20.5081C24.0245 20.4664 23.9407 20.3959 23.8818 20.3055C23.8229 20.215 23.7914 20.1087 23.7914 19.9999C23.7914 19.854 23.8479 19.7141 23.9485 19.611C24.049 19.5078 24.1855 19.4498 24.3277 19.4498ZM13.602 19.4498C13.708 19.4498 13.8117 19.4821 13.8999 19.5425C13.9881 19.603 14.0568 19.6889 14.0974 19.7894C14.138 19.8899 14.1486 20.0005 14.1279 20.1072C14.1073 20.2139 14.0562 20.3119 13.9812 20.3888C13.9062 20.4657 13.8106 20.5181 13.7066 20.5394C13.6026 20.5606 13.4947 20.5497 13.3967 20.5081C13.2987 20.4664 13.215 20.3959 13.1561 20.3055C13.0971 20.215 13.0657 20.1087 13.0657 19.9999C13.0657 19.854 13.1222 19.7141 13.2228 19.611C13.3233 19.5078 13.4597 19.4498 13.602 19.4498ZM25.9365 10.0992C26.5729 10.0992 27.1951 10.2928 27.7242 10.6554C28.2534 11.018 28.6658 11.5335 28.9093 12.1365C29.1529 12.7395 29.2166 13.4031 29.0924 14.0433C28.9683 14.6835 28.6618 15.2715 28.2118 15.7331C27.7618 16.1946 27.1885 16.5089 26.5643 16.6363C25.9401 16.7636 25.2931 16.6982 24.7052 16.4484C24.1172 16.1987 23.6147 15.7757 23.2611 15.2329C22.9075 14.6902 22.7188 14.0522 22.7188 13.3994C22.7188 12.5242 23.0578 11.6847 23.6613 11.0658C24.2647 10.4469 25.0832 10.0992 25.9365 10.0992ZM25.9365 15.0496C26.0426 15.0496 26.1463 15.0818 26.2345 15.1423C26.3227 15.2027 26.3914 15.2886 26.432 15.3891C26.4726 15.4896 26.4832 15.6002 26.4625 15.7069C26.4418 15.8136 26.3908 15.9116 26.3158 15.9885C26.2408 16.0654 26.1452 16.1178 26.0412 16.1391C25.9371 16.1603 25.8293 16.1494 25.7313 16.1078C25.6333 16.0661 25.5496 15.9956 25.4906 15.9052C25.4317 15.8147 25.4003 15.7084 25.4003 15.5996C25.4003 15.4537 25.4568 15.3138 25.5573 15.2107C25.6579 15.1075 25.7943 15.0496 25.9365 15.0496ZM25.4861 13.8395C25.47 13.9203 25.4718 14.0038 25.4914 14.0839C25.5111 14.1639 25.548 14.2383 25.5995 14.3017C25.651 14.3651 25.7158 14.4158 25.789 14.45C25.8622 14.4843 25.9419 14.5012 26.0224 14.4995C26.147 14.4999 26.2671 14.4519 26.3586 14.3652C26.4501 14.2784 26.5063 14.1594 26.5157 14.032H26.5533C26.9044 13.94 27.2129 13.7244 27.4247 13.4227C27.6364 13.121 27.738 12.7526 27.7117 12.3819C27.6873 11.9399 27.4991 11.5243 27.1854 11.2203C26.8718 10.9162 26.4566 10.7468 26.025 10.7468C25.5935 10.7468 25.1783 10.9162 24.8646 11.2203C24.551 11.5243 24.3627 11.9399 24.3384 12.3819C24.3384 12.5278 24.3949 12.6677 24.4955 12.7708C24.5961 12.874 24.7325 12.9319 24.8747 12.9319C25.0169 12.9319 25.1533 12.874 25.2539 12.7708C25.3545 12.6677 25.411 12.5278 25.411 12.3819C25.4253 12.225 25.4962 12.0792 25.6097 11.9732C25.7233 11.8671 25.8714 11.8083 26.025 11.8083C26.1787 11.8083 26.3267 11.8671 26.4403 11.9732C26.5539 12.0792 26.6248 12.225 26.6391 12.3819C26.6546 12.5228 26.6163 12.6645 26.5324 12.7772C26.4484 12.89 26.3253 12.9651 26.1886 12.9869C26.0126 13.0197 25.8515 13.1096 25.7289 13.2432C25.6063 13.3768 25.5287 13.5473 25.5075 13.7295C25.5075 13.7295 25.5075 13.7845 25.5075 13.8395H25.4861Z" fill="url(#paint0_linear_1485_49831)"/>
<defs>
<linearGradient id="paint0_linear_1485_49831" x1="8.77539" y1="9" x2="30.4925" y2="9.26696" gradientUnits="userSpaceOnUse">
<stop stop-color="#40EDC3"/>
<stop offset="0.496174" stop-color="#7FFBA9"/>
<stop offset="1" stop-color="#D3F89A"/>
</linearGradient>
</defs>
</svg>
