<svg width="39" height="40" viewBox="0 0 39 40" fill="none" xmlns="http://www.w3.org/2000/svg">
<path d="M31.6875 40.0002H7.3125C3.27356 40.0002 0 36.6427 0 32.5002V7.50021C0 3.35771 3.27356 0.000213623 7.3125 0.000213623H31.6875C35.7264 0.000213623 39 3.35771 39 7.50021V32.5002C39 36.6427 35.7264 40.0002 31.6875 40.0002Z" fill="#000000"/>
<path d="M29.9106 29.247H28.4636V23.2044C28.4636 23.0261 28.3227 22.8815 28.1488 22.8815C27.9749 22.8815 27.834 23.0261 27.834 23.2044V29.247H25.3821V18.6186C25.3821 18.5592 25.4291 18.5109 25.487 18.5109H27.729C27.7869 18.5109 27.834 18.5592 27.834 18.6186V21.9128C27.834 22.0912 27.9749 22.2357 28.1488 22.2357C28.3227 22.2357 28.4636 22.0912 28.4636 21.9128V18.6186C28.4636 18.2032 28.1341 17.8651 27.729 17.8651H25.487C25.082 17.8651 24.7524 18.2032 24.7524 18.6186V29.2471H23.7252V20.9685C23.7252 20.5531 23.3956 20.2151 22.9906 20.2151H20.7486C20.3435 20.2151 20.014 20.5531 20.014 20.9685V29.2471H18.9868V23.3184C18.9868 22.903 18.6573 22.565 18.2522 22.565H16.0101C15.6051 22.565 15.2755 22.903 15.2755 23.3184V26.1419C15.2755 26.3202 15.4165 26.4648 15.5904 26.4648C15.7642 26.4648 15.9052 26.3202 15.9052 26.1419V23.3184C15.9052 23.259 15.9523 23.2108 16.0101 23.2108H18.2522C18.3101 23.2108 18.3571 23.259 18.3571 23.3184V29.247H15.9052V27.4335C15.9052 27.2551 15.7642 27.1106 15.5904 27.1106C15.4165 27.1106 15.2755 27.2551 15.2755 27.4335V29.247H14.2483V25.6683C14.2483 25.2529 13.9188 24.9149 13.5137 24.9149H11.2717C10.8667 24.9149 10.5371 25.2529 10.5371 25.6683V29.247H9.09021C8.91635 29.247 8.77539 29.3916 8.77539 29.5699C8.77539 29.7482 8.91635 29.8928 9.09021 29.8928H29.9106C30.0844 29.8928 30.2254 29.7482 30.2254 29.5699C30.2254 29.3916 30.0844 29.247 29.9106 29.247ZM20.6436 20.9685C20.6436 20.9092 20.6907 20.8608 20.7486 20.8608H22.9906C23.0485 20.8608 23.0956 20.9092 23.0956 20.9685V29.2471H20.6436V20.9685ZM11.1668 25.6683C11.1668 25.609 11.2139 25.5607 11.2717 25.5607H13.5138C13.5717 25.5607 13.6187 25.609 13.6187 25.6683V29.247H11.1668V25.6683Z" fill="url(#paint0_linear_1485_49925)"/>
<path d="M12.1381 21.0602C12.1553 21.0602 12.1727 21.0596 12.1902 21.0584C14.512 20.893 16.6953 20.3733 18.6796 19.5137C21.3515 18.3563 23.5634 16.6116 25.2585 14.3255L26.3196 15.0822C26.5287 15.242 26.8472 15.0499 26.8126 14.7848L26.3728 10.2915C26.3585 10.0996 26.1606 9.95842 25.9802 10.0112L21.7163 11.1502C21.4618 11.2091 21.3969 11.5824 21.6159 11.7278L22.6867 12.4914C22.4736 12.8347 22.0043 13.5154 21.1858 14.3481C21.0624 14.4737 21.0616 14.6781 21.184 14.8047C21.3065 14.9313 21.5058 14.9321 21.6292 14.8066C22.8909 13.5229 23.3673 12.5844 23.3869 12.5451C23.4588 12.4012 23.4159 12.2249 23.2865 12.1326L22.5372 11.5983L25.7831 10.7313L26.1179 14.1517L25.368 13.6169C25.2275 13.5168 25.035 13.5499 24.934 13.6915C23.2845 16.0064 21.0977 17.7652 18.4346 18.9188C16.0429 19.9548 13.695 20.3038 12.1466 20.4141C12.0562 20.4379 12.0287 20.2675 12.1188 20.2576C15.5682 19.1658 18.449 17.631 20.681 15.6958C20.8138 15.5806 20.8304 15.3769 20.7182 15.2407C20.606 15.1046 20.4073 15.0874 20.2745 15.2026C18.1076 17.0814 15.3012 18.5745 11.9332 19.6405C11.5835 19.7512 11.3782 20.0991 11.4452 20.4677C11.5089 20.8183 11.7959 21.0602 12.1381 21.0602Z" fill="url(#paint1_linear_1485_49925)"/>
<defs>
<linearGradient id="paint0_linear_1485_49925" x1="8.77539" y1="17.8651" x2="30.4849" y2="18.3533" gradientUnits="userSpaceOnUse">
<stop stop-color="#40EDC3"/>
<stop offset="0.496174" stop-color="#7FFBA9"/>
<stop offset="1" stop-color="#D3F89A"/>
</linearGradient>
<linearGradient id="paint1_linear_1485_49925" x1="11.4326" y1="10.0001" x2="27.0043" y2="10.2731" gradientUnits="userSpaceOnUse">
<stop stop-color="#40EDC3"/>
<stop offset="0.496174" stop-color="#7FFBA9"/>
<stop offset="1" stop-color="#D3F89A"/>
</linearGradient>
</defs>
</svg>
