<svg width="39" height="40" viewBox="0 0 39 40" fill="none" xmlns="http://www.w3.org/2000/svg">
<path d="M31.6875 40.0002H7.3125C3.27356 40.0002 0 36.6427 0 32.5002V7.50018C0 3.35768 3.27356 0.000183105 7.3125 0.000183105H31.6875C35.7264 0.000183105 39 3.35768 39 7.50018V32.5002C39 36.6427 35.7264 40.0002 31.6875 40.0002Z" fill="#000000"/>
<path d="M30.8052 13.9201H15.3366C14.6776 13.9201 14.1416 14.4562 14.1416 15.1151V24.8847C14.1416 25.5437 14.6777 26.0797 15.3366 26.0797H30.8052C31.4642 26.0797 32.0002 25.5436 32.0002 24.8847V15.1152C32.0002 14.4562 31.4641 13.9201 30.8052 13.9201ZM15.3366 14.6818H30.8052C30.9868 14.6818 31.1423 14.7942 31.2067 14.9529L24.5258 20.1252C23.6692 20.7884 22.4725 20.7884 21.6159 20.1252L14.9351 14.9529C14.9994 14.7943 15.155 14.6818 15.3366 14.6818ZM31.2385 24.1082L26.9677 20.8018C26.8014 20.673 26.5621 20.7035 26.4334 20.8698C26.3046 21.0361 26.335 21.2753 26.5014 21.4041L31.2066 25.0469C31.1423 25.2057 30.9868 25.3181 30.8052 25.3181H15.3366C15.155 25.3181 14.9994 25.2057 14.9351 25.047L19.6404 21.4041C19.8067 21.2754 19.8372 21.0361 19.7084 20.8698C19.5796 20.7035 19.3404 20.673 19.1741 20.8018L14.9033 24.1082V15.8917L21.1496 20.7275C21.7152 21.1654 22.393 21.3844 23.0708 21.3844C23.7487 21.3844 24.4265 21.1654 24.9921 20.7275L31.2385 15.8917V24.1082Z" fill="url(#paint0_linear_1485_49999)" stroke="url(#paint1_linear_1485_49999)" strokeWidth="0.5"/>
<path d="M12.8946 20.84H8.00977C7.79943 20.84 7.62891 21.0105 7.62891 21.2208C7.62891 21.4312 7.79943 21.6017 8.00977 21.6017H12.8946C13.105 21.6017 13.2755 21.4312 13.2755 21.2208C13.2755 21.0105 13.105 20.84 12.8946 20.84Z" fill="url(#paint2_linear_1485_49999)" stroke="url(#paint3_linear_1485_49999)" strokeWidth="0.5"/>
<path d="M12.894 22.8755H6.38086C6.17052 22.8755 6 23.046 6 23.2563C6 23.4667 6.17052 23.6372 6.38086 23.6372H12.894C13.1043 23.6372 13.2748 23.4667 13.2748 23.2563C13.2748 23.046 13.1043 22.8755 12.894 22.8755Z" fill="url(#paint4_linear_1485_49999)" stroke="url(#paint5_linear_1485_49999)" strokeWidth="0.5"/>
<path d="M12.8933 18.8049H9.63672C9.42638 18.8049 9.25586 18.9755 9.25586 19.1858C9.25586 19.3961 9.42638 19.5667 9.63672 19.5667H12.8933C13.1036 19.5667 13.2741 19.3961 13.2741 19.1858C13.2741 18.9754 13.1036 18.8049 12.8933 18.8049Z" fill="url(#paint6_linear_1485_49999)" stroke="url(#paint7_linear_1485_49999)" strokeWidth="0.5"/>
<path d="M12.8939 16.7698H11.2656C11.0553 16.7698 10.8848 16.9404 10.8848 17.1507C10.8848 17.361 11.0553 17.5316 11.2656 17.5316H12.8939C13.1043 17.5316 13.2748 17.361 13.2748 17.1507C13.2748 16.9404 13.1043 16.7698 12.8939 16.7698Z" fill="url(#paint8_linear_1485_49999)" stroke="url(#paint9_linear_1485_49999)" strokeWidth="0.5"/>
<defs>
<linearGradient id="paint0_linear_1485_49999" x1="14.1416" y1="13.9201" x2="32.2192" y2="14.2548" gradientUnits="userSpaceOnUse">
<stop stop-color="#40EDC3"/>
<stop offset="0.496174" stop-color="#7FFBA9"/>
<stop offset="1" stop-color="#D3F89A"/>
</linearGradient>
<linearGradient id="paint1_linear_1485_49999" x1="14.1416" y1="13.9201" x2="32.2192" y2="14.2548" gradientUnits="userSpaceOnUse">
<stop stop-color="#40EDC3"/>
<stop offset="0.496174" stop-color="#7FFBA9"/>
<stop offset="1" stop-color="#D3F89A"/>
</linearGradient>
<linearGradient id="paint2_linear_1485_49999" x1="7.62891" y1="20.84" x2="13.2972" y2="21.3697" gradientUnits="userSpaceOnUse">
<stop stop-color="#40EDC3"/>
<stop offset="0.496174" stop-color="#7FFBA9"/>
<stop offset="1" stop-color="#D3F89A"/>
</linearGradient>
<linearGradient id="paint3_linear_1485_49999" x1="7.62891" y1="20.84" x2="13.2972" y2="21.3697" gradientUnits="userSpaceOnUse">
<stop stop-color="#40EDC3"/>
<stop offset="0.496174" stop-color="#7FFBA9"/>
<stop offset="1" stop-color="#D3F89A"/>
</linearGradient>
<linearGradient id="paint4_linear_1485_49999" x1="6" y1="22.8755" x2="13.2613" y2="23.7498" gradientUnits="userSpaceOnUse">
<stop stop-color="#40EDC3"/>
<stop offset="0.496174" stop-color="#7FFBA9"/>
<stop offset="1" stop-color="#D3F89A"/>
</linearGradient>
<linearGradient id="paint5_linear_1485_49999" x1="6" y1="22.8755" x2="13.2613" y2="23.7498" gradientUnits="userSpaceOnUse">
<stop stop-color="#40EDC3"/>
<stop offset="0.496174" stop-color="#7FFBA9"/>
<stop offset="1" stop-color="#D3F89A"/>
</linearGradient>
<linearGradient id="paint6_linear_1485_49999" x1="9.25586" y1="18.8049" x2="13.3069" y2="19.0744" gradientUnits="userSpaceOnUse">
<stop stop-color="#40EDC3"/>
<stop offset="0.496174" stop-color="#7FFBA9"/>
<stop offset="1" stop-color="#D3F89A"/>
</linearGradient>
<linearGradient id="paint7_linear_1485_49999" x1="9.25586" y1="18.8049" x2="13.3069" y2="19.0744" gradientUnits="userSpaceOnUse">
<stop stop-color="#40EDC3"/>
<stop offset="0.496174" stop-color="#7FFBA9"/>
<stop offset="1" stop-color="#D3F89A"/>
</linearGradient>
<linearGradient id="paint8_linear_1485_49999" x1="10.8848" y1="16.7698" x2="13.3011" y2="16.8654" gradientUnits="userSpaceOnUse">
<stop stop-color="#40EDC3"/>
<stop offset="0.496174" stop-color="#7FFBA9"/>
<stop offset="1" stop-color="#D3F89A"/>
</linearGradient>
<linearGradient id="paint9_linear_1485_49999" x1="10.8848" y1="16.7698" x2="13.3011" y2="16.8654" gradientUnits="userSpaceOnUse">
<stop stop-color="#40EDC3"/>
<stop offset="0.496174" stop-color="#7FFBA9"/>
<stop offset="1" stop-color="#D3F89A"/>
</linearGradient>
</defs>
</svg>
