<svg width="39" height="40" viewBox="0 0 39 40" fill="none" xmlns="http://www.w3.org/2000/svg">
<path d="M31.6875 40.0002H7.3125C3.27356 40.0002 0 36.6427 0 32.5002V7.50018C0 3.35768 3.27356 0.000183105 7.3125 0.000183105H31.6875C35.7264 0.000183105 39 3.35768 39 7.50018V32.5002C39 36.6427 35.7264 40.0002 31.6875 40.0002Z" fill="#000000"/>
<g clip-path="url(#clip0_1485_50082)">
<path d="M29.4556 23.977L22.5364 11.9924C20.9765 9.2905 17.0166 9.30247 15.4636 11.9924L8.54428 23.977C6.98843 26.6717 8.95971 30.0295 12.0312 30.0295C13.4109 30.0295 14.7742 29.322 15.5312 28.0108L19 22.0026L22.4688 28.0108C23.2246 29.3199 24.5869 30.0295 25.9688 30.0295C29.0381 30.0295 31.0123 26.6732 29.4556 23.977ZM14.3066 27.3038C13.6959 28.3617 12.4544 28.8407 11.3112 28.5119C9.66945 28.0349 8.92347 26.1479 9.76874 24.6839C10.4927 23.4299 12.0934 23.0008 13.3477 23.7249C14.6017 24.4489 15.0308 26.0497 14.3066 27.3038ZM15.8397 24.6486C15.1811 22.778 13.2533 21.6633 11.3018 22.0287L15.2084 15.2624C15.3824 15.7945 15.2602 15.5251 18.1837 20.5888L15.8397 24.6486ZM27.2722 28.2628C26.0183 28.9869 24.4173 28.558 23.6933 27.3038L16.774 15.3193C15.4537 13.0324 17.9989 10.4307 20.267 11.7404C21.1157 12.2304 20.8822 11.9551 28.2312 24.6839C28.9535 25.935 28.5233 27.5405 27.2722 28.2628Z" fill="url(#paint0_linear_1485_50082)"/>
</g>
<defs>
<linearGradient id="paint0_linear_1485_50082" x1="8" y1="9.97046" x2="30.2731" y2="10.2785" gradientUnits="userSpaceOnUse">
<stop stop-color="#40EDC3"/>
<stop offset="0.496174" stop-color="#7FFBA9"/>
<stop offset="1" stop-color="#D3F89A"/>
</linearGradient>
<clipPath id="clip0_1485_50082">
<rect width="22" height="22" fill="white" transform="translate(8 9)"/>
</clipPath>
</defs>
</svg>
