<svg width="39" height="40" viewBox="0 0 39 40" fill="none" xmlns="http://www.w3.org/2000/svg">
<path d="M31.6875 40H7.3125C3.27356 40 0 36.6425 0 32.5V7.5C0 3.3575 3.27356 0 7.3125 0H31.6875C35.7264 0 39 3.3575 39 7.5V32.5C39 36.6425 35.7264 40 31.6875 40Z" fill="#000000"/>
<path d="M27.5294 10H11.4714L8.77539 17.9151V18.6689C8.77539 19.7225 9.26945 20.6598 10.0322 21.2505V29.4219H28.9686V21.2505C29.7313 20.6598 30.2254 19.7225 30.2254 18.6689V17.9151L27.5294 10ZM28.7118 17.3799H25.0768L24.0395 11.2891H26.6372L28.7118 17.3799ZM10.0322 18.6689H13.8237C13.8237 19.7411 12.9733 20.6133 11.928 20.6133C10.8826 20.6133 10.0322 19.7411 10.0322 18.6689ZM18.872 18.6689C18.872 19.7411 18.0216 20.6133 16.9762 20.6133C15.9309 20.6133 15.0805 19.7411 15.0805 18.6689H18.872ZM15.1998 17.3799L16.2371 11.2891H18.872V17.3799H15.1998ZM20.1288 17.3799V11.2891H22.7637L23.801 17.3799H20.1288ZM23.9203 18.6689C23.9203 19.7411 23.0698 20.6133 22.0245 20.6133C20.9792 20.6133 20.1288 19.7411 20.1288 18.6689H23.9203ZM12.3636 11.2891H14.9612L13.9239 17.3799H10.289L12.3636 11.2891ZM27.7117 28.1328H11.2891V21.8355C11.4954 21.8793 11.7091 21.9023 11.928 21.9023C12.9594 21.9023 13.8766 21.3917 14.4521 20.604C15.0276 21.3917 15.9448 21.9023 16.9762 21.9023C18.0076 21.9023 18.9249 21.3917 19.5004 20.604C20.0759 21.3917 20.9931 21.9023 22.0245 21.9023C23.0559 21.9023 23.9732 21.3917 24.5487 20.604C25.1242 21.3917 26.0414 21.9023 27.0728 21.9023C27.2917 21.9023 27.5053 21.8793 27.7117 21.8355V28.1328ZM27.0728 20.6133C26.0275 20.6133 25.1771 19.7411 25.1771 18.6689H28.9686C28.9686 19.7411 28.1181 20.6133 27.0728 20.6133Z" fill="url(#paint0_linear_1485_49646)"/>
<defs>
<linearGradient id="paint0_linear_1485_49646" x1="8.77539" y1="10" x2="30.4916" y2="10.3024" gradientUnits="userSpaceOnUse">
<stop stopColor="#40EDC3"/>
<stop offset="0.496174" stopColor="#7FFBA9"/>
<stop offset="1" stopColor="#D3F89A"/>
</linearGradient>
</defs>
</svg>
