<svg width="39" height="40" viewBox="0 0 39 40" fill="none" xmlns="http://www.w3.org/2000/svg">
<path d="M31.6875 40.0002H7.3125C3.27356 40.0002 0 36.6427 0 32.5002V7.50018C0 3.35768 3.27356 0.000183105 7.3125 0.000183105H31.6875C35.7264 0.000183105 39 3.35768 39 7.50018V32.5002C39 36.6427 35.7264 40.0002 31.6875 40.0002Z" fill="#000000"/>
<g clip-path="url(#clip0_1485_50159)">
<path d="M29.9995 13.4858L25.8103 9.1888C25.6924 9.06789 25.5325 9 25.3659 9H15.73C14.6905 9 13.8447 9.86741 13.8447 10.9336V19.4344C11.0208 19.7561 8.81738 22.2185 8.81738 25.1992C8.81738 28.3978 11.3546 31 14.4731 31H28.2983C29.3379 31 30.1836 30.1326 30.1836 29.0664V13.9415C30.1836 13.7706 30.1174 13.6067 29.9995 13.4858ZM25.9941 11.2006L27.3595 12.601L28.038 13.2969H25.9941V11.2006ZM10.0742 25.1992C10.0742 22.7115 12.0476 20.6875 14.4731 20.6875C16.8987 20.6875 18.8721 22.7115 18.8721 25.1992C18.8721 27.687 16.8987 29.7109 14.4731 29.7109C12.0476 29.7109 10.0742 27.687 10.0742 25.1992ZM28.2983 29.7109H18.0237C19.1533 28.774 19.9252 27.401 20.0938 25.8438H26.6226C26.9696 25.8438 27.251 25.5552 27.251 25.1992C27.251 24.8433 26.9696 24.5547 26.6226 24.5547H20.0938C19.9913 23.6085 19.6663 22.7303 19.1735 21.9766H26.6226C26.9696 21.9766 27.251 21.688 27.251 21.332C27.251 20.9761 26.9696 20.6875 26.6226 20.6875H18.0237C17.2058 20.0092 16.2008 19.5597 15.1016 19.4344V10.9336C15.1016 10.5782 15.3835 10.2891 15.73 10.2891H24.7373V13.9414C24.7373 14.2974 25.0187 14.5859 25.3657 14.5859H28.9268V29.0664C28.9268 29.4218 28.6448 29.7109 28.2983 29.7109Z" fill="url(#paint0_linear_1485_50159)"/>
<path d="M26.6226 16.8203H17.4058C17.0587 16.8203 16.7773 17.1089 16.7773 17.4648C16.7773 17.8208 17.0587 18.1094 17.4058 18.1094H26.6226C26.9696 18.1094 27.251 17.8208 27.251 17.4648C27.251 17.1089 26.9696 16.8203 26.6226 16.8203Z" fill="url(#paint1_linear_1485_50159)"/>
<path d="M16.9702 23.5833C16.7249 23.3317 16.3269 23.3317 16.0815 23.5833L13.5933 26.1354L12.7808 25.3021C12.5354 25.0504 12.1375 25.0504 11.8921 25.3021C11.6467 25.5537 11.6467 25.9618 11.8921 26.2135L13.1489 27.5026C13.2716 27.6285 13.4324 27.6914 13.5933 27.6914C13.7541 27.6914 13.9149 27.6285 14.0376 27.5026L16.9702 24.4948C17.2157 24.2431 17.2157 23.835 16.9702 23.5833Z" fill="url(#paint2_linear_1485_50159)"/>
</g>
<defs>
<linearGradient id="paint0_linear_1485_50159" x1="8.81738" y1="9" x2="30.4497" y2="9.26488" gradientUnits="userSpaceOnUse">
<stop stopColor="#40EDC3"/>
<stop offset="0.496174" stopColor="#7FFBA9"/>
<stop offset="1" stopColor="#D3F89A"/>
</linearGradient>
<linearGradient id="paint1_linear_1485_50159" x1="16.7773" y1="16.8203" x2="27.2729" y2="17.8955" gradientUnits="userSpaceOnUse">
<stop stopColor="#40EDC3"/>
<stop offset="0.496174" stopColor="#7FFBA9"/>
<stop offset="1" stopColor="#D3F89A"/>
</linearGradient>
<linearGradient id="paint2_linear_1485_50159" x1="11.708" y1="23.3946" x2="17.2216" y2="23.4827" gradientUnits="userSpaceOnUse">
<stop stopColor="#40EDC3"/>
<stop offset="0.496174" stopColor="#7FFBA9"/>
<stop offset="1" stopColor="#D3F89A"/>
</linearGradient>
<clipPath id="clip0_1485_50159">
<rect width="21.45" height="22" fill="white" transform="translate(8.77539 9)"/>
</clipPath>
</defs>
</svg>
