<svg width="39" height="40" viewBox="0 0 39 40" fill="none" xmlns="http://www.w3.org/2000/svg">
<path d="M31.6875 40H7.3125C3.27356 40 0 36.6425 0 32.5V7.5C0 3.3575 3.27356 0 7.3125 0H31.6875C35.7264 0 39 3.3575 39 7.5V32.5C39 36.6425 35.7264 40 31.6875 40Z" fill="#000000"/>
<path d="M12.9884 20.2143C13.09 20.2143 13.1874 20.1729 13.2593 20.0992C13.3311 20.0255 13.3715 19.9256 13.3715 19.8214C13.3715 19.7172 13.3311 19.6173 13.2593 19.5436C13.1874 19.47 13.09 19.4286 12.9884 19.4286H11.4563C11.3547 19.4286 11.2573 19.47 11.1854 19.5436C11.1136 19.6173 11.0732 19.7172 11.0732 19.8214V22.1786C11.0732 22.2828 11.1136 22.3827 11.1854 22.4564C11.2573 22.53 11.3547 22.5714 11.4563 22.5714H12.9884C13.09 22.5714 13.1874 22.53 13.2593 22.4564C13.3311 22.3827 13.3715 22.2828 13.3715 22.1786C13.3715 22.0744 13.3311 21.9745 13.2593 21.9008C13.1874 21.8271 13.09 21.7857 12.9884 21.7857H11.8393V20.2143H12.9884Z" fill="url(#paint0_linear_1485_49619)"/>
<path d="M26.0119 21.7857C25.9104 21.7857 25.8129 21.8271 25.7411 21.9008C25.6693 21.9745 25.6289 22.0744 25.6289 22.1786C25.6289 22.2828 25.6693 22.3827 25.7411 22.4564C25.8129 22.53 25.9104 22.5714 26.0119 22.5714H27.5441C27.6457 22.5714 27.7431 22.53 27.8149 22.4564C27.8868 22.3827 27.9271 22.2828 27.9271 22.1786V19.8214C27.9271 19.7172 27.8868 19.6173 27.8149 19.5436C27.7431 19.47 27.6457 19.4286 27.5441 19.4286H26.0119C25.9104 19.4286 25.8129 19.47 25.7411 19.5436C25.6693 19.6173 25.6289 19.7172 25.6289 19.8214C25.6289 19.9256 25.6693 20.0255 25.7411 20.0992C25.8129 20.1729 25.9104 20.2143 26.0119 20.2143H27.1611V21.7857H26.0119Z" fill="url(#paint1_linear_1485_49619)"/>
<path d="M17.2024 19.0357H21.7988C21.9004 19.0357 21.9978 18.9943 22.0696 18.9207C22.1415 18.847 22.1818 18.747 22.1818 18.6429C22.1818 18.5387 22.1415 18.4387 22.0696 18.3651C21.9978 18.2914 21.9004 18.25 21.7988 18.25H17.2024C17.1008 18.25 17.0034 18.2914 16.9315 18.3651C16.8597 18.4387 16.8193 18.5387 16.8193 18.6429C16.8193 18.747 16.8597 18.847 16.9315 18.9207C17.0034 18.9943 17.1008 19.0357 17.2024 19.0357Z" fill="url(#paint2_linear_1485_49619)"/>
<path d="M18.351 21.7857C18.351 21.6815 18.3106 21.5816 18.2388 21.5079C18.1669 21.4342 18.0695 21.3929 17.9679 21.3929H16.4358C16.3342 21.3929 16.2368 21.4342 16.1649 21.5079C16.0931 21.5816 16.0527 21.6815 16.0527 21.7857C16.0527 21.8899 16.0931 21.9898 16.1649 22.0635C16.2368 22.1372 16.3342 22.1786 16.4358 22.1786H17.9679C18.0695 22.1786 18.1669 22.1372 18.2388 22.0635C18.3106 21.9898 18.351 21.8899 18.351 21.7857Z" fill="url(#paint3_linear_1485_49619)"/>
<path d="M19.5006 22.9643H17.2024C17.1008 22.9643 17.0034 23.0057 16.9315 23.0794C16.8597 23.153 16.8193 23.253 16.8193 23.3572C16.8193 23.4613 16.8597 23.5613 16.9315 23.6349C17.0034 23.7086 17.1008 23.75 17.2024 23.75H19.5006C19.6022 23.75 19.6996 23.7086 19.7714 23.6349C19.8433 23.5613 19.8836 23.4613 19.8836 23.3572C19.8836 23.253 19.8433 23.153 19.7714 23.0794C19.6996 23.0057 19.6022 22.9643 19.5006 22.9643Z" fill="url(#paint4_linear_1485_49619)"/>
<path d="M21.7985 22.9643H21.0325C20.9309 22.9643 20.8334 23.0057 20.7616 23.0794C20.6898 23.153 20.6494 23.253 20.6494 23.3572C20.6494 23.4613 20.6898 23.5613 20.7616 23.6349C20.8334 23.7086 20.9309 23.75 21.0325 23.75H21.7985C21.9001 23.75 21.9975 23.7086 22.0694 23.6349C22.1412 23.5613 22.1816 23.4613 22.1816 23.3572C22.1816 23.253 22.1412 23.153 22.0694 23.0794C21.9975 23.0057 21.9001 22.9643 21.7985 22.9643Z" fill="url(#paint5_linear_1485_49619)"/>
<path d="M22.9475 21.7857C22.9475 21.6815 22.9072 21.5816 22.8354 21.5079C22.7635 21.4342 22.6661 21.3929 22.5645 21.3929H19.5002C19.3986 21.3929 19.3012 21.4342 19.2294 21.5079C19.1575 21.5816 19.1172 21.6815 19.1172 21.7857C19.1172 21.8899 19.1575 21.9898 19.2294 22.0635C19.3012 22.1372 19.3986 22.1786 19.5002 22.1786H22.5645C22.6661 22.1786 22.7635 22.1372 22.8354 22.0635C22.9072 21.9898 22.9475 21.8899 22.9475 21.7857Z" fill="url(#paint6_linear_1485_49619)"/>
<path d="M20.6494 20.2143C20.6494 20.3185 20.6898 20.4184 20.7616 20.4921C20.8334 20.5658 20.9309 20.6071 21.0325 20.6071H22.5646C22.6662 20.6071 22.7636 20.5658 22.8354 20.4921C22.9073 20.4184 22.9476 20.3185 22.9476 20.2143C22.9476 20.1101 22.9073 20.0102 22.8354 19.9365C22.7636 19.8628 22.6662 19.8214 22.5646 19.8214H21.0325C20.9309 19.8214 20.8334 19.8628 20.7616 19.9365C20.6898 20.0102 20.6494 20.1101 20.6494 20.2143Z" fill="url(#paint7_linear_1485_49619)"/>
<path d="M16.4358 20.6071H19.5001C19.6016 20.6071 19.6991 20.5658 19.7709 20.4921C19.8427 20.4184 19.8831 20.3185 19.8831 20.2143C19.8831 20.1101 19.8427 20.0102 19.7709 19.9365C19.6991 19.8628 19.6016 19.8214 19.5001 19.8214H16.4358C16.3342 19.8214 16.2368 19.8628 16.1649 19.9365C16.0931 20.0102 16.0527 20.1101 16.0527 20.2143C16.0527 20.3185 16.0931 20.4184 16.1649 20.4921C16.2368 20.5658 16.3342 20.6071 16.4358 20.6071Z" fill="url(#paint8_linear_1485_49619)"/>
<path d="M24.7517 24.6498C24.6931 24.5919 24.6182 24.5546 24.5376 24.5433C24.457 24.532 24.375 24.5472 24.3035 24.5869L23.886 24.143C24.6545 23.0158 24.9834 21.6342 24.8077 20.2707C24.6321 18.9071 23.9647 17.6605 22.9371 16.7768C21.9095 15.893 20.5964 15.4361 19.2567 15.4963C17.9169 15.5566 16.6478 16.1294 15.6996 17.102C14.7513 18.0746 14.1928 19.3762 14.1341 20.7503C14.0754 22.1244 14.5208 23.4712 15.3824 24.5251C16.2441 25.579 17.4595 26.2635 18.789 26.4437C20.1185 26.6238 21.4655 26.2866 22.5645 25.4983L22.9859 25.9266C22.9472 25.9999 22.9323 26.084 22.9433 26.1666C22.9543 26.2493 22.9907 26.3262 23.0471 26.3862L26.64 30.0712C26.8073 30.2454 27.0213 30.3645 27.2549 30.4133C27.4884 30.4621 27.7309 30.4383 27.9512 30.3452C28.1716 30.252 28.3598 30.0936 28.492 29.8901C28.6241 29.6867 28.6941 29.4474 28.6931 29.203C28.6941 29.0418 28.6638 28.882 28.604 28.7329C28.5441 28.5839 28.4559 28.4485 28.3445 28.3348L24.7517 24.6498ZM14.9038 21.0001C14.9038 20.0677 15.1734 19.1563 15.6784 18.381C16.1835 17.6058 16.9014 17.0015 17.7413 16.6447C18.5811 16.2879 19.5053 16.1945 20.397 16.3764C21.2886 16.5583 22.1076 17.0073 22.7504 17.6666C23.3932 18.3259 23.831 19.1659 24.0083 20.0804C24.1857 20.9949 24.0947 21.9428 23.7468 22.8042C23.3989 23.6656 22.8098 24.4019 22.0539 24.9199C21.298 25.4379 20.4093 25.7144 19.5002 25.7144C18.2812 25.7144 17.1121 25.2177 16.2501 24.3336C15.3881 23.4495 14.9038 22.2504 14.9038 21.0001ZM23.3957 24.7676L23.7481 25.1251L23.5221 25.3569L23.1735 24.9955L23.3957 24.7676ZM27.498 29.643C27.4417 29.6432 27.3859 29.6319 27.3339 29.6096C27.2819 29.5873 27.2349 29.5546 27.1954 29.5133L23.8707 26.1073L24.4797 25.4826L27.8006 28.8926C27.8603 28.9542 27.9009 29.0324 27.9174 29.1176C27.9338 29.2027 27.9253 29.291 27.893 29.3712C27.8606 29.4514 27.8059 29.52 27.7356 29.5683C27.6653 29.6167 27.5827 29.6427 27.498 29.643Z" fill="url(#paint9_linear_1485_49619)"/>
<path d="M29.8424 10H9.15843C9.05684 10 8.95941 10.0414 8.88758 10.1151C8.81575 10.1887 8.77539 10.2887 8.77539 10.3929V28.4643C8.77539 28.5685 8.81575 28.6684 8.88758 28.7421C8.95941 28.8158 9.05684 28.8571 9.15843 28.8571H23.3307C23.4323 28.8571 23.5298 28.8158 23.6016 28.7421C23.6734 28.6684 23.7138 28.5685 23.7138 28.4643C23.7138 28.3601 23.6734 28.2602 23.6016 28.1865C23.5298 28.1128 23.4323 28.0714 23.3307 28.0714H9.54146V13.9286H29.4593V28.4643C29.4593 28.5685 29.4997 28.6684 29.5715 28.7421C29.6433 28.8158 29.7408 28.8571 29.8424 28.8571C29.9439 28.8571 30.0414 28.8158 30.1132 28.7421C30.185 28.6684 30.2254 28.5685 30.2254 28.4643V10.3929C30.2254 10.2887 30.185 10.1887 30.1132 10.1151C30.0414 10.0414 29.9439 10 29.8424 10ZM9.54146 10.7857H14.904V13.1429H9.54146V10.7857ZM15.67 13.1429V10.7857H29.4593V13.1429H15.67Z" fill="url(#paint10_linear_1485_49619)"/>
<path d="M10.6907 11.5714C10.6149 11.5714 10.5408 11.5945 10.4778 11.6376C10.4149 11.6808 10.3658 11.7422 10.3368 11.8139C10.3078 11.8857 10.3002 11.9647 10.315 12.0409C10.3298 12.1171 10.3662 12.1871 10.4198 12.2421C10.4734 12.297 10.5416 12.3344 10.6159 12.3496C10.6902 12.3648 10.7672 12.357 10.8372 12.3272C10.9072 12.2975 10.967 12.2471 11.0091 12.1825C11.0512 12.1179 11.0737 12.042 11.0737 11.9643C11.0737 11.8601 11.0333 11.7602 10.9615 11.6865C10.8897 11.6128 10.7922 11.5714 10.6907 11.5714Z" fill="url(#paint11_linear_1485_49619)"/>
<path d="M12.2229 11.5714C12.1471 11.5714 12.0731 11.5945 12.0101 11.6376C11.9471 11.6808 11.898 11.7422 11.869 11.8139C11.84 11.8857 11.8324 11.9647 11.8472 12.0409C11.862 12.1171 11.8985 12.1871 11.952 12.2421C12.0056 12.297 12.0739 12.3344 12.1482 12.3496C12.2225 12.3648 12.2995 12.357 12.3695 12.3272C12.4395 12.2975 12.4993 12.2471 12.5414 12.1825C12.5835 12.1179 12.6059 12.042 12.6059 11.9643C12.6059 11.8601 12.5656 11.7602 12.4937 11.6865C12.4219 11.6128 12.3245 11.5714 12.2229 11.5714Z" fill="url(#paint12_linear_1485_49619)"/>
<path d="M13.7551 11.5714C13.6793 11.5714 13.6053 11.5945 13.5423 11.6376C13.4793 11.6808 13.4302 11.7422 13.4012 11.8139C13.3722 11.8857 13.3647 11.9647 13.3794 12.0409C13.3942 12.1171 13.4307 12.1871 13.4843 12.2421C13.5378 12.297 13.6061 12.3344 13.6804 12.3496C13.7547 12.3648 13.8317 12.357 13.9017 12.3272C13.9717 12.2975 14.0315 12.2471 14.0736 12.1825C14.1157 12.1179 14.1381 12.042 14.1381 11.9643C14.1381 11.8601 14.0978 11.7602 14.026 11.6865C13.9541 11.6128 13.8567 11.5714 13.7551 11.5714Z" fill="url(#paint13_linear_1485_49619)"/>
<path d="M28.3106 11.5714H16.8196C16.718 11.5714 16.6205 11.6128 16.5487 11.6865C16.4769 11.7602 16.4365 11.8601 16.4365 11.9643C16.4365 12.0685 16.4769 12.1684 16.5487 12.2421C16.6205 12.3158 16.718 12.3571 16.8196 12.3571H28.3106C28.4122 12.3571 28.5096 12.3158 28.5815 12.2421C28.6533 12.1684 28.6937 12.0685 28.6937 11.9643C28.6937 11.8601 28.6533 11.7602 28.5815 11.6865C28.5096 11.6128 28.4122 11.5714 28.3106 11.5714Z" fill="url(#paint14_linear_1485_49619)"/>
<defs>
<linearGradient id="paint0_linear_1485_49619" x1="11.0732" y1="19.4286" x2="13.4002" y2="19.45" gradientUnits="userSpaceOnUse">
<stop stop-color="#40EDC3"/>
<stop offset="0.496174" stop-color="#7FFBA9"/>
<stop offset="1" stop-color="#D3F89A"/>
</linearGradient>
<linearGradient id="paint1_linear_1485_49619" x1="25.6289" y1="19.4286" x2="27.9559" y2="19.45" gradientUnits="userSpaceOnUse">
<stop stop-color="#40EDC3"/>
<stop offset="0.496174" stop-color="#7FFBA9"/>
<stop offset="1" stop-color="#D3F89A"/>
</linearGradient>
<linearGradient id="paint2_linear_1485_49619" x1="16.8193" y1="18.25" x2="22.2095" y2="18.7138" gradientUnits="userSpaceOnUse">
<stop stop-color="#40EDC3"/>
<stop offset="0.496174" stop-color="#7FFBA9"/>
<stop offset="1" stop-color="#D3F89A"/>
</linearGradient>
<linearGradient id="paint3_linear_1485_49619" x1="16.0527" y1="21.3929" x2="18.3768" y2="21.4786" gradientUnits="userSpaceOnUse">
<stop stop-color="#40EDC3"/>
<stop offset="0.496174" stop-color="#7FFBA9"/>
<stop offset="1" stop-color="#D3F89A"/>
</linearGradient>
<linearGradient id="paint4_linear_1485_49619" x1="16.8193" y1="22.9643" x2="19.9148" y2="23.1165" gradientUnits="userSpaceOnUse">
<stop stop-color="#40EDC3"/>
<stop offset="0.496174" stop-color="#7FFBA9"/>
<stop offset="1" stop-color="#D3F89A"/>
</linearGradient>
<linearGradient id="paint5_linear_1485_49619" x1="20.6494" y1="22.9643" x2="22.1999" y2="23.0024" gradientUnits="userSpaceOnUse">
<stop stop-color="#40EDC3"/>
<stop offset="0.496174" stop-color="#7FFBA9"/>
<stop offset="1" stop-color="#D3F89A"/>
</linearGradient>
<linearGradient id="paint6_linear_1485_49619" x1="19.1172" y1="21.3929" x2="22.9812" y2="21.6304" gradientUnits="userSpaceOnUse">
<stop stop-color="#40EDC3"/>
<stop offset="0.496174" stop-color="#7FFBA9"/>
<stop offset="1" stop-color="#D3F89A"/>
</linearGradient>
<linearGradient id="paint7_linear_1485_49619" x1="20.6494" y1="19.8214" x2="22.9734" y2="19.9071" gradientUnits="userSpaceOnUse">
<stop stop-color="#40EDC3"/>
<stop offset="0.496174" stop-color="#7FFBA9"/>
<stop offset="1" stop-color="#D3F89A"/>
</linearGradient>
<linearGradient id="paint8_linear_1485_49619" x1="16.0527" y1="19.8214" x2="19.9168" y2="20.0589" gradientUnits="userSpaceOnUse">
<stop stop-color="#40EDC3"/>
<stop offset="0.496174" stop-color="#7FFBA9"/>
<stop offset="1" stop-color="#D3F89A"/>
</linearGradient>
<linearGradient id="paint9_linear_1485_49619" x1="14.1289" y1="15.4911" x2="28.8745" y2="15.6722" gradientUnits="userSpaceOnUse">
<stop stop-color="#40EDC3"/>
<stop offset="0.496174" stop-color="#7FFBA9"/>
<stop offset="1" stop-color="#D3F89A"/>
</linearGradient>
<linearGradient id="paint10_linear_1485_49619" x1="8.77539" y1="10" x2="30.4914" y2="10.3114" gradientUnits="userSpaceOnUse">
<stop stop-color="#40EDC3"/>
<stop offset="0.496174" stop-color="#7FFBA9"/>
<stop offset="1" stop-color="#D3F89A"/>
</linearGradient>
<linearGradient id="paint11_linear_1485_49619" x1="10.3076" y1="11.5714" x2="11.0832" y2="11.581" gradientUnits="userSpaceOnUse">
<stop stop-color="#40EDC3"/>
<stop offset="0.496174" stop-color="#7FFBA9"/>
<stop offset="1" stop-color="#D3F89A"/>
</linearGradient>
<linearGradient id="paint12_linear_1485_49619" x1="11.8398" y1="11.5714" x2="12.6155" y2="11.581" gradientUnits="userSpaceOnUse">
<stop stop-color="#40EDC3"/>
<stop offset="0.496174" stop-color="#7FFBA9"/>
<stop offset="1" stop-color="#D3F89A"/>
</linearGradient>
<linearGradient id="paint13_linear_1485_49619" x1="13.3721" y1="11.5714" x2="14.1477" y2="11.581" gradientUnits="userSpaceOnUse">
<stop stop-color="#40EDC3"/>
<stop offset="0.496174" stop-color="#7FFBA9"/>
<stop offset="1" stop-color="#D3F89A"/>
</linearGradient>
<linearGradient id="paint14_linear_1485_49619" x1="16.4365" y1="11.5714" x2="28.3859" y2="13.9217" gradientUnits="userSpaceOnUse">
<stop stop-color="#40EDC3"/>
<stop offset="0.496174" stop-color="#7FFBA9"/>
<stop offset="1" stop-color="#D3F89A"/>
</linearGradient>
</defs>
</svg>
