<svg width="39" height="40" viewBox="0 0 39 40" fill="none" xmlns="http://www.w3.org/2000/svg">
<path d="M31.6875 40H7.3125C3.27356 40 0 36.6425 0 32.5V7.5C0 3.3575 3.27356 0 7.3125 0H31.6875C35.7264 0 39 3.3575 39 7.5V32.5C39 36.6425 35.7264 40 31.6875 40Z" fill="#000000"/>
<path d="M19.5 27.5607C22.739 27.5607 25.3702 24.8584 25.3702 21.54C25.3702 18.2217 22.739 15.5157 19.5 15.5157C16.2611 15.5157 13.6299 18.218 13.6299 21.5364C13.6299 24.8547 16.2611 27.5607 19.5 27.5607ZM14.588 23.1387C15.1314 23.5457 15.8786 23.8794 16.7652 24.103C16.9904 25.0857 17.3443 25.918 17.784 26.5157C16.2682 25.9694 15.0778 24.7154 14.588 23.1387ZM19.5 16.249C20.2472 16.249 21.0301 17.2134 21.4627 18.8084C20.8514 18.7057 20.1936 18.647 19.5 18.647C18.8065 18.647 18.1487 18.7057 17.5374 18.8084C17.9699 17.2134 18.7529 16.249 19.5 16.249ZM19.5 19.3804C20.2794 19.3804 20.9944 19.4574 21.6343 19.5857C21.738 20.1797 21.8023 20.8324 21.8023 21.54C21.8023 22.2477 21.7416 22.9004 21.6343 23.4944C20.998 23.6227 20.2794 23.6997 19.5 23.6997C18.7207 23.6997 18.0057 23.6227 17.3658 23.4944C17.2621 22.9004 17.1977 22.2477 17.1977 21.54C17.1977 20.8324 17.2585 20.1797 17.3658 19.5857C18.0057 19.4537 18.7207 19.3804 19.5 19.3804ZM22.3886 19.7727C23.7972 20.1944 24.6588 20.8874 24.6588 21.54C24.6588 22.1927 23.7972 22.8857 22.3886 23.3074C22.4709 22.75 22.5173 22.1597 22.5173 21.54C22.5173 20.9204 22.4709 20.3264 22.3886 19.7727ZM19.5 26.8274C18.7529 26.8274 17.9699 25.863 17.5374 24.268C18.1487 24.3707 18.8065 24.4294 19.5 24.4294C20.1936 24.4294 20.8514 24.3707 21.4627 24.268C21.0301 25.8594 20.2472 26.8274 19.5 26.8274ZM16.6114 23.3037C15.2029 22.882 14.3449 22.189 14.3449 21.5364C14.3449 20.8837 15.2065 20.1907 16.6114 19.769C16.5292 20.3264 16.4827 20.9167 16.4827 21.5364C16.4827 22.156 16.5292 22.7464 16.6114 23.3037ZM21.216 26.5194C21.6593 25.918 22.0097 25.0857 22.2349 24.1067C23.1215 23.883 23.8723 23.5494 24.4121 23.1424C23.9223 24.7154 22.7318 25.9694 21.216 26.5194ZM24.4121 19.9377C23.8687 19.5307 23.1215 19.197 22.2349 18.9734C22.0097 17.9907 21.6558 17.1584 21.216 16.5607C22.7318 17.107 23.9223 18.361 24.4121 19.9377ZM17.784 16.557C17.3407 17.1584 16.9904 17.9907 16.7652 18.9697C15.8786 19.1934 15.1278 19.527 14.588 19.934C15.0778 18.361 16.2682 17.107 17.784 16.557Z" fill="url(#paint0_linear_1485_49800)"/>
<path d="M27.365 10.8333H11.635C11.0451 10.8333 10.5625 11.3283 10.5625 11.9333V14.2727V28.0667C10.5625 28.6717 11.0451 29.1667 11.635 29.1667H27.365C27.9549 29.1667 28.4375 28.6717 28.4375 28.0667V14.2727V11.9333C28.4375 11.3283 27.9549 10.8333 27.365 10.8333ZM11.2775 11.9333C11.2775 11.7317 11.4384 11.5667 11.635 11.5667H27.365C27.5616 11.5667 27.7225 11.7317 27.7225 11.9333V13.906H11.2775V11.9333ZM27.7225 28.0667C27.7225 28.2683 27.5616 28.4333 27.365 28.4333H11.635C11.4384 28.4333 11.2775 28.2683 11.2775 28.0667V14.6393H27.7225V28.0667Z" fill="url(#paint1_linear_1485_49800)"/>
<path d="M22.3742 12.3697H22.0059C21.8093 12.3697 21.6484 12.5347 21.6484 12.7364C21.6484 12.938 21.8093 13.103 22.0059 13.103H22.3742C22.5708 13.103 22.7317 12.938 22.7317 12.7364C22.7317 12.5347 22.5708 12.3697 22.3742 12.3697Z" fill="url(#paint2_linear_1485_49800)"/>
<path d="M24.3117 12.3697H23.9434C23.7468 12.3697 23.5859 12.5347 23.5859 12.7364C23.5859 12.938 23.7468 13.103 23.9434 13.103H24.3117C24.5083 13.103 24.6692 12.938 24.6692 12.7364C24.6692 12.5347 24.5119 12.3697 24.3117 12.3697Z" fill="url(#paint3_linear_1485_49800)"/>
<path d="M26.2531 12.3697H25.8848C25.6882 12.3697 25.5273 12.5347 25.5273 12.7364C25.5273 12.938 25.6882 13.103 25.8848 13.103H26.2531C26.4497 13.103 26.6106 12.938 26.6106 12.7364C26.6106 12.5347 26.4497 12.3697 26.2531 12.3697Z" fill="url(#paint4_linear_1485_49800)"/>
<path d="M19.2286 12.3697H12.7471C12.5505 12.3697 12.3896 12.5347 12.3896 12.7364C12.3896 12.938 12.5505 13.103 12.7471 13.103H19.2286C19.4252 13.103 19.5861 12.938 19.5861 12.7364C19.5861 12.5347 19.4252 12.3697 19.2286 12.3697Z" fill="url(#paint5_linear_1485_49800)"/>
<defs>
<linearGradient id="paint0_linear_1485_49800" x1="13.6299" y1="15.5157" x2="25.5164" y2="15.6618" gradientUnits="userSpaceOnUse">
<stop stop-color="#40EDC3"/>
<stop offset="0.496174" stop-color="#7FFBA9"/>
<stop offset="1" stop-color="#D3F89A"/>
</linearGradient>
<linearGradient id="paint1_linear_1485_49800" x1="10.5625" y1="10.8333" x2="28.6601" y2="11.0558" gradientUnits="userSpaceOnUse">
<stop stop-color="#40EDC3"/>
<stop offset="0.496174" stop-color="#7FFBA9"/>
<stop offset="1" stop-color="#D3F89A"/>
</linearGradient>
<linearGradient id="paint2_linear_1485_49800" x1="21.6484" y1="12.3697" x2="22.7449" y2="12.3901" gradientUnits="userSpaceOnUse">
<stop stop-color="#40EDC3"/>
<stop offset="0.496174" stop-color="#7FFBA9"/>
<stop offset="1" stop-color="#D3F89A"/>
</linearGradient>
<linearGradient id="paint3_linear_1485_49800" x1="23.5859" y1="12.3697" x2="24.6824" y2="12.3901" gradientUnits="userSpaceOnUse">
<stop stop-color="#40EDC3"/>
<stop offset="0.496174" stop-color="#7FFBA9"/>
<stop offset="1" stop-color="#D3F89A"/>
</linearGradient>
<linearGradient id="paint4_linear_1485_49800" x1="25.5273" y1="12.3697" x2="26.6238" y2="12.3901" gradientUnits="userSpaceOnUse">
<stop stop-color="#40EDC3"/>
<stop offset="0.496174" stop-color="#7FFBA9"/>
<stop offset="1" stop-color="#D3F89A"/>
</linearGradient>
<linearGradient id="paint5_linear_1485_49800" x1="12.3896" y1="12.3697" x2="19.567" y2="13.2577" gradientUnits="userSpaceOnUse">
<stop stop-color="#40EDC3"/>
<stop offset="0.496174" stop-color="#7FFBA9"/>
<stop offset="1" stop-color="#D3F89A"/>
</linearGradient>
</defs>
</svg>
