<svg width="39" height="40" viewBox="0 0 39 40" fill="none" xmlns="http://www.w3.org/2000/svg">
<path d="M31.6875 40H7.3125C3.27356 40 0 36.6425 0 32.5V7.5C0 3.3575 3.27356 0 7.3125 0H31.6875C35.7264 0 39 3.3575 39 7.5V32.5C39 36.6425 35.7264 40 31.6875 40Z" fill="#000000"/>
<g clipPath="url(#clip0_1485_49810)">
<path d="M29.5878 12.9319H26.9222C26.5992 12.2515 26.1629 11.6139 25.6126 11.0496C22.9482 8.31675 18.6128 8.31679 15.9484 11.0496C15.3982 11.6139 14.9619 12.2515 14.6389 12.9319H11.1559C10.8091 12.9319 10.528 13.2202 10.528 13.5759V23.2037L9.46491 24.294C9.02655 24.7436 8.78516 25.3413 8.78516 25.9771C8.78516 26.6129 9.02659 27.2107 9.46491 27.6603C9.90324 28.1099 10.4861 28.3575 11.106 28.3575C11.4067 28.3575 11.6986 28.2987 11.9696 28.1873H17.1538V29.7121H15.482C15.1352 29.7121 14.8541 30.0004 14.8541 30.356C14.8541 30.7117 15.1352 31 15.482 31H25.3035C25.6503 31 25.9314 30.7117 25.9314 30.356C25.9314 30.0004 25.6503 29.7121 25.3035 29.7121H23.6317V28.1873H29.5878C29.9345 28.1873 30.2156 27.899 30.2156 27.5434V13.5758C30.2156 13.2202 29.9345 12.9319 29.5878 12.9319ZM28.9599 14.2198V24.2832H15.8155C16.1057 23.6041 16.0722 22.8139 15.715 22.1605L16.439 21.418C17.6955 22.48 19.2377 23.0111 20.7806 23.0111C22.5303 23.0111 24.2806 22.3278 25.6127 20.9616C27.3907 19.1379 27.9818 16.5512 27.3868 14.2198H28.9599ZM16.8364 11.9602C19.0112 9.72967 22.5499 9.72967 24.7247 11.9602C25.2606 12.5098 25.6641 13.1444 25.9359 13.822C25.9371 13.8248 25.9382 13.8275 25.9393 13.8303C26.7663 15.9011 26.3615 18.3721 24.7248 20.0509C22.55 22.2815 19.0112 22.2815 16.8364 20.0509C15.1987 18.3711 14.7944 15.8983 15.6233 13.8268C15.6233 13.8266 15.6234 13.8264 15.6235 13.8262C15.8953 13.147 16.2994 12.511 16.8364 11.9602ZM11.7837 14.2198H14.1743C13.6267 16.3656 14.0842 18.7274 15.5468 20.5117L14.8272 21.2498C13.9432 20.7415 12.8015 20.8718 12.0505 21.6421L11.7838 21.9157V14.2198H11.7837ZM10.3528 26.7496C10.1516 26.5432 10.0409 26.2689 10.0409 25.9771C10.0409 25.6853 10.1516 25.4111 10.3528 25.2047L12.9384 22.5528C13.1461 22.3398 13.4188 22.2333 13.6916 22.2333C13.9643 22.2333 14.2371 22.3398 14.4447 22.5528C14.8599 22.9787 14.8599 23.6717 14.4447 24.0977L11.8591 26.7496C11.6579 26.9559 11.3905 27.0695 11.106 27.0695C10.8215 27.0695 10.554 26.9559 10.3528 26.7496ZM22.3759 29.7121H18.4095V28.1873H22.3759V29.7121ZM13.4888 26.8994L14.7839 25.5711H28.9599V26.8994H13.4888Z" fill="url(#paint0_linear_1485_49810)"/>
<path d="M19.456 13.8105C19.5777 13.8105 19.6999 13.7672 19.799 13.679L20.7807 12.8042L21.7623 13.679C21.9803 13.8733 22.3108 13.8496 22.5004 13.6259C22.6899 13.4021 22.6668 13.0632 22.4486 12.8688L21.1238 11.6882C20.927 11.5128 20.6344 11.5128 20.4375 11.6882L19.1127 12.8688C18.8945 13.0632 18.8713 13.4021 19.0609 13.6258C19.1643 13.748 19.3098 13.8105 19.456 13.8105Z" fill="url(#paint1_linear_1485_49810)"/>
<path d="M19.1127 19.2814L20.4375 20.4619C20.5359 20.5496 20.6583 20.5935 20.7807 20.5935C20.9031 20.5935 21.0254 20.5496 21.1238 20.4619L22.4486 19.2814C22.6667 19.087 22.6899 18.748 22.5004 18.5243C22.3108 18.3005 21.9803 18.2768 21.7623 18.4712L20.7806 19.346L19.799 18.4712C19.5809 18.2768 19.2504 18.3006 19.0608 18.5243C18.8714 18.748 18.8945 19.087 19.1127 19.2814Z" fill="url(#paint2_linear_1485_49810)"/>
<path d="M23.378 17.4501C23.5399 17.5135 23.7214 17.43 23.7831 17.2639L23.8879 16.9816H24.6274L24.7309 17.2629C24.7784 17.3918 24.8978 17.4713 25.0247 17.4713C25.0615 17.4713 25.099 17.4646 25.1355 17.4505C25.2977 17.3877 25.3796 17.2019 25.3183 17.0356L24.595 15.0697C24.5939 15.0667 24.5928 15.0637 24.5916 15.0608C24.5361 14.9226 24.4062 14.8334 24.2606 14.8334C24.2604 14.8334 24.2603 14.8334 24.2601 14.8334C24.1143 14.8336 23.9844 14.9231 23.9292 15.0616C23.9282 15.064 23.9273 15.0664 23.9264 15.0689L23.1965 17.0347C23.1347 17.2008 23.216 17.3869 23.378 17.4501ZM24.3905 16.3377H24.1271L24.2594 15.9814L24.3905 16.3377Z" fill="url(#paint3_linear_1485_49810)"/>
<path d="M21.4512 15.1756C21.4512 15.3534 21.5917 15.4975 21.7651 15.4975H21.9731V17.1492C21.9731 17.327 22.1137 17.4712 22.2871 17.4712C22.4605 17.4712 22.601 17.327 22.601 17.1492V15.4975H22.8132C22.9867 15.4975 23.1272 15.3534 23.1272 15.1756C23.1272 14.9977 22.9867 14.8536 22.8132 14.8536H21.7651C21.5917 14.8536 21.4512 14.9977 21.4512 15.1756Z" fill="url(#paint4_linear_1485_49810)"/>
<path d="M20.6028 15.4941C20.7762 15.4941 20.9167 15.3499 20.9167 15.1721C20.9167 14.9943 20.7762 14.8501 20.6028 14.8501H19.7905C19.6171 14.8501 19.4766 14.9943 19.4766 15.1721V17.1493C19.4766 17.3271 19.6171 17.4712 19.7905 17.4712H20.6028C20.7762 17.4712 20.9167 17.3271 20.9167 17.1493C20.9167 16.9714 20.7762 16.8273 20.6028 16.8273H20.1044V16.4827H20.5429C20.7163 16.4827 20.8568 16.3385 20.8568 16.1607C20.8568 15.9829 20.7163 15.8387 20.5429 15.8387H20.1044V15.4941H20.6028V15.4941Z" fill="url(#paint5_linear_1485_49810)"/>
<path d="M16.4809 17.4505C16.6514 17.4821 16.8148 17.3658 16.8456 17.1908L16.9848 16.3995L17.2178 17.2096C17.2189 17.2133 17.22 17.2171 17.2213 17.2208C17.2702 17.3707 17.4064 17.4712 17.5605 17.4712H17.5622C17.7169 17.4705 17.853 17.3685 17.9009 17.2176C17.9021 17.2139 17.9032 17.2101 17.9042 17.2064L18.1291 16.3972L18.2776 17.1941C18.3101 17.3688 18.475 17.4832 18.6449 17.4499C18.8151 17.4165 18.9268 17.2479 18.8942 17.0732L18.5316 15.127C18.4991 14.9638 18.3632 14.8433 18.2011 14.834C18.0381 14.8247 17.8907 14.9287 17.8406 15.0871C17.8395 15.0908 17.8384 15.0945 17.8373 15.0982L17.5561 16.1099L17.2642 15.095C17.2631 15.0913 17.2619 15.0875 17.2607 15.0838C17.2091 14.9258 17.0601 14.8231 16.8977 14.8343C16.7355 14.8454 16.6008 14.9675 16.5694 15.1348L16.2277 17.0765C16.1969 17.2515 16.3103 17.4189 16.4809 17.4505Z" fill="url(#paint6_linear_1485_49810)"/>
</g>
<defs>
<linearGradient id="paint0_linear_1485_49810" x1="8.78516" y1="8.99997" x2="30.4826" y2="9.26645" gradientUnits="userSpaceOnUse">
<stop stop-color="#40EDC3"/>
<stop offset="0.496174" stop-color="#7FFBA9"/>
<stop offset="1" stop-color="#D3F89A"/>
</linearGradient>
<linearGradient id="paint1_linear_1485_49810" x1="18.9326" y1="11.5566" x2="22.6737" y2="11.634" gradientUnits="userSpaceOnUse">
<stop stop-color="#40EDC3"/>
<stop offset="0.496174" stop-color="#7FFBA9"/>
<stop offset="1" stop-color="#D3F89A"/>
</linearGradient>
<linearGradient id="paint2_linear_1485_49810" x1="18.9326" y1="18.3396" x2="22.6737" y2="18.4169" gradientUnits="userSpaceOnUse">
<stop stop-color="#40EDC3"/>
<stop offset="0.496174" stop-color="#7FFBA9"/>
<stop offset="1" stop-color="#D3F89A"/>
</linearGradient>
<linearGradient id="paint3_linear_1485_49810" x1="23.1758" y1="14.8334" x2="25.3657" y2="14.856" gradientUnits="userSpaceOnUse">
<stop stop-color="#40EDC3"/>
<stop offset="0.496174" stop-color="#7FFBA9"/>
<stop offset="1" stop-color="#D3F89A"/>
</linearGradient>
<linearGradient id="paint4_linear_1485_49810" x1="21.4512" y1="14.8536" x2="23.1482" y2="14.8673" gradientUnits="userSpaceOnUse">
<stop stop-color="#40EDC3"/>
<stop offset="0.496174" stop-color="#7FFBA9"/>
<stop offset="1" stop-color="#D3F89A"/>
</linearGradient>
<linearGradient id="paint5_linear_1485_49810" x1="19.4766" y1="14.8501" x2="20.9348" y2="14.8602" gradientUnits="userSpaceOnUse">
<stop stop-color="#40EDC3"/>
<stop offset="0.496174" stop-color="#7FFBA9"/>
<stop offset="1" stop-color="#D3F89A"/>
</linearGradient>
<linearGradient id="paint6_linear_1485_49810" x1="16.2227" y1="14.8334" x2="18.9332" y2="14.8681" gradientUnits="userSpaceOnUse">
<stop stop-color="#40EDC3"/>
<stop offset="0.496174" stop-color="#7FFBA9"/>
<stop offset="1" stop-color="#D3F89A"/>
</linearGradient>
<clipPath id="clip0_1485_49810">
<rect width="21.45" height="22" fill="white" transform="translate(8.77539 9)"/>
</clipPath>
</defs>
</svg>
