<svg width="39" height="40" viewBox="0 0 39 40" fill="none" xmlns="http://www.w3.org/2000/svg">
<path d="M31.6875 40H7.3125C3.27356 40 0 36.6425 0 32.5V7.5C0 3.3575 3.27356 0 7.3125 0H31.6875C35.7264 0 39 3.3575 39 7.5V32.5C39 36.6425 35.7264 40 31.6875 40Z" fill="#000000"/>
<path d="M29.4593 9H9.54146C9.11859 9 8.77539 9.352 8.77539 9.78571V25.5C8.77539 25.9337 9.11859 26.2857 9.54146 26.2857H16.2262C17.3064 27.2608 18.7182 27.8571 20.2665 27.8571C21.2838 27.8571 22.2414 27.5979 23.0864 27.1461L26.3023 30.4445C26.6632 30.8146 27.1366 30.9992 27.61 30.9992C28.0835 30.9992 28.5569 30.8146 28.9177 30.4445C29.6386 29.7051 29.6386 28.5014 28.9177 27.7621L27.4783 26.2857H29.4593C29.8822 26.2857 30.2254 25.9337 30.2254 25.5V9.78571C30.2254 9.352 29.8822 9 29.4593 9ZM10.3075 10.5714H28.6932V12.1429H10.3075V10.5714ZM15.67 21.5714C15.67 18.9715 17.7315 16.8571 20.2665 16.8571C21.5496 16.8571 22.711 17.4009 23.5452 18.2738L21.6584 20.5311L19.9248 19.3463C19.6207 19.1389 19.2169 19.1797 18.958 19.4445L16.6598 21.8016C16.3603 22.1089 16.3603 22.6054 16.6598 22.9126C16.8099 23.0659 17.0061 23.1429 17.2022 23.1429C17.3983 23.1429 17.5944 23.0659 17.7438 22.9126L19.5977 21.0112L21.3734 22.2251C21.696 22.4459 22.128 22.3846 22.3801 22.0829L24.4431 19.615C24.7097 20.2114 24.8629 20.8729 24.8629 21.5714C24.8629 24.1714 22.8014 26.2857 20.2665 26.2857C17.7315 26.2857 15.67 24.1714 15.67 21.5714ZM27.8345 29.3335C27.7104 29.46 27.5097 29.46 27.3856 29.3335L24.3626 26.2331C24.5197 26.0877 24.6698 25.9345 24.8116 25.7726L25.0866 26.0547C25.0866 26.0547 25.0866 26.0547 25.0873 26.0555L27.8345 28.8731C27.9586 29.0004 27.9586 29.2062 27.8345 29.3335ZM28.6932 24.7143H25.9461L25.7017 24.4636C26.1422 23.597 26.395 22.6149 26.395 21.5714C26.395 20.3874 26.0687 19.2826 25.511 18.3366L26.4716 17.1871C26.5942 17.4543 26.8547 17.6429 27.1611 17.6429C27.584 17.6429 27.9272 17.2909 27.9272 16.8571V15.2857C27.9272 14.852 27.584 14.5 27.1611 14.5H25.629C25.2061 14.5 24.8629 14.852 24.8629 15.2857C24.8629 15.644 25.1019 15.9339 25.4221 16.0282L24.5442 17.0787C23.4388 15.9716 21.9304 15.2857 20.2665 15.2857C16.8873 15.2857 14.1379 18.1056 14.1379 21.5714C14.1379 22.717 14.4428 23.7887 14.9668 24.7143H10.3075V13.7143H28.6932V24.7143Z" fill="url(#paint0_linear_1485_49638)"/>
<path d="M11.8393 16.0714H16.4357C16.8586 16.0714 17.2018 15.7194 17.2018 15.2857C17.2018 14.852 16.8586 14.5 16.4357 14.5H11.8393C11.4164 14.5 11.0732 14.852 11.0732 15.2857C11.0732 15.7194 11.4164 16.0714 11.8393 16.0714Z" fill="url(#paint1_linear_1485_49638)"/>
<path d="M11.8393 18.4286H13.3715C13.7943 18.4286 14.1375 18.0766 14.1375 17.6429C14.1375 17.2091 13.7943 16.8571 13.3715 16.8571H11.8393C11.4164 16.8571 11.0732 17.2091 11.0732 17.6429C11.0732 18.0766 11.4164 18.4286 11.8393 18.4286Z" fill="url(#paint2_linear_1485_49638)"/>
<path d="M11.8393 23.1429H12.6054C13.0283 23.1429 13.3715 22.7909 13.3715 22.3571C13.3715 21.9234 13.0283 21.5714 12.6054 21.5714H11.8393C11.4164 21.5714 11.0732 21.9234 11.0732 22.3571C11.0732 22.7909 11.4164 23.1429 11.8393 23.1429Z" fill="url(#paint3_linear_1485_49638)"/>
<path d="M11.8393 20.7857H12.6054C13.0283 20.7857 13.3715 20.4337 13.3715 20C13.3715 19.5663 13.0283 19.2143 12.6054 19.2143H11.8393C11.4164 19.2143 11.0732 19.5663 11.0732 20C11.0732 20.4337 11.4164 20.7857 11.8393 20.7857Z" fill="url(#paint4_linear_1485_49638)"/>
<defs>
<linearGradient id="paint0_linear_1485_49638" x1="8.77539" y1="9" x2="30.4925" y2="9.26697" gradientUnits="userSpaceOnUse">
<stop stop-color="#40EDC3"/>
<stop offset="0.496174" stop-color="#7FFBA9"/>
<stop offset="1" stop-color="#D3F89A"/>
</linearGradient>
<linearGradient id="paint1_linear_1485_49638" x1="11.0732" y1="14.5" x2="17.2641" y2="14.8044" gradientUnits="userSpaceOnUse">
<stop stop-color="#40EDC3"/>
<stop offset="0.496174" stop-color="#7FFBA9"/>
<stop offset="1" stop-color="#D3F89A"/>
</linearGradient>
<linearGradient id="paint2_linear_1485_49638" x1="11.0732" y1="16.8571" x2="14.1743" y2="16.9334" gradientUnits="userSpaceOnUse">
<stop stop-color="#40EDC3"/>
<stop offset="0.496174" stop-color="#7FFBA9"/>
<stop offset="1" stop-color="#D3F89A"/>
</linearGradient>
<linearGradient id="paint3_linear_1485_49638" x1="11.0732" y1="21.5714" x2="13.3996" y2="21.6143" gradientUnits="userSpaceOnUse">
<stop stop-color="#40EDC3"/>
<stop offset="0.496174" stop-color="#7FFBA9"/>
<stop offset="1" stop-color="#D3F89A"/>
</linearGradient>
<linearGradient id="paint4_linear_1485_49638" x1="11.0732" y1="19.2143" x2="13.3996" y2="19.2572" gradientUnits="userSpaceOnUse">
<stop stop-color="#40EDC3"/>
<stop offset="0.496174" stop-color="#7FFBA9"/>
<stop offset="1" stop-color="#D3F89A"/>
</linearGradient>
</defs>
</svg>
