<svg width="39" height="40" viewBox="0 0 39 40" fill="none" xmlns="http://www.w3.org/2000/svg">
<path d="M31.6875 40.0002H7.3125C3.27356 40.0002 0 36.6427 0 32.5002V7.50021C0 3.35771 3.27356 0.000213623 7.3125 0.000213623H31.6875C35.7264 0.000213623 39 3.35771 39 7.50021V32.5002C39 36.6427 35.7264 40.0002 31.6875 40.0002Z" fill="#000000"/>
<path d="M29.1131 16.7619L28.4256 16.0744L22.9256 10.5744L22.2381 9.88687C22.1066 9.77424 21.9374 9.71539 21.7644 9.72207C21.5914 9.72875 21.4272 9.80048 21.3048 9.92292C21.1824 10.0454 21.1106 10.2095 21.104 10.3825C21.0973 10.5556 21.1561 10.7247 21.2688 10.8562L21.4681 11.0556L13.0119 19.5119L10.2619 22.2619C9.46379 23.1315 9.03238 24.2758 9.05769 25.4559C9.08301 26.636 9.56308 27.7608 10.3977 28.5954C11.2324 29.43 12.3571 29.9101 13.5372 29.9354C14.7173 29.9607 15.8616 29.5293 16.7313 28.7312L24.9813 20.4812L27.9375 17.5319L28.1369 17.7312C28.2684 17.8439 28.4376 17.9027 28.6106 17.896C28.7836 17.8894 28.9478 17.8176 29.0702 17.6952C29.1926 17.5728 29.2644 17.4086 29.2711 17.2356C29.2777 17.0626 29.2189 16.8934 29.1063 16.7619H29.1131ZM11.2381 27.7619C10.6374 27.1611 10.2999 26.3462 10.2999 25.4966C10.2999 24.6469 10.6374 23.8321 11.2381 23.2312L13.7819 20.6875H22.8431L20.5194 23.0112L19.5981 22.0625C19.4666 21.9499 19.2974 21.891 19.1244 21.8977C18.9514 21.9044 18.7872 21.9761 18.6648 22.0985C18.5424 22.221 18.4706 22.3851 18.464 22.5581C18.4573 22.7312 18.5161 22.9004 18.6288 23.0319L19.5431 23.9462L16.745 26.7444L15.7481 25.775C15.6166 25.6624 15.4474 25.6035 15.2744 25.6102C15.1014 25.6169 14.9372 25.6886 14.8148 25.811C14.6924 25.9335 14.6206 26.0976 14.614 26.2706C14.6073 26.4437 14.6661 26.6129 14.7788 26.7444L15.7825 27.7481C15.4857 28.0486 15.1324 28.2873 14.7429 28.4507C14.3534 28.6141 13.9355 28.6989 13.5132 28.7002C13.0908 28.7015 12.6724 28.6192 12.282 28.4582C11.8915 28.2971 11.5368 28.0605 11.2381 27.7619ZM25.1325 18.3981L24.2181 17.4837C24.0866 17.3711 23.9174 17.3123 23.7444 17.3189C23.5714 17.3256 23.4072 17.3974 23.2848 17.5198C23.1624 17.6422 23.0906 17.8064 23.084 17.9794C23.0773 18.1524 23.1361 18.3216 23.2488 18.4531L24.1013 19.3125H15.1638L22.4375 12.0319L26.9681 16.5625L25.1325 18.3981Z" fill="url(#paint0_linear_1485_49843)"/>
<defs>
<linearGradient id="paint0_linear_1485_49843" x1="9.05664" y1="9.72156" x2="29.5232" y2="9.9796" gradientUnits="userSpaceOnUse">
<stop stop-color="#40EDC3"/>
<stop offset="0.496174" stop-color="#7FFBA9"/>
<stop offset="1" stop-color="#D3F89A"/>
</linearGradient>
</defs>
</svg>
