<svg width="39" height="40" viewBox="0 0 39 40" fill="none" xmlns="http://www.w3.org/2000/svg">
<path d="M31.6875 40H7.3125C3.27356 40 0 36.6425 0 32.5V7.5C0 3.3575 3.27356 0 7.3125 0H31.6875C35.7264 0 39 3.3575 39 7.5V32.5C39 36.6425 35.7264 40 31.6875 40Z" fill="#000000"/>
<path d="M29.7147 23.5712H19.5006C19.4335 23.5712 19.3671 23.5847 19.3051 23.611C19.2431 23.6373 19.1868 23.6759 19.1394 23.7246C19.0919 23.7732 19.0543 23.831 19.0287 23.8945C19.003 23.9581 18.9898 24.0262 18.9899 24.095C18.9887 25.0671 18.6117 25.999 17.9415 26.6864C17.2713 27.3738 16.3627 27.7605 15.4149 27.7616C15.0087 27.7612 14.6193 27.5955 14.332 27.3009C14.0448 27.0063 13.8832 26.6069 13.8828 26.1902V13.619C13.8827 13.0521 13.703 12.5007 13.3708 12.0476H23.5862C23.9924 12.0481 24.3819 12.2138 24.6691 12.5084C24.9563 12.803 25.1179 13.2024 25.1183 13.619V21.9998H26.1397V13.619C26.1391 12.9246 25.8699 12.2588 25.3911 11.7678C24.9124 11.2768 24.2633 11.0006 23.5862 11H11.3293C11.3004 11 11.0191 11.0166 10.9044 11.0358C10.2975 11.1575 9.75177 11.4943 9.36262 11.9871C8.97347 12.4799 8.76572 13.0974 8.77574 13.7315C8.77645 14.3961 9.03414 15.0332 9.49229 15.5031C9.95044 15.973 10.5716 16.2373 11.2195 16.238H12.8614V26.1902C12.862 26.8846 13.1312 27.5504 13.61 28.0414C14.0887 28.5325 14.7379 28.8086 15.4149 28.8092H25.629C26.8477 28.8079 28.016 28.3108 28.8777 27.427C29.7394 26.5432 30.2241 25.3449 30.2254 24.095C30.2254 24.0262 30.2122 23.9581 30.1866 23.8945C30.1609 23.831 30.1233 23.7732 30.0759 23.7246C30.0285 23.6759 29.9721 23.6373 29.9102 23.611C29.8482 23.5847 29.7818 23.5712 29.7147 23.5712ZM12.8614 15.1904H11.2195C10.8425 15.1899 10.481 15.036 10.2143 14.7625C9.9477 14.489 9.79768 14.1183 9.79715 13.7315C9.78576 13.3457 9.9067 12.968 10.1389 12.6642C10.3711 12.3604 10.6999 12.1498 11.0679 12.0691C11.2881 12.0304 11.5138 12.0414 11.7293 12.1015C11.9448 12.1615 12.145 12.2691 12.3158 12.4167C12.4865 12.5643 12.6239 12.7483 12.7181 12.956C12.8123 13.1637 12.8612 13.3899 12.8614 13.619V15.1904ZM25.629 27.7616H18.3006C19.2431 26.9821 19.8477 25.8528 19.9833 24.6188H29.1681C29.0439 25.491 28.6182 26.2884 27.9685 26.8653C27.3188 27.4423 26.4884 27.7604 25.629 27.7616Z" fill="url(#paint0_linear_1485_49857)"/>
<defs>
<linearGradient id="paint0_linear_1485_49857" x1="8.77539" y1="11" x2="30.4908" y2="11.3298" gradientUnits="userSpaceOnUse">
<stop stopColor="#40EDC3"/>
<stop offset="0.496174" stopColor="#7FFBA9"/>
<stop offset="1" stopColor="#D3F89A"/>
</linearGradient>
</defs>
</svg>
