<svg width="39" height="40" viewBox="0 0 39 40" fill="none" xmlns="http://www.w3.org/2000/svg">
<path d="M31.6875 40H7.3125C3.27356 40 0 36.6425 0 32.5V7.5C0 3.3575 3.27356 0 7.3125 0H31.6875C35.7264 0 39 3.3575 39 7.5V32.5C39 36.6425 35.7264 40 31.6875 40Z" fill="#000000"/>
<g clipPath="url(#clip0_1485_50098)">
<path d="M28.695 16.3141C27.4456 11.871 23.6405 9 19.0003 9C13.4407 9 8.91699 13.477 8.91699 18.9798C8.91699 22.0332 10.3021 24.8776 12.7157 26.7815C15.0348 28.6112 17.9837 29.3262 20.8767 28.7844C21.7247 30.1264 22.7917 31.0018 24.6937 31.0018C25.1383 31.0018 25.6287 30.9542 26.1723 30.8524C26.4977 30.7919 26.7342 30.5077 26.7342 30.1768V28.6002C26.7342 28.2949 26.5326 28.0263 26.2402 27.9402C26.2301 27.9374 25.417 27.6835 24.8817 27.0849C28.3732 24.631 29.8665 20.4776 28.695 16.3141ZM23.5782 26.2975C23.283 26.4781 23.1675 26.8493 23.3087 27.1647C23.7789 28.2152 24.7616 28.7991 25.3592 29.0704V29.5865C23.2197 29.8322 22.5047 28.8999 21.8136 27.6725C21.6898 27.4525 21.4588 27.3223 21.215 27.3223C21.1618 27.3223 21.1087 27.3288 21.0546 27.3416C18.4155 27.9723 15.6875 27.3764 13.5672 25.7026C11.4855 24.0599 10.292 21.6097 10.292 18.9798C10.292 14.2351 14.1988 10.375 19.0003 10.375C23.0071 10.375 26.2933 12.8527 27.3722 16.6872C28.4356 20.4675 26.946 24.2396 23.5782 26.2975Z" fill="url(#paint0_linear_1485_50098)"/>
<path d="M18.998 11.6904C16.7925 11.6904 15.06 12.8033 14.1186 14.8245C12.7399 17.7872 13.3147 22.2156 15.401 24.6961C16.4084 25.8933 17.6689 26.5157 19.0393 26.5157C19.6149 26.5157 20.571 26.4625 20.78 25.9253C20.8589 25.7218 20.8369 25.4927 20.7195 25.3075C19.9807 24.1443 18.9769 23.6291 18.3454 23.4091V22.9013C20.2584 23.0241 21.5702 24.0993 22.0771 24.5934C22.3365 24.8464 22.749 24.8547 23.0176 24.6108C24.1029 23.6291 24.608 21.6555 24.608 18.4013C24.6089 14.3249 22.4071 11.6904 18.998 11.6904ZM22.4713 23.1139C21.5354 22.376 19.8542 21.4135 17.623 21.5244C17.2573 21.5437 16.9704 21.8453 16.9704 22.211V23.9353C16.9704 24.2753 17.2243 24.565 17.5607 24.6154C17.5928 24.6209 18.1189 24.7071 18.6974 25.1242C17.8641 25.0325 17.1124 24.5934 16.4543 23.8106C14.7089 21.7362 14.2103 17.8871 15.3653 15.4048C15.8621 14.3368 16.8961 13.0645 18.998 13.0645C21.6114 13.0645 23.2339 15.1096 23.2339 18.4013C23.2339 20.6609 22.9782 22.2403 22.4713 23.1139Z" fill="url(#paint1_linear_1485_50098)"/>
</g>
<defs>
<linearGradient id="paint0_linear_1485_50098" x1="8.91699" y1="9" x2="29.3402" y2="9.23608" gradientUnits="userSpaceOnUse">
<stop stop-color="#40EDC3"/>
<stop offset="0.496174" stop-color="#7FFBA9"/>
<stop offset="1" stop-color="#D3F89A"/>
</linearGradient>
<linearGradient id="paint1_linear_1485_50098" x1="13.3682" y1="11.6904" x2="24.7487" y2="11.7992" gradientUnits="userSpaceOnUse">
<stop stop-color="#40EDC3"/>
<stop offset="0.496174" stop-color="#7FFBA9"/>
<stop offset="1" stop-color="#D3F89A"/>
</linearGradient>
<clipPath id="clip0_1485_50098">
<rect width="22" height="22" fill="white" transform="translate(8 9)"/>
</clipPath>
</defs>
</svg>
