<svg width="39" height="40" viewBox="0 0 39 40" fill="none" xmlns="http://www.w3.org/2000/svg">
<path d="M31.6875 40.0002H7.3125C3.27356 40.0002 0 36.6427 0 32.5002V7.50018C0 3.35768 3.27356 0.000183105 7.3125 0.000183105H31.6875C35.7264 0.000183105 39 3.35768 39 7.50018V32.5002C39 36.6427 35.7264 40.0002 31.6875 40.0002Z" fill="#000000"/>
<path d="M23.8125 22.0625C23.7213 22.0625 23.6339 22.0987 23.5694 22.1632C23.505 22.2276 23.4688 22.3151 23.4688 22.4062V27.2188H21.0625C20.9713 27.2188 20.8839 27.255 20.8194 27.3194C20.755 27.3839 20.7188 27.4713 20.7188 27.5625V29.9688H11.0938V10.7188C11.0916 10.4776 11.0281 10.2411 10.9093 10.0312H22.7812C22.9635 10.0315 23.1383 10.104 23.2672 10.2328C23.396 10.3617 23.4685 10.5365 23.4688 10.7188V14.8438C23.4688 14.9349 23.505 15.0224 23.5694 15.0868C23.6339 15.1513 23.7213 15.1875 23.8125 15.1875C23.9037 15.1875 23.9911 15.1513 24.0556 15.0868C24.12 15.0224 24.1562 14.9349 24.1562 14.8438V10.7188C24.1559 10.3542 24.0109 10.0047 23.7531 9.7469C23.4953 9.48912 23.1458 9.34413 22.7812 9.34375H9.71875C9.35419 9.34413 9.00468 9.48912 8.7469 9.7469C8.48912 10.0047 8.34413 10.3542 8.34375 10.7188V18.625C8.34375 18.7162 8.37997 18.8036 8.44443 18.8681C8.5089 18.9325 8.59633 18.9688 8.6875 18.9688H10.4062V30.3125C10.4062 30.4037 10.4425 30.4911 10.5069 30.5556C10.5714 30.62 10.6588 30.6562 10.75 30.6562H21.0625C21.1536 30.6561 21.241 30.6199 21.3055 30.5555L24.0555 27.8055C24.1166 27.7389 24.1523 27.6528 24.1562 27.5625V22.4062C24.1562 22.3151 24.12 22.2276 24.0556 22.1632C23.9911 22.0987 23.9037 22.0625 23.8125 22.0625ZM9.03125 18.2812V10.7188C9.03125 10.5364 9.10368 10.3615 9.23261 10.2326C9.36155 10.1037 9.53641 10.0312 9.71875 10.0312C9.90109 10.0312 10.076 10.1037 10.2049 10.2326C10.3338 10.3615 10.4062 10.5364 10.4062 10.7188V18.2812H9.03125ZM21.4062 29.4827V27.9062H22.9827L21.4062 29.4827Z" fill="url(#paint0_linear_1485_50128)"/>
<path d="M21.75 11.4062H12.8125C12.7213 11.4062 12.6339 11.4425 12.5694 11.5069C12.505 11.5714 12.4688 11.6588 12.4688 11.75C12.4688 11.8412 12.505 11.9286 12.5694 11.9931C12.6339 12.0575 12.7213 12.0938 12.8125 12.0938H21.75C21.8412 12.0938 21.9286 12.0575 21.9931 11.9931C22.0575 11.9286 22.0938 11.8412 22.0938 11.75C22.0938 11.6588 22.0575 11.5714 21.9931 11.5069C21.9286 11.4425 21.8412 11.4062 21.75 11.4062Z" fill="url(#paint1_linear_1485_50128)"/>
<path d="M21.75 13.4688H12.8125C12.7213 13.4688 12.6339 13.505 12.5694 13.5694C12.505 13.6339 12.4688 13.7213 12.4688 13.8125C12.4688 13.9037 12.505 13.9911 12.5694 14.0556C12.6339 14.12 12.7213 14.1562 12.8125 14.1562H21.75C21.8412 14.1562 21.9286 14.12 21.9931 14.0556C22.0575 13.9911 22.0938 13.9037 22.0938 13.8125C22.0938 13.7213 22.0575 13.6339 21.9931 13.5694C21.9286 13.505 21.8412 13.4688 21.75 13.4688Z" fill="url(#paint2_linear_1485_50128)"/>
<path d="M22.0938 15.875C22.0938 15.7838 22.0575 15.6964 21.9931 15.6319C21.9286 15.5675 21.8412 15.5312 21.75 15.5312H12.8125C12.7213 15.5312 12.6339 15.5675 12.5694 15.6319C12.505 15.6964 12.4688 15.7838 12.4688 15.875C12.4688 15.9662 12.505 16.0536 12.5694 16.1181C12.6339 16.1825 12.7213 16.2188 12.8125 16.2188H21.75C21.8412 16.2188 21.9286 16.1825 21.9931 16.1181C22.0575 16.0536 22.0938 15.9662 22.0938 15.875Z" fill="url(#paint3_linear_1485_50128)"/>
<path d="M21.0625 17.9375C21.0625 17.8463 21.0263 17.7589 20.9618 17.6944C20.8974 17.63 20.8099 17.5938 20.7188 17.5938H12.8125C12.7213 17.5938 12.6339 17.63 12.5694 17.6944C12.505 17.7589 12.4688 17.8463 12.4688 17.9375C12.4688 18.0287 12.505 18.1161 12.5694 18.1806C12.6339 18.245 12.7213 18.2812 12.8125 18.2812H20.7188C20.8099 18.2812 20.8974 18.245 20.9618 18.1806C21.0263 18.1161 21.0625 18.0287 21.0625 17.9375Z" fill="url(#paint4_linear_1485_50128)"/>
<path d="M19 20C19 19.9088 18.9638 19.8214 18.8993 19.7569C18.8349 19.6925 18.7474 19.6562 18.6562 19.6562H12.8125C12.7213 19.6562 12.6339 19.6925 12.5694 19.7569C12.505 19.8214 12.4688 19.9088 12.4688 20C12.4688 20.0912 12.505 20.1786 12.5694 20.2431C12.6339 20.3075 12.7213 20.3438 12.8125 20.3438H18.6562C18.7474 20.3438 18.8349 20.3075 18.8993 20.2431C18.9638 20.1786 19 20.0912 19 20Z" fill="url(#paint5_linear_1485_50128)"/>
<path d="M16.9375 22.0625C16.9375 21.9713 16.9013 21.8839 16.8368 21.8194C16.7724 21.755 16.6849 21.7188 16.5938 21.7188H12.8125C12.7213 21.7188 12.6339 21.755 12.5694 21.8194C12.505 21.8839 12.4688 21.9713 12.4688 22.0625C12.4688 22.1537 12.505 22.2411 12.5694 22.3056C12.6339 22.37 12.7213 22.4062 12.8125 22.4062H16.5938C16.6849 22.4062 16.7724 22.37 16.8368 22.3056C16.9013 22.2411 16.9375 22.1537 16.9375 22.0625Z" fill="url(#paint6_linear_1485_50128)"/>
<path d="M15.2188 23.7812H12.8125C12.7213 23.7812 12.6339 23.8175 12.5694 23.8819C12.505 23.9464 12.4688 24.0338 12.4688 24.125C12.4688 24.2162 12.505 24.3036 12.5694 24.3681C12.6339 24.4325 12.7213 24.4688 12.8125 24.4688H15.2188C15.3099 24.4688 15.3974 24.4325 15.4618 24.3681C15.5263 24.3036 15.5625 24.2162 15.5625 24.125C15.5625 24.0338 15.5263 23.9464 15.4618 23.8819C15.3974 23.8175 15.3099 23.7812 15.2188 23.7812Z" fill="url(#paint7_linear_1485_50128)"/>
<path d="M12.8125 26.5312H15.2188C15.3099 26.5312 15.3974 26.495 15.4618 26.4306C15.5263 26.3661 15.5625 26.2787 15.5625 26.1875C15.5625 26.0963 15.5263 26.0089 15.4618 25.9444C15.3974 25.88 15.3099 25.8438 15.2188 25.8438H12.8125C12.7213 25.8438 12.6339 25.88 12.5694 25.9444C12.505 26.0089 12.4688 26.0963 12.4688 26.1875C12.4688 26.2787 12.505 26.3661 12.5694 26.4306C12.6339 26.495 12.7213 26.5312 12.8125 26.5312Z" fill="url(#paint8_linear_1485_50128)"/>
<path d="M12.8125 28.5938H19.6875C19.7787 28.5938 19.8661 28.5575 19.9306 28.4931C19.995 28.4286 20.0312 28.3412 20.0312 28.25C20.0312 28.1588 19.995 28.0714 19.9306 28.0069C19.8661 27.9425 19.7787 27.9062 19.6875 27.9062H12.8125C12.7213 27.9062 12.6339 27.9425 12.5694 28.0069C12.505 28.0714 12.4688 28.1588 12.4688 28.25C12.4688 28.3412 12.505 28.4286 12.5694 28.4931C12.6339 28.5575 12.7213 28.5938 12.8125 28.5938Z" fill="url(#paint9_linear_1485_50128)"/>
<path d="M29.1284 13.309C28.7901 12.9717 28.3318 12.7822 27.8541 12.7822C27.3763 12.7822 26.9181 12.9717 26.5798 13.309L16.6944 23.1945C16.6526 23.2402 16.6217 23.2949 16.604 23.3543L15.9165 26.1043C15.9021 26.1619 15.9029 26.2222 15.9188 26.2794C15.9346 26.3366 15.965 26.3887 16.007 26.4306C16.049 26.4726 16.1011 26.503 16.1583 26.5188C16.2155 26.5346 16.2758 26.5354 16.3334 26.521L19.0834 25.8335C19.1425 25.8153 19.197 25.7845 19.243 25.7432L29.1284 15.8576C29.2958 15.6903 29.4287 15.4917 29.5193 15.273C29.61 15.0544 29.6566 14.82 29.6566 14.5833C29.6566 14.3466 29.61 14.1122 29.5193 13.8936C29.4287 13.6749 29.2958 13.4763 29.1284 13.309ZM19 25.0139L17.4236 23.4375L26.0469 14.8142L27.6232 16.3907L19 25.0139ZM17.1238 24.1098L18.3277 25.3137L16.7225 25.7152L17.1238 24.1098ZM28.6422 15.3715L28.1094 15.9043L26.5328 14.3282L27.0659 13.7951C27.1692 13.6907 27.2921 13.6078 27.4276 13.5511C27.5631 13.4943 27.7084 13.4649 27.8553 13.4646C28.0022 13.4642 28.1477 13.4928 28.2834 13.5489C28.4192 13.6049 28.5425 13.6872 28.6464 13.791C28.7502 13.8949 28.8326 14.0183 28.8886 14.154C28.9446 14.2898 28.9733 14.4353 28.9729 14.5822C28.9725 14.729 28.9431 14.8744 28.8863 15.0099C28.8296 15.1453 28.7467 15.2683 28.6423 15.3716L28.6422 15.3715Z" fill="url(#paint10_linear_1485_50128)"/>
<defs>
<linearGradient id="paint0_linear_1485_50128" x1="8.34375" y1="9.34375" x2="24.3542" y2="9.49352" gradientUnits="userSpaceOnUse">
<stop stopColor="#40EDC3"/>
<stop offset="0.496174" stopColor="#7FFBA9"/>
<stop offset="1" stopColor="#D3F89A"/>
</linearGradient>
<linearGradient id="paint1_linear_1485_50128" x1="12.4688" y1="11.4062" x2="21.9206" y2="13.0746" gradientUnits="userSpaceOnUse">
<stop stopColor="#40EDC3"/>
<stop offset="0.496174" stopColor="#7FFBA9"/>
<stop offset="1" stopColor="#D3F89A"/>
</linearGradient>
<linearGradient id="paint2_linear_1485_50128" x1="12.4688" y1="13.4688" x2="21.9206" y2="15.1371" gradientUnits="userSpaceOnUse">
<stop stopColor="#40EDC3"/>
<stop offset="0.496174" stopColor="#7FFBA9"/>
<stop offset="1" stopColor="#D3F89A"/>
</linearGradient>
<linearGradient id="paint3_linear_1485_50128" x1="12.4688" y1="15.5312" x2="21.9206" y2="17.1996" gradientUnits="userSpaceOnUse">
<stop stopColor="#40EDC3"/>
<stop offset="0.496174" stopColor="#7FFBA9"/>
<stop offset="1" stopColor="#D3F89A"/>
</linearGradient>
<linearGradient id="paint4_linear_1485_50128" x1="12.4688" y1="17.5938" x2="20.9599" y2="18.932" gradientUnits="userSpaceOnUse">
<stop stopColor="#40EDC3"/>
<stop offset="0.496174" stopColor="#7FFBA9"/>
<stop offset="1" stopColor="#D3F89A"/>
</linearGradient>
<linearGradient id="paint5_linear_1485_50128" x1="12.4688" y1="19.6562" x2="18.9888" y2="20.4372" gradientUnits="userSpaceOnUse">
<stop stopColor="#40EDC3"/>
<stop offset="0.496174" stopColor="#7FFBA9"/>
<stop offset="1" stopColor="#D3F89A"/>
</linearGradient>
<linearGradient id="paint6_linear_1485_50128" x1="12.4688" y1="21.7188" x2="16.9637" y2="22.0871" gradientUnits="userSpaceOnUse">
<stop stopColor="#40EDC3"/>
<stop offset="0.496174" stopColor="#7FFBA9"/>
<stop offset="1" stopColor="#D3F89A"/>
</linearGradient>
<linearGradient id="paint7_linear_1485_50128" x1="12.4688" y1="23.7812" x2="15.5915" y2="23.9584" gradientUnits="userSpaceOnUse">
<stop stopColor="#40EDC3"/>
<stop offset="0.496174" stopColor="#7FFBA9"/>
<stop offset="1" stopColor="#D3F89A"/>
</linearGradient>
<linearGradient id="paint8_linear_1485_50128" x1="12.4688" y1="25.8438" x2="15.5915" y2="26.0209" gradientUnits="userSpaceOnUse">
<stop stopColor="#40EDC3"/>
<stop offset="0.496174" stopColor="#7FFBA9"/>
<stop offset="1" stopColor="#D3F89A"/>
</linearGradient>
<linearGradient id="paint9_linear_1485_50128" x1="12.4688" y1="27.9062" x2="19.9821" y2="28.9483" gradientUnits="userSpaceOnUse">
<stop stopColor="#40EDC3"/>
<stop offset="0.496174" stopColor="#7FFBA9"/>
<stop offset="1" stopColor="#D3F89A"/>
</linearGradient>
<linearGradient id="paint10_linear_1485_50128" x1="15.9063" y1="12.7822" x2="29.8278" y2="12.9578" gradientUnits="userSpaceOnUse">
<stop stopColor="#40EDC3"/>
<stop offset="0.496174" stopColor="#7FFBA9"/>
<stop offset="1" stopColor="#D3F89A"/>
</linearGradient>
</defs>
</svg>
