<svg width="39" height="40" viewBox="0 0 39 40" fill="none" xmlns="http://www.w3.org/2000/svg">
<path d="M31.6875 40H7.3125C3.27356 40 0 36.6425 0 32.5V7.5C0 3.3575 3.27356 0 7.3125 0H31.6875C35.7264 0 39 3.3575 39 7.5V32.5C39 36.6425 35.7264 40 31.6875 40Z" fill="#000000"/>
<path d="M27.7296 13.9447C26.4429 11.659 24.3655 10.024 21.8799 9.34093C19.3942 8.65787 16.7981 9.00842 14.5696 10.328C12.3411 11.6477 10.747 13.7784 10.081 16.3277C9.57444 18.2666 9.65051 20.288 10.301 22.1733C10.8858 23.8682 11.8958 25.3521 13.2344 26.4912L11.0849 28.6959C10.7302 29.0596 10.7302 29.6515 11.0849 30.0153L11.779 30.7272C11.9563 30.9091 12.1893 31 12.4222 31C12.6552 31 12.8881 30.9091 13.0655 30.7272L15.7074 28.0176C16.0924 28.1801 16.4898 28.3184 16.8931 28.4292C17.7231 28.6574 18.5653 28.7702 19.4021 28.7702C21.0714 28.7702 22.719 28.3211 24.2033 27.4421C26.4319 26.1225 28.026 23.9918 28.692 21.4425C29.358 18.8931 29.0162 16.2303 27.7296 13.9447ZM14.9885 11.0721C15.051 11.035 15.114 10.9988 15.1772 10.9634C15.2453 11.137 15.2645 11.2861 15.2828 11.4318C15.3264 11.7771 15.3806 12.2069 16.0546 12.4641C16.1671 12.507 16.2966 12.5366 16.4337 12.5679C16.5985 12.6056 16.9845 12.6937 17.0303 12.7936C17.0382 12.811 17.0407 12.8993 16.9551 13.076C16.8715 13.1268 16.5839 13.1449 16.4096 13.1558C15.9624 13.184 15.4058 13.219 15.1057 13.6498C14.9085 13.9328 14.8753 14.3036 15.0042 14.7834C15.1255 15.2353 15.5726 15.3339 15.899 15.4059C16.1137 15.4533 16.3571 15.507 16.4274 15.6234C16.63 15.9588 16.6878 16.2488 16.6402 16.3619C16.6128 16.4269 16.5065 16.4615 16.4222 16.479C16.0297 16.5609 15.742 16.4571 15.083 15.9967C15.0055 15.9425 14.8813 15.8277 14.7612 15.7167C14.3452 15.3321 13.8738 14.896 13.397 15.0163C12.8502 15.1542 12.6988 15.1344 12.6648 15.1246C12.6464 15.1042 12.6107 15.0459 12.5841 15.0025C12.4611 14.8015 12.2863 14.5164 11.8486 14.2286C12.607 12.933 13.6772 11.8486 14.9885 11.0721ZM11.699 23.2848C11.7939 23.2695 11.9045 23.2408 12.0239 23.173C12.3182 23.0059 12.4164 22.7654 12.475 22.6218C12.4796 22.6104 12.485 22.5972 12.4901 22.5851C12.501 22.5839 12.5149 22.5828 12.5324 22.5824C12.8436 22.5743 13.127 22.8181 13.4004 23.0534C13.6763 23.291 13.961 23.5361 14.3148 23.5361C14.3435 23.5361 14.3727 23.5345 14.4023 23.5311C14.5061 23.5194 14.605 23.4865 14.6987 23.4329C14.8806 24.1679 15.2231 24.8379 15.6853 25.4014L15.0769 26.0254L15.0261 25.9732C14.7022 25.641 14.1934 25.6132 13.8373 25.8877C12.9524 25.1506 12.2337 24.2648 11.699 23.2848ZM12.4731 30.1197C12.446 30.1474 12.3984 30.1474 12.3714 30.1197L11.6773 29.4078C11.6502 29.38 11.6502 29.3313 11.6773 29.3035L14.3319 26.5807C14.3455 26.5668 14.3642 26.5599 14.3828 26.5599C14.4014 26.5599 14.4201 26.5669 14.4336 26.5807L14.7806 26.9366C14.7806 26.9366 14.7807 26.9367 14.7807 26.9367C14.7807 26.9368 14.7807 26.9368 14.7808 26.9368L15.1278 27.2927C15.1447 27.31 15.1483 27.3306 15.1483 27.3448C15.1483 27.3591 15.1447 27.3797 15.1278 27.397L12.4731 30.1197ZM17.1099 27.5992C16.723 27.4929 16.3422 27.3589 15.9742 27.2008C15.9451 27.0061 15.858 26.8265 15.7201 26.6851L15.6692 26.6329L16.2776 26.0089C17.1188 26.7348 18.2036 27.1728 19.3865 27.1728C20.5759 27.1728 21.6663 26.7298 22.5095 25.9966C22.5762 26.1959 22.7285 26.3397 22.9384 26.3973C22.9566 26.4023 22.9666 26.407 22.9709 26.4094C22.9941 26.4535 23.001 26.6036 23.0052 26.6942C23.0105 26.8068 23.0171 26.9438 23.048 27.0834C21.25 27.93 19.1658 28.1643 17.1099 27.5992ZM27.8829 21.22C27.2617 23.5978 25.7641 25.4992 23.8423 26.6579C23.8422 26.6565 23.8421 26.6548 23.8421 26.6533C23.8287 26.3652 23.8048 25.8521 23.3195 25.6269C23.3206 25.6175 23.3218 25.6082 23.3229 25.5995C23.341 25.4563 23.3635 25.2748 23.3291 25.0822C23.8915 24.2717 24.2225 23.2812 24.2225 22.2128C24.2225 21.1765 23.914 20.1837 23.3304 19.3417C23.1964 19.1484 22.9349 19.1031 22.7463 19.2405C22.5578 19.378 22.5136 19.6462 22.6477 19.8396C23.1299 20.5353 23.3848 21.3559 23.3848 22.2128C23.3848 24.474 21.5912 26.3137 19.3865 26.3137C17.1818 26.3137 15.3882 24.474 15.3882 22.2128C15.3882 19.9515 17.1818 18.112 19.3865 18.112C19.509 18.112 19.6347 18.118 19.7602 18.1299C19.9904 18.1515 20.1946 17.978 20.2159 17.7418C20.2372 17.5055 20.0678 17.2962 19.8375 17.2744C19.6864 17.26 19.5347 17.2528 19.3865 17.2528C16.7199 17.2528 14.5505 19.4778 14.5505 22.2128C14.5505 22.2741 14.5519 22.335 14.5541 22.3958C14.4924 22.4526 14.4278 22.5206 14.367 22.6023C14.3388 22.6401 14.3179 22.6609 14.3053 22.6718C14.2236 22.6404 14.0541 22.4945 13.939 22.3954C13.6021 22.1053 13.1405 21.7082 12.5121 21.7235C11.9275 21.738 11.7753 22.1109 11.7022 22.2901C11.6603 22.3927 11.6533 22.4013 11.6181 22.4214C11.597 22.4334 11.574 22.437 11.4942 22.4453C11.4425 22.4507 11.3791 22.4577 11.3071 22.4727C10.5357 20.6472 10.3622 18.5708 10.8901 16.5501C11.0319 16.0074 11.2203 15.4858 11.4509 14.9891C11.6906 15.1593 11.7871 15.3165 11.8747 15.4595C11.9813 15.6337 12.1274 15.8722 12.4605 15.9578C12.71 16.0218 13.0218 15.994 13.5669 15.8583C13.7091 15.9008 14.0389 16.2057 14.2003 16.355C14.3477 16.4912 14.4868 16.6199 14.6114 16.7069C15.1234 17.0646 15.606 17.3623 16.2004 17.3623C16.3246 17.3623 16.4537 17.3493 16.5889 17.3211C17.096 17.2155 17.3149 16.9266 17.4091 16.7028C17.6523 16.1257 17.3016 15.4393 17.1395 15.171C16.8816 14.744 16.4155 14.6412 16.0752 14.5661C15.9872 14.5467 15.8622 14.5191 15.7963 14.4932C15.7479 14.2837 15.7666 14.1791 15.7873 14.1494C15.8554 14.0516 16.2344 14.0278 16.4609 14.0135C16.906 13.9855 17.4599 13.9506 17.6932 13.4832C17.8934 13.082 17.9254 12.7271 17.7885 12.4283C17.5678 11.9467 17.0175 11.8211 16.6157 11.7293C16.5123 11.7057 16.4053 11.6813 16.3468 11.6589C16.1466 11.5825 16.1466 11.5825 16.1136 11.3215C16.0905 11.1382 16.0585 10.8881 15.9315 10.5875C17.7367 9.79253 19.7362 9.64135 21.6631 10.1709C26.348 11.4583 29.1381 16.415 27.8829 21.22Z" fill="url(#paint0_linear_1485_49611)"/>
<path d="M19.3862 18.9711C17.6435 18.9711 16.2256 20.4253 16.2256 22.2127C16.2256 24.0002 17.6434 25.4544 19.3862 25.4544C21.129 25.4544 22.5468 24.0002 22.5468 22.2127C22.5468 20.4253 21.129 18.9711 19.3862 18.9711ZM19.3862 24.5952C18.1054 24.5952 17.0633 23.5264 17.0633 22.2127C17.0633 20.899 18.1053 19.8303 19.3862 19.8303C20.6671 19.8303 21.7091 20.899 21.7091 22.2127C21.7091 23.5264 20.6671 24.5952 19.3862 24.5952Z" fill="url(#paint1_linear_1485_49611)"/>
<path d="M21.3963 18.6675C21.4594 18.7024 21.5274 18.7189 21.5945 18.7189C21.7436 18.7189 21.888 18.637 21.9636 18.4929C22.0733 18.284 21.9971 18.0235 21.7934 17.911L21.7931 17.9109C21.5896 17.7984 21.3356 17.8766 21.2259 18.0855C21.1162 18.2944 21.1926 18.555 21.3963 18.6675Z" fill="url(#paint2_linear_1485_49611)"/>
<defs>
<linearGradient id="paint0_linear_1485_49611" x1="9.75" y1="9.00002" x2="29.2651" y2="9.21558" gradientUnits="userSpaceOnUse">
<stop stop-color="#40EDC3"/>
<stop offset="0.496174" stop-color="#7FFBA9"/>
<stop offset="1" stop-color="#D3F89A"/>
</linearGradient>
<linearGradient id="paint1_linear_1485_49611" x1="16.2256" y1="18.9711" x2="22.6255" y2="19.0498" gradientUnits="userSpaceOnUse">
<stop stop-color="#40EDC3"/>
<stop offset="0.496174" stop-color="#7FFBA9"/>
<stop offset="1" stop-color="#D3F89A"/>
</linearGradient>
<linearGradient id="paint2_linear_1485_49611" x1="21.1758" y1="17.8595" x2="22.0242" y2="17.8699" gradientUnits="userSpaceOnUse">
<stop stop-color="#40EDC3"/>
<stop offset="0.496174" stop-color="#7FFBA9"/>
<stop offset="1" stop-color="#D3F89A"/>
</linearGradient>
</defs>
</svg>
