<svg width="39" height="40" viewBox="0 0 39 40" fill="none" xmlns="http://www.w3.org/2000/svg">
<path d="M31.6875 40H7.3125C3.27356 40 0 36.6425 0 32.5V7.5C0 3.3575 3.27356 0 7.3125 0H31.6875C35.7264 0 39 3.3575 39 7.5V32.5C39 36.6425 35.7264 40 31.6875 40Z" fill="#000000"/>
<path d="M19.7232 19.3463C21.1494 19.345 22.3042 18.158 22.3028 16.6954C22.3015 15.2329 21.1442 14.0483 19.7181 14.0497C18.2922 14.0512 17.1373 15.238 17.1387 16.7006C17.1432 18.1619 18.2985 19.3444 19.7232 19.3463ZM19.7232 15.0752C20.5984 15.0752 21.308 15.8028 21.308 16.7006C21.308 17.5982 20.5984 18.3259 19.7232 18.3259C18.8479 18.3259 18.1385 17.5982 18.1385 16.7006C18.1387 15.803 18.8482 15.0754 19.7232 15.0752Z" fill="url(#paint0_linear_1485_49931)"/>
<path d="M16.2548 25.0542H23.1935C23.4695 25.0535 23.6926 24.8244 23.6934 24.5414C23.6934 23.3827 23.2836 22.3162 22.5337 21.5317C21.792 20.7607 20.7801 20.3268 19.7242 20.3268C18.6683 20.3268 17.6564 20.7607 16.9147 21.5317C16.1648 22.3162 15.7549 23.3827 15.7549 24.5414C15.7557 24.8244 15.9789 25.0535 16.2548 25.0542ZM17.6296 22.2495C18.1829 21.6754 18.9372 21.3522 19.7242 21.3522C20.5111 21.3522 21.2655 21.6754 21.8187 22.2495C22.2775 22.735 22.572 23.3586 22.6587 24.0287H16.7897C16.8753 23.3583 17.17 22.7341 17.6296 22.2495Z" fill="url(#paint1_linear_1485_49931)"/>
<path d="M26.222 9.74329H21.7227V8.51273C21.722 8.22993 21.4986 8.0008 21.2228 8H18.2233C17.9476 8.0008 17.7242 8.22993 17.7234 8.51273V9.74329H13.2242C11.844 9.74393 10.7252 10.8913 10.7246 12.307V29.945C10.7252 31.3606 11.844 32.508 13.2242 32.5087H26.222C27.6022 32.508 28.7209 31.3606 28.7215 29.945V12.307C28.7209 10.8913 27.6022 9.74393 26.222 9.74329ZM18.7232 9.02547H20.7229V11.0764H18.7232V9.02547ZM27.7217 29.945C27.7194 30.7934 27.0492 31.4808 26.222 31.4832H13.2242C12.397 31.4808 11.7268 30.7934 11.7244 29.945V12.307C11.7268 11.4585 12.397 10.7712 13.2242 10.7688H17.7234V11.5891C17.7242 11.8719 17.9476 12.1011 18.2233 12.1019H21.2228C21.4986 12.1011 21.722 11.8719 21.7227 11.5891V10.7688H26.222C27.0492 10.7712 27.7194 11.4585 27.7217 12.307V29.945Z" fill="url(#paint2_linear_1485_49931)"/>
<path d="M25.1325 28.7148H14.3144C14.0383 28.7148 13.8145 28.9442 13.8145 29.2275C13.8145 29.5108 14.0383 29.7403 14.3144 29.7403H25.1375C25.4137 29.7388 25.6363 29.5081 25.6349 29.225C25.6335 28.9417 25.4086 28.7133 25.1325 28.7148Z" fill="url(#paint3_linear_1485_49931)"/>
<path d="M16.8134 26.4577C16.5373 26.4577 16.3135 26.6872 16.3135 26.9704C16.3135 27.2537 16.5373 27.4832 16.8134 27.4832H22.6374C22.9136 27.4832 23.1373 27.2537 23.1373 26.9704C23.1373 26.6872 22.9136 26.4577 22.6374 26.4577H16.8134Z" fill="url(#paint4_linear_1485_49931)"/>
<defs>
<linearGradient id="paint0_linear_1485_49931" x1="17.1387" y1="14.0497" x2="22.3671" y2="14.114" gradientUnits="userSpaceOnUse">
<stop stop-color="#40EDC3"/>
<stop offset="0.496174" stop-color="#7FFBA9"/>
<stop offset="1" stop-color="#D3F89A"/>
</linearGradient>
<linearGradient id="paint1_linear_1485_49931" x1="15.7549" y1="20.3268" x2="23.7899" y2="20.4969" gradientUnits="userSpaceOnUse">
<stop stop-color="#40EDC3"/>
<stop offset="0.496174" stop-color="#7FFBA9"/>
<stop offset="1" stop-color="#D3F89A"/>
</linearGradient>
<linearGradient id="paint2_linear_1485_49931" x1="10.7246" y1="8" x2="28.9469" y2="8.16871" gradientUnits="userSpaceOnUse">
<stop stop-color="#40EDC3"/>
<stop offset="0.496174" stop-color="#7FFBA9"/>
<stop offset="1" stop-color="#D3F89A"/>
</linearGradient>
<linearGradient id="paint3_linear_1485_49931" x1="13.8145" y1="28.7148" x2="25.5364" y2="30.4183" gradientUnits="userSpaceOnUse">
<stop stop-color="#40EDC3"/>
<stop offset="0.496174" stop-color="#7FFBA9"/>
<stop offset="1" stop-color="#D3F89A"/>
</linearGradient>
<linearGradient id="paint4_linear_1485_49931" x1="16.3135" y1="26.4577" x2="23.1751" y2="27.0334" gradientUnits="userSpaceOnUse">
<stop stop-color="#40EDC3"/>
<stop offset="0.496174" stop-color="#7FFBA9"/>
<stop offset="1" stop-color="#D3F89A"/>
</linearGradient>
</defs>
</svg>
