<svg width="39" height="40" viewBox="0 0 39 40" fill="none" xmlns="http://www.w3.org/2000/svg">
<path d="M31.6875 40H7.3125C3.27356 40 0 36.6425 0 32.5V7.5C0 3.3575 3.27356 0 7.3125 0H31.6875C35.7264 0 39 3.3575 39 7.5V32.5C39 36.6425 35.7264 40 31.6875 40Z" fill="#000000"/>
<path d="M21.2895 23.1668L19.8309 21.6708C19.6593 21.4948 19.4019 21.4948 19.2303 21.6708C19.0587 21.8468 19.0587 22.1108 19.2303 22.2868L20.9892 24.0908C21.075 24.1788 21.2037 24.2228 21.2895 24.2228C21.4182 24.2228 21.504 24.1788 21.5898 24.0908L25.1505 20.4388C25.3221 20.2628 25.3221 19.9988 25.1505 19.8228C24.9789 19.6468 24.7215 19.6468 24.5499 19.8228L21.2895 23.1668Z" fill="url(#paint0_linear_1485_49861)"/>
<path d="M30.1697 26.9945L27.2525 24.0025C27.467 23.4745 27.6386 22.9025 27.6815 22.3305C27.8102 20.8345 27.3812 19.3385 26.4374 18.1945C25.9226 17.5345 25.2791 17.0505 24.5498 16.6985V14.4105C24.5498 13.3545 23.6918 12.4745 22.6193 12.4745H21.461V11.8585C21.461 11.1985 20.9462 10.6705 20.2598 10.6705H18.9728C18.7583 9.96648 18.1148 9.43848 17.3855 9.43848C16.6133 9.43848 16.0127 9.96648 15.7982 10.6265H14.5112C13.8248 10.6705 13.31 11.1985 13.31 11.8585V12.4745H12.1517C11.0792 12.4745 10.2212 13.3545 10.2212 14.4105V28.6225C10.1783 29.6785 11.0792 30.5585 12.1517 30.5585H22.6193C23.6918 30.5585 24.5498 29.6785 24.5498 28.5785V27.1705L27.2525 29.9425C28.0247 30.7345 29.3117 30.7785 30.1268 29.9425C30.9419 29.1065 30.9848 27.7865 30.1697 26.9945ZM25.7939 18.7225C26.5661 19.6905 26.9522 20.9665 26.8235 22.1985C26.6519 24.0025 25.5365 25.4985 23.9921 26.1585C23.9921 26.1585 23.9921 26.1585 23.9492 26.1585C23.2628 26.4665 22.5335 26.5545 21.7184 26.5105C19.1444 26.2465 17.2997 23.9145 17.5571 21.2745C17.6858 20.0425 18.2435 18.9425 19.1015 18.1505C19.1015 18.1505 19.1015 18.1505 19.1444 18.1065C20.0882 17.2705 21.3752 16.8305 22.6622 16.9625C23.1341 17.0065 23.5631 17.1385 23.9921 17.3145C24.6785 17.6665 25.2791 18.1065 25.7939 18.7225ZM14.168 11.8585C14.168 11.6825 14.3396 11.5505 14.5112 11.5505H16.1843C16.4417 11.5505 16.6133 11.3745 16.6133 11.1105C16.6133 10.6705 16.9565 10.3625 17.3855 10.3625C17.8145 10.3625 18.2006 10.7145 18.2006 11.1105C18.2006 11.3745 18.3722 11.5505 18.6296 11.5505H20.3027C20.4743 11.5505 20.6459 11.6825 20.6459 11.8585V13.9705C20.6459 14.1465 20.4743 14.2785 20.3027 14.2785H14.5112C14.3396 14.2785 14.168 14.1465 14.168 13.9705V11.8585ZM22.6193 29.6785H12.1517C11.5511 29.6785 11.0363 29.1945 11.0363 28.6225V14.4105C11.0363 13.8385 11.5082 13.3545 12.1088 13.3545H13.2671V13.9705C13.2671 14.6305 13.7819 15.1585 14.4683 15.1585H20.2598C20.9033 15.1585 21.461 14.6305 21.461 13.9705V13.3545H22.6193C23.2199 13.3545 23.6918 13.8385 23.6918 14.4105V16.3465C23.3915 16.2585 23.0483 16.1705 22.7051 16.1705C21.1607 15.9945 19.745 16.5225 18.6296 17.4465H13.4816C13.2242 17.4465 13.0526 17.6225 13.0526 17.8865C13.0526 18.1505 13.2242 18.3265 13.4816 18.3265H17.8145C17.5142 18.7225 17.2997 19.1185 17.0852 19.6025H13.5245C13.2671 19.6025 13.0955 19.7785 13.0955 20.0425C13.0955 20.3065 13.2671 20.4825 13.5245 20.4825H16.8707C16.8278 20.7465 16.742 21.0105 16.742 21.2745V21.7585H13.5245C13.2671 21.7585 13.0955 21.9345 13.0955 22.1985C13.0955 22.4625 13.2671 22.6385 13.5245 22.6385H16.742C16.7849 23.0785 16.9136 23.4745 17.0423 23.9145H13.5245C13.2671 23.9145 13.0955 24.0905 13.0955 24.3545C13.0955 24.6185 13.2671 24.7945 13.5245 24.7945H17.4713C17.7287 25.2785 18.0719 25.6745 18.458 26.0265H13.5245C13.2671 26.0265 13.0955 26.2025 13.0955 26.4665C13.0955 26.7305 13.2671 26.9065 13.5245 26.9065H19.745C20.3456 27.2145 20.9462 27.3905 21.6326 27.4785C22.319 27.5665 23.0054 27.4785 23.6918 27.3025V28.6665C23.7347 29.1505 23.2199 29.6785 22.6193 29.6785ZM29.5691 29.3265C29.0972 29.8105 28.3679 29.8105 27.896 29.3265L25.1504 26.5545C25.8368 26.1145 26.3945 25.5425 26.8235 24.8385L29.5262 27.6105C30.041 28.0945 30.041 28.8425 29.5691 29.3265Z" fill="url(#paint1_linear_1485_49861)"/>
<defs>
<linearGradient id="paint0_linear_1485_49861" x1="19.1016" y1="19.6908" x2="25.3552" y2="19.7983" gradientUnits="userSpaceOnUse">
<stop stop-color="#40EDC3"/>
<stop offset="0.496174" stop-color="#7FFBA9"/>
<stop offset="1" stop-color="#D3F89A"/>
</linearGradient>
<linearGradient id="paint1_linear_1485_49861" x1="10.2197" y1="9.43848" x2="31.0158" y2="9.69348" gradientUnits="userSpaceOnUse">
<stop stop-color="#40EDC3"/>
<stop offset="0.496174" stop-color="#7FFBA9"/>
<stop offset="1" stop-color="#D3F89A"/>
</linearGradient>
</defs>
</svg>
