<svg width="39" height="40" viewBox="0 0 39 40" fill="none" xmlns="http://www.w3.org/2000/svg">
<path d="M31.6875 40.0002H7.3125C3.27356 40.0002 0 36.6427 0 32.5002V7.50018C0 3.35768 3.27356 0.000183105 7.3125 0.000183105H31.6875C35.7264 0.000183105 39 3.35768 39 7.50018V32.5002C39 36.6427 35.7264 40.0002 31.6875 40.0002Z" fill="#000000"/>
<g clip-path="url(#clip0_1485_50144)">
<path d="M11.2774 27.6H17.7124C17.9099 27.6 18.0699 27.4358 18.0699 27.2333C18.0699 27.0308 17.9099 26.8666 17.7124 26.8666H11.2774C11.08 26.8666 10.9199 27.0308 10.9199 27.2333C10.9199 27.4358 11.08 27.6 11.2774 27.6Z" fill="url(#paint0_linear_1485_50144)"/>
<path d="M29.6083 17.546C30.2579 17.0853 30.4203 16.1718 29.9712 15.5055L29.1582 14.2992C28.7083 13.634 27.8186 13.4676 27.1687 13.927L16.6371 21.3971C16.5653 21.4483 16.5033 21.5125 16.4541 21.5867L14.2093 24.96C14.0426 25.2107 14.0436 25.5407 14.2118 25.7903C14.3801 26.0399 14.6808 26.1575 14.9683 26.086L18.8397 25.125C18.9251 25.1039 19.0058 25.0666 19.0778 25.015L29.6083 17.546ZM18.9108 24.2428L17.2838 21.8298L23.7546 17.2413L25.3816 19.6543L18.9108 24.2428ZM24.3405 16.8244L25.2228 16.1985L26.8498 18.6115L25.9679 19.2371L24.3405 16.8244ZM27.5756 14.5302C27.9004 14.3 28.3456 14.3834 28.5701 14.7164L29.3834 15.9224C29.6072 16.2559 29.5262 16.7121 29.2022 16.9432L27.4368 18.1943L25.8099 15.7816L27.5756 14.5302ZM16.7887 22.3845L18.2301 24.5222L16.7408 24.8925L15.9253 23.6829L16.7887 22.3845ZM14.8003 25.3751L15.4935 24.3319L15.9968 25.0777L14.8003 25.3751Z" fill="url(#paint1_linear_1485_50144)"/>
<path d="M11.2774 18.4333H19.4463C19.6437 18.4333 19.8038 18.2692 19.8038 18.0667C19.8038 17.8642 19.6437 17.7 19.4463 17.7H11.2774C11.08 17.7 10.9199 17.8642 10.9199 18.0667C10.9199 18.2692 11.08 18.4333 11.2774 18.4333Z" fill="url(#paint2_linear_1485_50144)"/>
<path d="M11.2774 20.2667H16.8616C17.059 20.2667 17.2191 20.1025 17.2191 19.9C17.2191 19.6975 17.059 19.5333 16.8616 19.5333H11.2774C11.08 19.5333 10.9199 19.6975 10.9199 19.9C10.9199 20.1025 11.08 20.2667 11.2774 20.2667Z" fill="url(#paint3_linear_1485_50144)"/>
<path d="M11.2774 22.1H15.0562C15.2536 22.1 15.4137 21.9358 15.4137 21.7333C15.4137 21.5308 15.2536 21.3666 15.0562 21.3666H11.2774C11.08 21.3666 10.9199 21.5308 10.9199 21.7333C10.9199 21.9358 11.08 22.1 11.2774 22.1Z" fill="url(#paint4_linear_1485_50144)"/>
<path d="M11.2774 23.9333H13.8371C14.0346 23.9333 14.1946 23.7692 14.1946 23.5667C14.1946 23.3642 14.0346 23.2 13.8371 23.2H11.2774C11.08 23.2 10.9199 23.3642 10.9199 23.5667C10.9199 23.7692 11.08 23.9333 11.2774 23.9333Z" fill="url(#paint5_linear_1485_50144)"/>
<path d="M11.2774 25.7667H13.0077C13.2052 25.7667 13.3652 25.6025 13.3652 25.4C13.3652 25.1975 13.2052 25.0333 13.0077 25.0333H11.2774C11.08 25.0333 10.9199 25.1975 10.9199 25.4C10.9199 25.6025 11.08 25.7667 11.2774 25.7667Z" fill="url(#paint6_linear_1485_50144)"/>
<path d="M9.84789 29.8H22.0029C22.5952 29.8 23.0754 29.3075 23.0754 28.7V23.9333C23.0754 23.7308 22.9153 23.5667 22.7179 23.5667C22.5204 23.5667 22.3604 23.7308 22.3604 23.9333V28.7C22.3604 28.9025 22.2003 29.0667 22.0029 29.0667H9.84789C9.65045 29.0667 9.49039 28.9025 9.49039 28.7V16.2333H22.7179C22.9153 16.2333 23.0754 16.0692 23.0754 15.8667V13.6667C23.0742 12.6546 22.2746 11.8345 21.2879 11.8333H21.2672C21.1567 10.7806 20.5783 10 19.8579 10C19.1375 10 18.5591 10.7806 18.4486 11.8333H17.3347C17.2242 10.7806 16.6458 10 15.9254 10C15.205 10 14.6266 10.7806 14.5161 11.8333H13.4022C13.2917 10.7806 12.7133 10 11.9929 10C11.2725 10 10.6941 10.7806 10.5836 11.8333H10.5629C9.57617 11.8345 8.77657 12.6546 8.77539 13.6667V28.7C8.77539 29.3075 9.25557 29.8 9.84789 29.8ZM9.49039 13.6667C9.49039 13.0592 9.97057 12.5667 10.5629 12.5667H11.6354C11.8328 12.5667 11.9929 12.4025 11.9929 12.2C11.9929 11.9975 11.8328 11.8333 11.6354 11.8333H11.3054C11.3948 11.1854 11.7069 10.7333 11.9929 10.7333C12.3304 10.7333 12.7079 11.3603 12.7079 12.2C12.7079 13.0397 12.3304 13.6667 11.9929 13.6667C11.7954 13.6667 11.6354 13.8308 11.6354 14.0333C11.6354 14.2358 11.7954 14.4 11.9929 14.4C12.7133 14.4 13.2917 13.6194 13.4022 12.5667H15.5679C15.7653 12.5667 15.9254 12.4025 15.9254 12.2C15.9254 11.9975 15.7653 11.8333 15.5679 11.8333H15.2379C15.3273 11.1854 15.6394 10.7333 15.9254 10.7333C16.2629 10.7333 16.6404 11.3603 16.6404 12.2C16.6404 13.0397 16.2629 13.6667 15.9254 13.6667C15.7279 13.6667 15.5679 13.8308 15.5679 14.0333C15.5679 14.2358 15.7279 14.4 15.9254 14.4C16.6458 14.4 17.2242 13.6194 17.3347 12.5667H19.5004C19.6978 12.5667 19.8579 12.4025 19.8579 12.2C19.8579 11.9975 19.6978 11.8333 19.5004 11.8333H19.1704C19.2598 11.1854 19.5719 10.7333 19.8579 10.7333C20.1954 10.7333 20.5729 11.3603 20.5729 12.2C20.5729 13.0397 20.1954 13.6667 19.8579 13.6667C19.6604 13.6667 19.5004 13.8308 19.5004 14.0333C19.5004 14.2358 19.6604 14.4 19.8579 14.4C20.5783 14.4 21.1567 13.6194 21.2672 12.5667H21.2879C21.8802 12.5667 22.3604 13.0592 22.3604 13.6667V15.5H9.49039V13.6667Z" fill="url(#paint7_linear_1485_50144)"/>
<path d="M20.5725 26.5V27.2334H19.8575C19.6601 27.2334 19.5 27.3975 19.5 27.6C19.5 27.8025 19.6601 27.9667 19.8575 27.9667H20.93C21.1274 27.9667 21.2875 27.8025 21.2875 27.6V26.5C21.2875 26.2975 21.1274 26.1334 20.93 26.1334C20.7326 26.1334 20.5725 26.2975 20.5725 26.5Z" fill="url(#paint8_linear_1485_50144)"/>
</g>
<defs>
<linearGradient id="paint0_linear_1485_50144" x1="10.9199" y1="26.8666" x2="18.0523" y2="27.7434" gradientUnits="userSpaceOnUse">
<stop stopColor="#40EDC3"/>
<stop offset="0.496174" stopColor="#7FFBA9"/>
<stop offset="1" stopColor="#D3F89A"/>
</linearGradient>
<linearGradient id="paint1_linear_1485_50144" x1="14.085" y1="13.6674" x2="30.4242" y2="13.9347" gradientUnits="userSpaceOnUse">
<stop stopColor="#40EDC3"/>
<stop offset="0.496174" stopColor="#7FFBA9"/>
<stop offset="1" stopColor="#D3F89A"/>
</linearGradient>
<linearGradient id="paint2_linear_1485_50144" x1="10.9199" y1="17.7" x2="19.7107" y2="19.0427" gradientUnits="userSpaceOnUse">
<stop stopColor="#40EDC3"/>
<stop offset="0.496174" stopColor="#7FFBA9"/>
<stop offset="1" stopColor="#D3F89A"/>
</linearGradient>
<linearGradient id="paint3_linear_1485_50144" x1="10.9199" y1="19.5333" x2="17.2245" y2="20.2161" gradientUnits="userSpaceOnUse">
<stop stopColor="#40EDC3"/>
<stop offset="0.496174" stopColor="#7FFBA9"/>
<stop offset="1" stopColor="#D3F89A"/>
</linearGradient>
<linearGradient id="paint4_linear_1485_50144" x1="10.9199" y1="21.3666" x2="15.4434" y2="21.7161" gradientUnits="userSpaceOnUse">
<stop stopColor="#40EDC3"/>
<stop offset="0.496174" stopColor="#7FFBA9"/>
<stop offset="1" stopColor="#D3F89A"/>
</linearGradient>
<linearGradient id="paint5_linear_1485_50144" x1="10.9199" y1="23.2" x2="14.2254" y2="23.3861" gradientUnits="userSpaceOnUse">
<stop stopColor="#40EDC3"/>
<stop offset="0.496174" stopColor="#7FFBA9"/>
<stop offset="1" stopColor="#D3F89A"/>
</linearGradient>
<linearGradient id="paint6_linear_1485_50144" x1="10.9199" y1="25.0333" x2="13.3917" y2="25.1372" gradientUnits="userSpaceOnUse">
<stop stopColor="#40EDC3"/>
<stop offset="0.496174" stopColor="#7FFBA9"/>
<stop offset="1" stopColor="#D3F89A"/>
</linearGradient>
<linearGradient id="paint7_linear_1485_50144" x1="8.77539" y1="10" x2="23.2545" y2="10.1318" gradientUnits="userSpaceOnUse">
<stop stopColor="#40EDC3"/>
<stop offset="0.496174" stopColor="#7FFBA9"/>
<stop offset="1" stopColor="#D3F89A"/>
</linearGradient>
<linearGradient id="paint8_linear_1485_50144" x1="19.5" y1="26.1334" x2="21.3098" y2="26.1556" gradientUnits="userSpaceOnUse">
<stop stopColor="#40EDC3"/>
<stop offset="0.496174" stopColor="#7FFBA9"/>
<stop offset="1" stopColor="#D3F89A"/>
</linearGradient>
<clipPath id="clip0_1485_50144">
<rect width="21.45" height="19.8" fill="white" transform="translate(8.77539 10)"/>
</clipPath>
</defs>
</svg>
