<svg width="39" height="40" viewBox="0 0 39 40" fill="none" xmlns="http://www.w3.org/2000/svg">
<path d="M31.6875 40.0002H7.3125C3.27356 40.0002 0 36.6427 0 32.5002V7.50021C0 3.35771 3.27356 0.000213623 7.3125 0.000213623H31.6875C35.7264 0.000213623 39 3.35771 39 7.50021V32.5002C39 36.6427 35.7264 40.0002 31.6875 40.0002Z" fill="#000000"/>
<g clip-path="url(#clip0_1485_49918)">
<path d="M24.7951 21.846C24.0448 21.846 23.3373 22.0372 22.716 22.3742V17.906H25.3607L18.6501 9L11.2713 17.906H13.8536V18.9752L9.74219 24.4876H11.7571V31H22.716V30.4718C23.3373 30.8088 24.0448 31 24.7951 31C27.2558 31 29.2577 28.9467 29.2577 26.423C29.2577 23.8992 27.2558 21.846 24.7951 21.846ZM15.6464 23.2046V29.6819H13.0081V23.2046H12.2743L14.4812 20.2455L16.5128 23.2046H15.6464ZM16.8974 29.6819V24.4876H18.9236L15.1046 18.9249V16.623H13.976L18.604 11.0371L22.8129 16.623H21.465V23.3798C20.7611 24.1892 20.3326 25.2556 20.3326 26.423C20.3326 27.5904 20.7611 28.6569 21.465 29.4663V29.6819H16.8974V29.6819ZM24.7951 29.7169C23.0243 29.7169 21.5836 28.2393 21.5836 26.423C21.5836 24.6067 23.0243 23.129 24.7951 23.129C26.566 23.129 28.0067 24.6067 28.0067 26.423C28.0067 28.2393 26.566 29.7169 24.7951 29.7169Z" fill="url(#paint0_linear_1485_49918)"/>
<path d="M24.2794 26.7035L23.4998 25.904L22.6152 26.8112L24.2794 28.518L26.9744 25.7539L26.0898 24.8466L24.2794 26.7035Z" fill="url(#paint1_linear_1485_49918)"/>
</g>
<defs>
<linearGradient id="paint0_linear_1485_49918" x1="9.74219" y1="9" x2="29.5013" y2="9.22099" gradientUnits="userSpaceOnUse">
<stop stop-color="#40EDC3"/>
<stop offset="0.496174" stop-color="#7FFBA9"/>
<stop offset="1" stop-color="#D3F89A"/>
</linearGradient>
<linearGradient id="paint1_linear_1485_49918" x1="22.6152" y1="24.8466" x2="27.0284" y2="24.9127" gradientUnits="userSpaceOnUse">
<stop stop-color="#40EDC3"/>
<stop offset="0.496174" stop-color="#7FFBA9"/>
<stop offset="1" stop-color="#D3F89A"/>
</linearGradient>
<clipPath id="clip0_1485_49918">
<rect width="21.45" height="22" fill="white" transform="translate(8.77539 9)"/>
</clipPath>
</defs>
</svg>
