<svg width="39" height="40" viewBox="0 0 39 40" fill="none" xmlns="http://www.w3.org/2000/svg">
<path d="M31.6875 40H7.3125C3.27356 40 0 36.6425 0 32.5V7.5C0 3.3575 3.27356 0 7.3125 0H31.6875C35.7264 0 39 3.3575 39 7.5V32.5C39 36.6425 35.7264 40 31.6875 40Z" fill="#000000"/>
<path d="M19.5096 12.916L19.5089 13.416L19.5087 13.416L19.508 13.416L19.5048 13.416L19.492 13.416L19.4412 13.416C19.3966 13.4161 19.3307 13.4162 19.2462 13.4165C19.0773 13.4171 18.834 13.4185 18.5372 13.4215C17.9434 13.4275 17.1363 13.44 16.282 13.4659C15.4269 13.4918 14.5288 13.531 13.7518 13.5901C12.9631 13.6501 12.3425 13.7279 12.0122 13.8201C11.3641 14.0138 10.8571 14.5335 10.667 15.2034C10.1242 18.1178 10.1089 21.6171 10.6575 24.762L10.6592 24.7616C10.8493 25.4544 11.3566 25.9759 11.984 26.1696L11.9956 26.1722L12.009 26.1759C12.3347 26.2668 12.955 26.344 13.7461 26.4039C14.5226 26.4627 15.4213 26.5022 16.2775 26.5285C17.1329 26.5549 17.9416 26.5681 18.5367 26.5747C18.8342 26.578 19.078 26.5796 19.2474 26.5804L19.4428 26.5812L19.4937 26.5812L19.5066 26.5813L19.5098 26.5813H19.5106H19.5107L19.5108 27.0812L19.5108 26.5813H19.511H19.5117L19.5149 26.5813L19.5278 26.5812L19.5785 26.5812L19.7735 26.5804C19.9424 26.5796 20.1856 26.578 20.4824 26.5747C21.0762 26.5681 21.8833 26.5549 22.7376 26.5285C23.5927 26.5022 24.4909 26.4627 25.2683 26.4039C26.056 26.3443 26.6772 26.2676 27.0092 26.1768C27.6567 25.9828 28.1632 25.4636 28.3533 24.7941C28.6059 23.4134 28.7503 21.8199 28.7503 20.188C28.7503 20.1259 28.7503 20.0696 28.7492 20.0142L28.749 20.0039L28.7492 19.9937C28.7503 19.9425 28.7503 19.8808 28.7503 19.8118C28.7503 18.2488 28.618 16.7201 28.363 15.2352L28.3611 15.2356C28.1711 14.5428 27.6637 14.0213 27.0363 13.8276L27.0248 13.8251L27.0114 13.8213C26.6853 13.7304 26.0648 13.6532 25.2737 13.5933C24.4972 13.5345 23.5984 13.4951 22.7423 13.4687C21.8871 13.4424 21.0785 13.4292 20.4835 13.4226C20.186 13.4193 19.9422 13.4176 19.7729 13.4168L19.5775 13.4161L19.5266 13.416L19.5137 13.416L19.5105 13.416L19.5098 13.416L19.5096 13.416L19.5096 12.916ZM19.5096 12.916L19.5089 13.416H19.5096V12.916ZM17.0573 23.0415V23.9214L17.8132 23.471L22.9047 20.4375L23.6244 20.0087L22.9053 19.5789L17.8138 16.5353L17.0573 16.0831V16.9645V23.0415Z" stroke="url(#paint0_linear_1485_50092)" strokeWidth="0.999926"/>
<defs>
<linearGradient id="paint0_linear_1485_50092" x1="9.75293" y1="12.916" x2="29.4902" y2="13.2585" gradientUnits="userSpaceOnUse">
<stop stopColor="#40EDC3"/>
<stop offset="0.496174" stopColor="#7FFBA9"/>
<stop offset="1" stopColor="#D3F89A"/>
</linearGradient>
</defs>
</svg>
