<svg width="39" height="40" viewBox="0 0 39 40" fill="none" xmlns="http://www.w3.org/2000/svg">
<path d="M31.6875 40H7.3125C3.27356 40 0 36.6425 0 32.5V7.5C0 3.3575 3.27356 0 7.3125 0H31.6875C35.7264 0 39 3.3575 39 7.5V32.5C39 36.6425 35.7264 40 31.6875 40Z" fill="#000000"/>
<path d="M19.5096 12.9166L19.5089 13.4165L19.5087 13.4165L19.508 13.4165L19.5048 13.4165L19.492 13.4165L19.4412 13.4166C19.3966 13.4166 19.3307 13.4167 19.2462 13.4171C19.0773 13.4177 18.834 13.4191 18.5372 13.4221C17.9434 13.4281 17.1363 13.4406 16.282 13.4665C15.4269 13.4924 14.5288 13.5316 13.7518 13.5907C12.9631 13.6507 12.3425 13.7285 12.0122 13.8206C11.3641 14.0144 10.8571 14.534 10.667 15.204C10.1242 18.1183 10.1089 21.6177 10.6575 24.7626L10.6592 24.7622C10.8493 25.455 11.3566 25.9765 11.984 26.1702L11.9956 26.1727L12.009 26.1765C12.3347 26.2674 12.955 26.3446 13.7461 26.4045C14.5226 26.4633 15.4213 26.5027 16.2775 26.5291C17.1329 26.5554 17.9416 26.5686 18.5367 26.5752C18.8342 26.5785 19.078 26.5802 19.2474 26.581L19.4428 26.5817L19.4937 26.5818L19.5066 26.5818L19.5098 26.5818H19.5106H19.5107L19.5108 27.0818L19.5108 26.5818H19.511H19.5117L19.5149 26.5818L19.5278 26.5818L19.5785 26.5817L19.7735 26.581C19.9424 26.5802 20.1856 26.5785 20.4824 26.5752C21.0762 26.5686 21.8833 26.5554 22.7376 26.5291C23.5927 26.5027 24.4909 26.4633 25.2683 26.4045C26.056 26.3449 26.6772 26.2681 27.0092 26.1774C27.6567 25.9834 28.1632 25.4641 28.3533 24.7947C28.6059 23.4139 28.7503 21.8204 28.7503 20.1885C28.7503 20.1265 28.7503 20.0702 28.7492 20.0147L28.749 20.0045L28.7492 19.9942C28.7503 19.9431 28.7503 19.8813 28.7503 19.8123C28.7503 18.2493 28.618 16.7207 28.363 15.2358L28.3611 15.2362C28.1711 14.5434 27.6637 14.0219 27.0363 13.8282L27.0248 13.8256L27.0114 13.8219C26.6853 13.731 26.0648 13.6538 25.2737 13.5939C24.4972 13.5351 23.5984 13.4956 22.7423 13.4693C21.8871 13.4429 21.0785 13.4297 20.4835 13.4231C20.186 13.4198 19.9422 13.4182 19.7729 13.4174L19.5775 13.4166L19.5266 13.4165L19.5137 13.4165L19.5105 13.4165L19.5098 13.4165L19.5096 13.4165L19.5096 12.9166ZM19.5096 12.9166L19.5089 13.4165H19.5096V12.9166ZM17.0573 23.0421V23.9219L17.8132 23.4716L22.9047 20.4381L23.6244 20.0093L22.9053 19.5794L17.8138 16.5359L17.0573 16.0837V16.965V23.0421Z" stroke="url(#paint0_linear_1485_50095)" strokeWidth="0.999926"/>
<defs>
<linearGradient id="paint0_linear_1485_50095" x1="9.75293" y1="12.9166" x2="29.4902" y2="13.2591" gradientUnits="userSpaceOnUse">
<stop stopColor="#40EDC3"/>
<stop offset="0.496174" stopColor="#7FFBA9"/>
<stop offset="1" stopColor="#D3F89A"/>
</linearGradient>
</defs>
</svg>
