<svg width="39" height="40" viewBox="0 0 39 40" fill="none" xmlns="http://www.w3.org/2000/svg">
<path d="M31.6875 40H7.3125C3.27356 40 0 36.6425 0 32.5V7.5C0 3.3575 3.27356 0 7.3125 0H31.6875C35.7264 0 39 3.3575 39 7.5V32.5C39 36.6425 35.7264 40 31.6875 40Z" fill="#000000"/>
<g clipPath="url(#clip0_1485_49950)">
<path d="M18.0925 20.4352C19.984 20.4352 21.5229 18.8568 21.5229 16.9168C21.5229 14.9768 19.9841 13.3984 18.0925 13.3984C16.201 13.3984 14.6621 14.9768 14.6621 16.9168C14.6621 18.8568 16.201 20.4352 18.0925 20.4352ZM18.0925 14.2578C19.522 14.2578 20.685 15.4506 20.685 16.9168C20.685 18.383 19.522 19.5758 18.0925 19.5758C16.663 19.5758 15.5 18.383 15.5 16.9168C15.5 15.4506 16.663 14.2578 18.0925 14.2578Z" fill="url(#paint0_linear_1485_49950)"/>
<path d="M17.3385 18.1938C17.4726 18.2732 17.6197 18.3129 17.7668 18.3129C17.9139 18.3129 18.061 18.2732 18.1952 18.1938L19.0667 17.6777C19.3349 17.5189 19.4951 17.2344 19.4951 16.9168C19.4951 16.5992 19.335 16.3147 19.0667 16.1559L18.1952 15.6398C17.9271 15.481 17.6068 15.481 17.3385 15.6398C17.0703 15.7986 16.9102 16.0831 16.9102 16.4008V17.4329C16.9101 17.7505 17.0703 18.035 17.3385 18.1938ZM17.748 16.4007C17.748 16.3949 17.748 16.3895 17.7574 16.384C17.7614 16.3816 17.7646 16.3808 17.7672 16.3808C17.7707 16.3808 17.7734 16.3824 17.7762 16.384L18.6477 16.9C18.6525 16.9029 18.6572 16.9056 18.6572 16.9168C18.6572 16.9279 18.6526 16.9306 18.6477 16.9335L17.7762 17.4495C17.7713 17.4524 17.7668 17.4551 17.7574 17.4495C17.748 17.444 17.748 17.4386 17.748 17.4328V16.4007Z" fill="url(#paint1_linear_1485_49950)"/>
<path d="M22.7981 21.8906H13.3213C13.0899 21.8906 12.9023 22.083 12.9023 22.3203C12.9023 22.5576 13.0899 22.75 13.3213 22.75H22.7981C23.0294 22.75 23.217 22.5576 23.217 22.3203C23.217 22.083 23.0295 21.8906 22.7981 21.8906Z" fill="url(#paint2_linear_1485_49950)"/>
<path d="M21.6727 23.8672H13.3213C13.0899 23.8672 12.9023 24.0596 12.9023 24.2969C12.9023 24.5342 13.0899 24.7266 13.3213 24.7266H21.6727C21.9041 24.7266 22.0917 24.5342 22.0917 24.2969C22.0917 24.0596 21.9041 23.8672 21.6727 23.8672Z" fill="url(#paint3_linear_1485_49950)"/>
<path d="M21.6727 25.8438H13.3213C13.0899 25.8438 12.9023 26.0361 12.9023 26.2734C12.9023 26.5108 13.0899 26.7031 13.3213 26.7031H21.6727C21.9041 26.7031 22.0917 26.5108 22.0917 26.2734C22.0917 26.0361 21.9041 25.8438 21.6727 25.8438Z" fill="url(#paint4_linear_1485_49950)"/>
<path d="M21.6727 27.8203H13.3213C13.0899 27.8203 12.9023 28.0127 12.9023 28.25C12.9023 28.4873 13.0899 28.6797 13.3213 28.6797H21.6727C21.9041 28.6797 22.0917 28.4873 22.0917 28.25C22.0917 28.0127 21.9041 27.8203 21.6727 27.8203Z" fill="url(#paint5_linear_1485_49950)"/>
<path d="M29.4132 14.6917L28.4532 14.3249C28.1411 14.2057 27.8022 14.2183 27.4992 14.3603C27.1962 14.5024 26.9652 14.757 26.8489 15.0772L25.7177 18.1919V12.0078C25.7177 11.297 25.1539 10.7188 24.4609 10.7188H24.025V10.2891C24.025 9.57827 23.4612 9 22.7682 9H10.0322C9.33921 9 8.77539 9.57827 8.77539 10.2891V27.9922C8.77539 28.703 9.33921 29.2812 10.0322 29.2812H10.4681V29.7109C10.4681 30.4217 11.0319 31 11.7249 31H24.4609C25.1539 31 25.7177 30.4217 25.7177 29.7109V27.1426L26.4174 26.4748C26.4651 26.4292 26.5018 26.3729 26.5246 26.3102L30.1467 16.3372C30.3868 15.6761 30.0577 14.938 29.4132 14.6917ZM24.8798 29.7109C24.8798 29.9479 24.6918 30.1406 24.4608 30.1406H11.7249C11.4939 30.1406 11.3059 29.9479 11.3059 29.7109V22.793C11.3059 22.5557 11.1183 22.3633 10.887 22.3633C10.6557 22.3633 10.4681 22.5557 10.4681 22.793V28.4219H10.0322C9.80118 28.4219 9.61324 28.2291 9.61324 27.9922V10.2891C9.61324 10.0521 9.80118 9.85938 10.0322 9.85938H22.7681C22.9991 9.85938 23.1871 10.0521 23.1871 10.2891V10.7188H11.7249C11.0319 10.7188 10.4681 11.297 10.4681 12.0078V18.9258C10.4681 19.1631 10.6557 19.3555 10.887 19.3555C11.1183 19.3555 11.3059 19.1631 11.3059 18.9258V12.0078C11.3059 11.7709 11.4939 11.5781 11.7249 11.5781H24.4608C24.6918 11.5781 24.8798 11.7709 24.8798 12.0078V20.499L23.2268 25.0502C23.204 25.1129 23.1959 25.1801 23.2029 25.2466L23.5259 28.2964C23.543 28.458 23.6476 28.5959 23.7961 28.6527C23.8437 28.6708 23.8932 28.6797 23.9423 28.6797C24.0464 28.6797 24.1489 28.6398 24.2277 28.5646L24.8797 27.9423V29.7109H24.8798ZM24.2686 27.3517L24.1092 25.8459L25.3497 26.3199L24.2686 27.3517ZM29.3615 16.0372L25.8856 25.6075L24.1582 24.9476L27.6341 15.3772C27.6723 15.2721 27.7481 15.1885 27.8475 15.1419C27.9471 15.0952 28.0584 15.0911 28.1608 15.1302L29.1207 15.497C29.3322 15.5779 29.4403 15.8202 29.3615 16.0372Z" fill="url(#paint6_linear_1485_49950)"/>
<path d="M10.8867 21.2891C11.1181 21.2891 11.3057 21.0967 11.3057 20.8594C11.3057 20.6221 11.1181 20.4297 10.8867 20.4297C10.6553 20.4297 10.4678 20.6221 10.4678 20.8594C10.4678 21.0967 10.6553 21.2891 10.8867 21.2891Z" fill="url(#paint7_linear_1485_49950)"/>
</g>
<defs>
<linearGradient id="paint0_linear_1485_49950" x1="14.6621" y1="13.3984" x2="21.6084" y2="13.4838" gradientUnits="userSpaceOnUse">
<stop stopColor="#40EDC3"/>
<stop offset="0.496174" stopColor="#7FFBA9"/>
<stop offset="1" stopColor="#D3F89A"/>
</linearGradient>
<linearGradient id="paint1_linear_1485_49950" x1="16.9102" y1="15.5207" x2="19.5273" y2="15.5512" gradientUnits="userSpaceOnUse">
<stop stopColor="#40EDC3"/>
<stop offset="0.496174" stopColor="#7FFBA9"/>
<stop offset="1" stopColor="#D3F89A"/>
</linearGradient>
<linearGradient id="paint2_linear_1485_49950" x1="12.9023" y1="21.8906" x2="23.1132" y2="23.4358" gradientUnits="userSpaceOnUse">
<stop stopColor="#40EDC3"/>
<stop offset="0.496174" stopColor="#7FFBA9"/>
<stop offset="1" stopColor="#D3F89A"/>
</linearGradient>
<linearGradient id="paint3_linear_1485_49950" x1="12.9023" y1="23.8672" x2="22.0414" y2="25.0993" gradientUnits="userSpaceOnUse">
<stop stopColor="#40EDC3"/>
<stop offset="0.496174" stopColor="#7FFBA9"/>
<stop offset="1" stopColor="#D3F89A"/>
</linearGradient>
<linearGradient id="paint4_linear_1485_49950" x1="12.9023" y1="25.8438" x2="22.0414" y2="27.0759" gradientUnits="userSpaceOnUse">
<stop stopColor="#40EDC3"/>
<stop offset="0.496174" stopColor="#7FFBA9"/>
<stop offset="1" stopColor="#D3F89A"/>
</linearGradient>
<linearGradient id="paint5_linear_1485_49950" x1="12.9023" y1="27.8203" x2="22.0414" y2="29.0524" gradientUnits="userSpaceOnUse">
<stop stopColor="#40EDC3"/>
<stop offset="0.496174" stopColor="#7FFBA9"/>
<stop offset="1" stopColor="#D3F89A"/>
</linearGradient>
<linearGradient id="paint6_linear_1485_49950" x1="8.77539" y1="9" x2="30.4924" y2="9.26696" gradientUnits="userSpaceOnUse">
<stop stopColor="#40EDC3"/>
<stop offset="0.496174" stopColor="#7FFBA9"/>
<stop offset="1" stopColor="#D3F89A"/>
</linearGradient>
<linearGradient id="paint7_linear_1485_49950" x1="10.4678" y1="20.4297" x2="11.3161" y2="20.4402" gradientUnits="userSpaceOnUse">
<stop stopColor="#40EDC3"/>
<stop offset="0.496174" stopColor="#7FFBA9"/>
<stop offset="1" stopColor="#D3F89A"/>
</linearGradient>
<clipPath id="clip0_1485_49950">
<rect width="21.45" height="22" fill="white" transform="translate(8.77539 9)"/>
</clipPath>
</defs>
</svg>
