<svg width="39" height="40" viewBox="0 0 39 40" fill="none" xmlns="http://www.w3.org/2000/svg">
<path d="M31.6875 40H7.3125C3.27356 40 0 36.6425 0 32.5V7.5C0 3.3575 3.27356 0 7.3125 0H31.6875C35.7264 0 39 3.3575 39 7.5V32.5C39 36.6425 35.7264 40 31.6875 40Z" fill="#000000"/>
<g clip-path="url(#clip0_1485_49964)">
<path d="M26.5703 20.9371C26.5703 18.3136 26.5703 15.314 26.5703 12.6916C26.5703 11.6088 25.7113 10.7278 24.6555 10.7278H10.6901C9.63456 10.7278 8.77539 11.6086 8.77539 12.6916V23.5596C8.77539 24.6424 9.63431 25.5234 10.6901 25.5234H22.0987C22.3091 27.6263 24.0463 29.2722 26.1514 29.2722C28.3978 29.2722 30.2254 27.3977 30.2254 25.0937C30.2254 22.9347 28.6207 21.1529 26.5703 20.9371ZM9.61328 23.5596V14.7468H10.912C11.1434 14.7468 11.331 14.5543 11.331 14.3171C11.331 14.0798 11.1434 13.8874 10.912 13.8874H9.61328V12.6917C9.61328 12.1398 10.01 11.6811 10.5263 11.6C10.6802 11.5758 9.7946 11.5918 24.6555 11.5872C25.2493 11.5872 25.7324 12.0827 25.7324 12.6917V13.8874H14.2636C14.0322 13.8874 13.8446 14.0798 13.8446 14.3171C13.8446 14.5543 14.0322 14.7468 14.2636 14.7468H25.7324V20.937C23.8139 21.1367 22.2943 22.7125 22.0986 24.6639H10.6901C10.0964 24.664 9.61328 24.1686 9.61328 23.5596ZM26.1513 28.4128C24.3669 28.4128 22.9151 26.9239 22.9151 25.0937C22.9151 23.2635 24.3669 21.7746 26.1513 21.7746C27.9357 21.7746 29.3875 23.2635 29.3875 25.0937C29.3875 26.9239 27.9358 28.4128 26.1513 28.4128Z" fill="url(#paint0_linear_1485_49964)"/>
<path d="M27.3323 24.8195H26.5387V24.0055C26.5387 23.7682 26.3512 23.5758 26.1198 23.5758C25.8884 23.5758 25.7008 23.7682 25.7008 24.0055V24.8195H24.9072C24.6758 24.8195 24.4883 25.0119 24.4883 25.2491C24.4883 25.4864 24.6758 25.6788 24.9072 25.6788H25.7008V26.4928C25.7008 26.7301 25.8884 26.9225 26.1198 26.9225C26.3512 26.9225 26.5387 26.7301 26.5387 26.4928V25.6788H27.3323C27.5637 25.6788 27.7513 25.4864 27.7513 25.2491C27.7513 25.0119 27.5637 24.8195 27.3323 24.8195Z" fill="url(#paint1_linear_1485_49964)"/>
<path d="M12.5884 13.8874H12.5874C12.356 13.8874 12.1689 14.0798 12.1689 14.3171C12.1689 14.5544 12.3571 14.7468 12.5884 14.7468C12.8198 14.7468 13.0074 14.5544 13.0074 14.3171C13.0074 14.0798 12.8198 13.8874 12.5884 13.8874Z" fill="url(#paint2_linear_1485_49964)"/>
<path d="M22.8936 13.167H24.1923C24.4237 13.167 24.6112 12.9746 24.6112 12.7373C24.6112 12.5 24.4237 12.3076 24.1923 12.3076H22.8936C22.6622 12.3076 22.4746 12.5 22.4746 12.7373C22.4746 12.9746 22.6622 13.167 22.8936 13.167Z" fill="url(#paint3_linear_1485_49964)"/>
<path d="M21.6901 22.1272H20.9314C20.7685 21.561 20.2573 21.1465 19.6532 21.1465C19.0491 21.1465 18.5379 21.5611 18.375 22.1272H13.3369C13.1055 22.1272 12.918 22.3196 12.918 22.5569C12.918 22.7942 13.1055 22.9866 13.3369 22.9866H18.4029C18.591 23.5078 19.0804 23.8803 19.6532 23.8803C20.2259 23.8803 20.7154 23.5078 20.9035 22.9866H21.6901C21.9215 22.9866 22.109 22.7942 22.109 22.5569C22.109 22.3196 21.9215 22.1272 21.6901 22.1272ZM19.6532 23.021C19.3803 23.021 19.1583 22.7933 19.1583 22.5134C19.1583 22.2336 19.3803 22.0059 19.6532 22.0059C19.926 22.0059 20.148 22.2336 20.148 22.5134C20.148 22.7933 19.926 23.021 19.6532 23.021Z" fill="url(#paint4_linear_1485_49964)"/>
<path d="M10.8447 21.3493C10.6133 21.3493 10.4258 21.5417 10.4258 21.779V23.2478C10.4258 23.4851 10.6133 23.6775 10.8447 23.6775C11.0761 23.6775 11.2637 23.4851 11.2637 23.2478V21.779C11.2637 21.5417 11.0761 21.3493 10.8447 21.3493Z" fill="url(#paint5_linear_1485_49964)"/>
<path d="M12.0908 21.3493C11.8594 21.3493 11.6719 21.5417 11.6719 21.779V23.2478C11.6719 23.4851 11.8594 23.6775 12.0908 23.6775C12.3222 23.6775 12.5098 23.4851 12.5098 23.2478V21.779C12.5098 21.5417 12.3222 21.3493 12.0908 21.3493Z" fill="url(#paint6_linear_1485_49964)"/>
<path d="M17.4172 21.0507L19.8439 19.4353V19.4353C20.549 18.9659 20.5481 17.9073 19.8439 17.4386L17.4173 15.8231C16.6461 15.3098 15.625 15.8787 15.625 16.8214V20.0523C15.625 20.9993 16.6512 21.5608 17.4172 21.0507ZM16.4629 16.8215C16.4629 16.5636 16.7414 16.3979 16.9611 16.544L19.3877 18.1595C19.5837 18.2899 19.5836 18.5841 19.3877 18.7144V18.7145L16.9611 20.3299C16.7465 20.4729 16.4629 20.3153 16.4629 20.0524V16.8215H16.4629Z" fill="url(#paint7_linear_1485_49964)"/>
</g>
<defs>
<linearGradient id="paint0_linear_1485_49964" x1="8.77539" y1="10.7278" x2="30.4913" y2="11.0445" gradientUnits="userSpaceOnUse">
<stop stop-color="#40EDC3"/>
<stop offset="0.496174" stop-color="#7FFBA9"/>
<stop offset="1" stop-color="#D3F89A"/>
</linearGradient>
<linearGradient id="paint1_linear_1485_49964" x1="24.4883" y1="23.5758" x2="27.7919" y2="23.6164" gradientUnits="userSpaceOnUse">
<stop stop-color="#40EDC3"/>
<stop offset="0.496174" stop-color="#7FFBA9"/>
<stop offset="1" stop-color="#D3F89A"/>
</linearGradient>
<linearGradient id="paint2_linear_1485_49964" x1="12.1689" y1="13.8874" x2="13.0178" y2="13.8978" gradientUnits="userSpaceOnUse">
<stop stop-color="#40EDC3"/>
<stop offset="0.496174" stop-color="#7FFBA9"/>
<stop offset="1" stop-color="#D3F89A"/>
</linearGradient>
<linearGradient id="paint3_linear_1485_49964" x1="22.4746" y1="12.3076" x2="24.636" y2="12.3754" gradientUnits="userSpaceOnUse">
<stop stop-color="#40EDC3"/>
<stop offset="0.496174" stop-color="#7FFBA9"/>
<stop offset="1" stop-color="#D3F89A"/>
</linearGradient>
<linearGradient id="paint4_linear_1485_49964" x1="12.918" y1="21.1465" x2="22.2082" y2="21.5403" gradientUnits="userSpaceOnUse">
<stop stop-color="#40EDC3"/>
<stop offset="0.496174" stop-color="#7FFBA9"/>
<stop offset="1" stop-color="#D3F89A"/>
</linearGradient>
<linearGradient id="paint5_linear_1485_49964" x1="10.4258" y1="21.3493" x2="11.2742" y2="21.3532" gradientUnits="userSpaceOnUse">
<stop stop-color="#40EDC3"/>
<stop offset="0.496174" stop-color="#7FFBA9"/>
<stop offset="1" stop-color="#D3F89A"/>
</linearGradient>
<linearGradient id="paint6_linear_1485_49964" x1="11.6719" y1="21.3493" x2="12.5203" y2="21.3532" gradientUnits="userSpaceOnUse">
<stop stop-color="#40EDC3"/>
<stop offset="0.496174" stop-color="#7FFBA9"/>
<stop offset="1" stop-color="#D3F89A"/>
</linearGradient>
<linearGradient id="paint7_linear_1485_49964" x1="15.625" y1="15.6298" x2="20.4317" y2="15.681" gradientUnits="userSpaceOnUse">
<stop stop-color="#40EDC3"/>
<stop offset="0.496174" stop-color="#7FFBA9"/>
<stop offset="1" stop-color="#D3F89A"/>
</linearGradient>
<clipPath id="clip0_1485_49964">
<rect width="21.45" height="22" fill="white" transform="translate(8.77539 9)"/>
</clipPath>
</defs>
</svg>
